M48
; DRILL file {KiCad (6.0.7)} date Fri Aug 12 11:14:54 2022
; FORMAT={-:-/ absolute / inch / decimal}
; #@! TF.CreationDate,2022-08-12T11:14:54-05:00
; #@! TF.GenerationSoftware,Kicad,Pcbnew,(6.0.7)
; #@! TF.FileFunction,Plated,1,4,PTH
FMAT,2
INCH
; #@! TA.AperFunction,Plated,PTH,ViaDrill
T1C0.0157
; #@! TA.AperFunction,Plated,PTH,ComponentDrill
T2C0.0394
; #@! TA.AperFunction,Plated,PTH,ComponentDrill
T3C0.0472
; #@! TA.AperFunction,Plated,PTH,ComponentDrill
T4C0.0551
; #@! TA.AperFunction,Plated,PTH,ComponentDrill
T5C0.1260
%
G90
G05
T1
X2.1317Y-3.6853
X2.1667Y-3.7093
X2.1696Y-2.5343
X2.1796Y-2.3243
X2.1936Y-2.7443
X2.22Y-3.367
X2.22Y-3.7853
X2.2556Y-2.8533
X2.2696Y-2.5343
X2.2977Y-3.7082
X2.2977Y-3.7442
X2.2977Y-3.7823
X2.2977Y-3.8183
X2.3107Y-3.1573
X2.3396Y-2.7343
X2.3647Y-4.0613
X2.3816Y-2.8403
X2.384Y-3.227
X2.4047Y-3.7813
X2.4047Y-4.2853
X2.4147Y-4.2113
X2.4157Y-4.1563
X2.4396Y-2.9743
X2.4543Y-3.2937
X2.4696Y-2.7443
X2.4817Y-4.0213
X2.5047Y-3.9113
X2.5196Y-2.6643
X2.5316Y-2.2373
X2.5322Y-2.4193
X2.5496Y-2.9953
X2.5566Y-2.3643
X2.5677Y-4.1613
X2.5747Y-3.5303
X2.5921Y-4.1063
X2.5927Y-4.2883
X2.6047Y-3.8613
X2.6196Y-2.6143
X2.6426Y-2.5043
X2.6547Y-3.7813
X2.6693Y-3.2967
X2.6847Y-3.5513
X2.7086Y-2.3693
X2.7096Y-2.3143
X2.7196Y-2.2403
X2.7196Y-2.7443
X2.739Y-3.224
X2.7427Y-3.6853
X2.7596Y-2.4643
X2.7847Y-3.7913
X2.8137Y-3.1543
X2.8266Y-2.7073
X2.8266Y-2.7433
X2.8266Y-2.7814
X2.8266Y-2.8174
X2.8547Y-3.9913
X2.8687Y-3.6723
X2.9017Y-3.3663
X2.9043Y-2.7403
X2.9307Y-3.7813
X2.9447Y-4.2013
X2.9547Y-3.9913
X2.9576Y-2.8163
X2.9926Y-2.8403
X3.0707Y-3.6853
X3.1057Y-3.7093
X3.1086Y-2.5343
X3.1186Y-2.3243
X3.1326Y-2.7443
X3.159Y-3.7853
X3.163Y-3.364
X3.1946Y-2.8533
X3.2086Y-2.5343
X3.2367Y-3.7082
X3.2367Y-3.7442
X3.2367Y-3.7823
X3.2367Y-3.8183
X3.2497Y-3.1573
X3.2786Y-2.7343
X3.3037Y-4.0613
X3.3206Y-2.8403
X3.323Y-3.227
X3.3437Y-3.7813
X3.3437Y-4.2853
X3.3537Y-4.2113
X3.3547Y-4.1563
X3.3786Y-2.9743
X3.3973Y-3.2907
X3.4086Y-2.7443
X3.4207Y-4.0213
X3.4437Y-3.9113
X3.4586Y-2.6643
X3.4706Y-2.2373
X3.4712Y-2.4193
X3.4886Y-2.9953
X3.4956Y-2.3643
X3.5067Y-4.1613
X3.5137Y-3.5303
X3.5311Y-4.1063
X3.5317Y-4.2883
X3.5437Y-3.8613
X3.5586Y-2.6143
X3.5816Y-2.5043
X3.5937Y-3.7813
X3.6083Y-3.2967
X3.6237Y-3.5513
X3.6476Y-2.3693
X3.6486Y-2.3143
X3.6586Y-2.2403
X3.6586Y-2.7443
X3.6817Y-3.6853
X3.682Y-3.221
X3.6986Y-2.4643
X3.7237Y-3.7913
X3.7567Y-3.1513
X3.7656Y-2.7073
X3.7656Y-2.7433
X3.7656Y-2.7814
X3.7656Y-2.8174
X3.7937Y-3.9913
X3.8077Y-3.6723
X3.8407Y-3.3663
X3.8433Y-2.7403
X3.8697Y-3.7813
X3.8837Y-4.2013
X3.8937Y-3.9913
X3.8966Y-2.8163
X3.9316Y-2.8403
X4.0097Y-3.6853
X4.0447Y-3.7093
X4.0476Y-2.5343
X4.0576Y-2.3243
X4.0716Y-2.7443
X4.098Y-3.366
X4.098Y-3.7853
X4.1336Y-2.8533
X4.1476Y-2.5343
X4.1757Y-3.7082
X4.1757Y-3.7442
X4.1757Y-3.7823
X4.1757Y-3.8183
X4.1907Y-3.1573
X4.2176Y-2.7343
X4.2427Y-4.0613
X4.2596Y-2.8403
X4.264Y-3.227
X4.2827Y-3.7813
X4.2827Y-4.2853
X4.2927Y-4.2113
X4.2937Y-4.1563
X4.3176Y-2.9743
X4.3323Y-3.2927
X4.3476Y-2.7443
X4.3597Y-4.0213
X4.3827Y-3.9113
X4.3976Y-2.6643
X4.4096Y-2.2373
X4.4102Y-2.4193
X4.4276Y-2.9953
X4.4346Y-2.3643
X4.4457Y-4.1613
X4.4527Y-3.5303
X4.4701Y-4.1063
X4.4707Y-4.2883
X4.4827Y-3.8613
X4.4976Y-2.6143
X4.5206Y-2.5043
X4.5327Y-3.7813
X4.5493Y-3.2967
X4.5627Y-3.5513
X4.5866Y-2.3693
X4.5876Y-2.3143
X4.5976Y-2.2403
X4.5976Y-2.7443
X4.617Y-3.223
X4.6207Y-3.6853
X4.6376Y-2.4643
X4.6627Y-3.7913
X4.6917Y-3.1533
X4.7046Y-2.7073
X4.7046Y-2.7433
X4.7046Y-2.7814
X4.7046Y-2.8174
X4.7327Y-3.9913
X4.7467Y-3.6723
X4.7817Y-3.3663
X4.7823Y-2.7403
X4.8087Y-3.7813
X4.8227Y-4.2013
X4.8327Y-3.9913
X4.8356Y-2.8163
X4.8706Y-2.8403
X4.9487Y-3.6853
X4.9837Y-3.7093
X4.9866Y-2.5343
X4.9966Y-2.3243
X5.0106Y-2.7443
X5.036Y-3.364
X5.0371Y-3.7853
X5.0726Y-2.8533
X5.0866Y-2.5343
X5.1147Y-3.7082
X5.1147Y-3.7442
X5.1147Y-3.7823
X5.1147Y-3.8183
X5.1307Y-3.1573
X5.1566Y-2.7343
X5.1817Y-4.0613
X5.1986Y-2.8403
X5.204Y-3.227
X5.2217Y-3.7813
X5.2217Y-4.2853
X5.2317Y-4.2113
X5.2327Y-4.1563
X5.2566Y-2.9743
X5.2703Y-3.2907
X5.2866Y-2.7443
X5.2987Y-4.0213
X5.3217Y-3.9113
X5.3366Y-2.6643
X5.3486Y-2.2373
X5.3492Y-2.4193
X5.3666Y-2.9953
X5.3736Y-2.3643
X5.3847Y-4.1613
X5.3917Y-3.5303
X5.4091Y-4.1063
X5.4097Y-4.2883
X5.4217Y-3.8613
X5.4366Y-2.6143
X5.4596Y-2.5043
X5.4717Y-3.7813
X5.4893Y-3.2967
X5.5017Y-3.5513
X5.5256Y-2.3693
X5.5266Y-2.3143
X5.5366Y-2.2403
X5.5366Y-2.7443
X5.555Y-3.221
X5.5597Y-3.6853
X5.5766Y-2.4643
X5.6017Y-3.7913
X5.6297Y-3.1513
X5.6436Y-2.7073
X5.6436Y-2.7433
X5.6436Y-2.7814
X5.6436Y-2.8174
X5.6717Y-3.9913
X5.6857Y-3.6723
X5.7213Y-2.7403
X5.7217Y-3.3663
X5.7477Y-3.7813
X5.7617Y-4.2013
X5.7717Y-3.9913
X5.7746Y-2.8163
X5.8096Y-2.8403
X5.8877Y-3.6853
X5.9227Y-3.7093
X5.9257Y-2.5343
X5.9357Y-2.3243
X5.9497Y-2.7443
X5.9761Y-3.7853
X5.977Y-3.369
X6.0117Y-2.8533
X6.0257Y-2.5343
X6.0537Y-3.7082
X6.0537Y-3.7442
X6.0537Y-3.7823
X6.0537Y-3.8183
X6.0697Y-3.1573
X6.0957Y-2.7343
X6.1207Y-4.0613
X6.1377Y-2.8403
X6.143Y-3.227
X6.1607Y-3.7813
X6.1607Y-4.2853
X6.1707Y-4.2113
X6.1717Y-4.1563
X6.1957Y-2.9743
X6.2113Y-3.2957
X6.2257Y-2.7443
X6.2377Y-4.0213
X6.2607Y-3.9113
X6.2757Y-2.6643
X6.2877Y-2.2373
X6.2882Y-2.4193
X6.3057Y-2.9953
X6.3127Y-2.3643
X6.3237Y-4.1613
X6.3307Y-3.5303
X6.3481Y-4.1063
X6.3487Y-4.2883
X6.3607Y-3.8613
X6.3757Y-2.6143
X6.3987Y-2.5043
X6.4107Y-3.7813
X6.4283Y-3.2967
X6.4407Y-3.5513
X6.4647Y-2.3693
X6.4657Y-2.3143
X6.4757Y-2.2403
X6.4757Y-2.7443
X6.496Y-3.226
X6.4987Y-3.6853
X6.5157Y-2.4643
X6.5407Y-3.7913
X6.5707Y-3.1563
X6.5827Y-2.7073
X6.5827Y-2.7433
X6.5827Y-2.7814
X6.5827Y-2.8174
X6.6107Y-3.9913
X6.6247Y-3.6723
X6.6603Y-2.7403
X6.6607Y-3.3663
X6.6867Y-3.7813
X6.7007Y-4.2013
X6.7107Y-3.9913
X6.7137Y-2.8163
X6.7487Y-2.8403
X6.8267Y-3.6853
X6.8617Y-3.7093
X6.8647Y-2.5343
X6.8747Y-2.3243
X6.8887Y-2.7443
X6.9151Y-3.7853
X6.916Y-3.366
X6.9507Y-2.8533
X6.9647Y-2.5343
X6.9927Y-3.7082
X6.9927Y-3.7442
X6.9927Y-3.7823
X6.9927Y-3.8183
X7.0067Y-3.1543
X7.0347Y-2.7343
X7.0597Y-4.0613
X7.0767Y-2.8403
X7.08Y-3.224
X7.0997Y-3.7813
X7.0997Y-4.2853
X7.1097Y-4.2113
X7.1107Y-4.1563
X7.1347Y-2.9743
X7.1503Y-3.2927
X7.1647Y-2.7443
X7.1767Y-4.0213
X7.1997Y-3.9113
X7.2147Y-2.6643
X7.2267Y-2.2373
X7.2272Y-2.4193
X7.2447Y-2.9953
X7.2517Y-2.3643
X7.2627Y-4.1613
X7.2697Y-3.5303
X7.2871Y-4.1063
X7.2877Y-4.2883
X7.2997Y-3.8613
X7.3147Y-2.6143
X7.3377Y-2.5043
X7.3497Y-3.7813
X7.3653Y-3.2937
X7.3797Y-3.5513
X7.4037Y-2.3693
X7.4047Y-2.3143
X7.4147Y-2.2403
X7.4147Y-2.7443
X7.435Y-3.223
X7.4377Y-3.6853
X7.4547Y-2.4643
X7.4797Y-3.7913
X7.5097Y-3.1533
X7.5217Y-2.7073
X7.5217Y-2.7433
X7.5217Y-2.7814
X7.5217Y-2.8174
X7.5497Y-3.9913
X7.5637Y-3.6723
X7.5977Y-3.3633
X7.5993Y-2.7403
X7.6257Y-3.7813
X7.6397Y-4.2013
X7.6497Y-3.9913
X7.6527Y-2.8163
X7.6877Y-2.8403
X7.7657Y-3.6853
X7.8007Y-3.7093
X7.8037Y-2.5343
X7.8137Y-2.3243
X7.8277Y-2.7443
X7.8541Y-3.7853
X7.857Y-3.368
X7.8897Y-2.8533
X7.9037Y-2.5343
X7.9317Y-3.7082
X7.9317Y-3.7442
X7.9317Y-3.7823
X7.9317Y-3.8183
X7.9467Y-3.1573
X7.9737Y-2.7343
X7.9987Y-4.0613
X8.0157Y-2.8403
X8.02Y-3.227
X8.0387Y-3.7813
X8.0387Y-4.2853
X8.0487Y-4.2113
X8.0497Y-4.1563
X8.0737Y-2.9743
X8.0913Y-3.2947
X8.1037Y-2.7443
X8.1157Y-4.0213
X8.1387Y-3.9113
X8.1537Y-2.6643
X8.1657Y-2.2373
X8.1662Y-2.4193
X8.1837Y-2.9953
X8.1907Y-2.3643
X8.2017Y-4.1613
X8.2087Y-3.5303
X8.2261Y-4.1063
X8.2267Y-4.2883
X8.2387Y-3.8613
X8.2537Y-2.6143
X8.2767Y-2.5043
X8.2887Y-3.7813
X8.3053Y-3.2967
X8.3187Y-3.5513
X8.3427Y-2.3693
X8.3437Y-2.3143
X8.3537Y-2.2403
X8.3537Y-2.7443
X8.376Y-3.225
X8.3767Y-3.6853
X8.3937Y-2.4643
X8.4187Y-3.7913
X8.4507Y-3.1553
X8.4607Y-2.7073
X8.4607Y-2.7433
X8.4607Y-2.7814
X8.4607Y-2.8174
X8.4887Y-3.9913
X8.5027Y-3.6723
X8.5377Y-3.3663
X8.5383Y-2.7403
X8.5647Y-3.7813
X8.5787Y-4.2013
X8.5887Y-3.9913
X8.5917Y-2.8163
X8.6267Y-2.8403
X8.7047Y-3.6853
X8.7397Y-3.7093
X8.7427Y-2.5343
X8.7527Y-2.3243
X8.7667Y-2.7443
X8.792Y-3.369
X8.7931Y-3.7853
X8.8287Y-2.8533
X8.8427Y-2.5343
X8.8707Y-3.7082
X8.8707Y-3.7442
X8.8707Y-3.7823
X8.8707Y-3.8183
X8.8857Y-3.1543
X8.9127Y-2.7343
X8.9377Y-4.0613
X8.9547Y-2.8403
X8.959Y-3.224
X8.9777Y-3.7813
X8.9777Y-4.2853
X8.9877Y-4.2113
X8.9887Y-4.1563
X9.0127Y-2.9743
X9.0263Y-3.2957
X9.0427Y-2.7443
X9.0547Y-4.0213
X9.0777Y-3.9113
X9.0927Y-2.6643
X9.1047Y-2.2373
X9.1052Y-2.4193
X9.1227Y-2.9953
X9.1297Y-2.3643
X9.1407Y-4.1613
X9.1477Y-3.5303
X9.1651Y-4.1063
X9.1657Y-4.2883
X9.1777Y-3.8613
X9.1927Y-2.6143
X9.2157Y-2.5043
X9.2277Y-3.7813
X9.2443Y-3.2937
X9.2577Y-3.5513
X9.2817Y-2.3693
X9.2827Y-2.3143
X9.2927Y-2.2403
X9.2927Y-2.7443
X9.311Y-3.226
X9.3157Y-3.6853
X9.3327Y-2.4643
X9.3577Y-3.7913
X9.3857Y-3.1563
X9.3997Y-2.7073
X9.3997Y-2.7433
X9.3997Y-2.7814
X9.3997Y-2.8174
X9.4277Y-3.9913
X9.4417Y-3.6723
X9.4767Y-3.3633
X9.4773Y-2.7403
X9.5037Y-3.7813
X9.5177Y-4.2013
X9.5277Y-3.9913
X9.5307Y-2.8163
X9.5657Y-2.8403
X9.582Y-2.02
X9.994Y-2.554
T2
X5.2515Y-5.5333
X5.306Y-5.6451
X5.3605Y-5.5333
X5.4151Y-5.6451
X5.4696Y-5.5333
X5.5241Y-5.6451
X5.5786Y-5.5333
X5.6332Y-5.6451
X5.6877Y-5.5333
X5.7422Y-5.6451
X5.7967Y-5.5333
X5.8513Y-5.6451
X5.9058Y-5.5333
X5.9603Y-5.6451
X6.0149Y-5.5333
X6.0694Y-5.6451
X6.1239Y-5.5333
X6.1784Y-5.6451
X6.233Y-5.5333
X6.2875Y-5.6451
X6.342Y-5.5333
X6.3966Y-5.6451
X6.4511Y-5.5333
X6.5056Y-5.6451
X6.5601Y-5.5333
T3
X2.1857Y-4.2543
X2.9386Y-2.2713
X3.1247Y-4.2543
X3.8776Y-2.2713
X4.0637Y-4.2543
X4.8166Y-2.2713
X5.0027Y-4.2543
X5.7556Y-2.2713
X5.9417Y-4.2543
X6.6947Y-2.2713
X6.8807Y-4.2543
X7.6337Y-2.2713
X7.8197Y-4.2543
X8.5727Y-2.2713
X8.7587Y-4.2543
X9.5117Y-2.2713
T4
X9.042Y-5.597
X9.042Y-5.76
X9.205Y-5.597
X9.205Y-5.76
X9.368Y-5.597
X9.368Y-5.76
X9.531Y-5.597
X9.531Y-5.76
X9.694Y-5.597
X9.694Y-5.76
X9.857Y-5.597
X9.857Y-5.76
T5
X4.9786Y-5.5451
X6.833Y-5.5451
T0
M30
