%TF.GenerationSoftware,KiCad,Pcbnew,(6.0.7)*%
%TF.CreationDate,2022-08-12T11:14:58-05:00*%
%TF.ProjectId,SAQ-Readout,5341512d-5265-4616-946f-75742e6b6963,rev?*%
%TF.SameCoordinates,Original*%
%TF.FileFunction,Paste,Bot*%
%TF.FilePolarity,Positive*%
%FSLAX46Y46*%
G04 Gerber Fmt 4.6, Leading zero omitted, Abs format (unit mm)*
G04 Created by KiCad (PCBNEW (6.0.7)) date 2022-08-12 11:14:58*
%MOMM*%
%LPD*%
G01*
G04 APERTURE LIST*
G04 Aperture macros list*
%AMRoundRect*
0 Rectangle with rounded corners*
0 $1 Rounding radius*
0 $2 $3 $4 $5 $6 $7 $8 $9 X,Y pos of 4 corners*
0 Add a 4 corners polygon primitive as box body*
4,1,4,$2,$3,$4,$5,$6,$7,$8,$9,$2,$3,0*
0 Add four circle primitives for the rounded corners*
1,1,$1+$1,$2,$3*
1,1,$1+$1,$4,$5*
1,1,$1+$1,$6,$7*
1,1,$1+$1,$8,$9*
0 Add four rect primitives between the rounded corners*
20,1,$1+$1,$2,$3,$4,$5,0*
20,1,$1+$1,$4,$5,$6,$7,0*
20,1,$1+$1,$6,$7,$8,$9,0*
20,1,$1+$1,$8,$9,$2,$3,0*%
G04 Aperture macros list end*
%ADD10RoundRect,0.250000X0.412500X0.650000X-0.412500X0.650000X-0.412500X-0.650000X0.412500X-0.650000X0*%
%ADD11RoundRect,0.250000X0.650000X-0.412500X0.650000X0.412500X-0.650000X0.412500X-0.650000X-0.412500X0*%
%ADD12RoundRect,0.250000X-0.412500X-0.650000X0.412500X-0.650000X0.412500X0.650000X-0.412500X0.650000X0*%
%ADD13RoundRect,0.250000X-0.350000X-0.450000X0.350000X-0.450000X0.350000X0.450000X-0.350000X0.450000X0*%
%ADD14RoundRect,0.250000X0.350000X0.450000X-0.350000X0.450000X-0.350000X-0.450000X0.350000X-0.450000X0*%
%ADD15RoundRect,0.250000X-0.650000X0.412500X-0.650000X-0.412500X0.650000X-0.412500X0.650000X0.412500X0*%
G04 APERTURE END LIST*
D10*
%TO.C,C3*%
X108297229Y-72093667D03*
X105172229Y-72093667D03*
%TD*%
%TO.C,C3*%
X227551109Y-72093667D03*
X224426109Y-72093667D03*
%TD*%
D11*
%TO.C,C5*%
X92700653Y-60117967D03*
X92700653Y-56992967D03*
%TD*%
D10*
%TO.C,C2*%
X130700205Y-69426667D03*
X127575205Y-69426667D03*
%TD*%
D12*
%TO.C,C4*%
X107522209Y-102726067D03*
X110647209Y-102726067D03*
%TD*%
D10*
%TO.C,C2*%
X202252533Y-69426667D03*
X199127533Y-69426667D03*
%TD*%
D12*
%TO.C,C3*%
X69561157Y-93658267D03*
X72686157Y-93658267D03*
%TD*%
%TO.C,C2*%
X166412061Y-96325267D03*
X169537061Y-96325267D03*
%TD*%
%TO.C,C3*%
X188815037Y-93658267D03*
X191940037Y-93658267D03*
%TD*%
D10*
%TO.C,C2*%
X59147877Y-69426667D03*
X56022877Y-69426667D03*
%TD*%
D12*
%TO.C,C2*%
X237964389Y-96325267D03*
X241089389Y-96325267D03*
%TD*%
D13*
%TO.C,R6*%
X149791861Y-96147467D03*
X151791861Y-96147467D03*
%TD*%
D11*
%TO.C,C5*%
X188103757Y-60117967D03*
X188103757Y-56992967D03*
%TD*%
D12*
%TO.C,C3*%
X212665813Y-93658267D03*
X215790813Y-93658267D03*
%TD*%
D10*
%TO.C,C4*%
X141888505Y-63025867D03*
X138763505Y-63025867D03*
%TD*%
D14*
%TO.C,R6*%
X99618853Y-69604467D03*
X97618853Y-69604467D03*
%TD*%
D10*
%TO.C,C3*%
X179849557Y-72093667D03*
X176724557Y-72093667D03*
%TD*%
D14*
%TO.C,R6*%
X123469629Y-69604467D03*
X121469629Y-69604467D03*
%TD*%
%TO.C,R6*%
X147320405Y-69604467D03*
X145320405Y-69604467D03*
%TD*%
D12*
%TO.C,C2*%
X71008957Y-96325267D03*
X74133957Y-96325267D03*
%TD*%
%TO.C,C3*%
X141113485Y-93658267D03*
X144238485Y-93658267D03*
%TD*%
%TO.C,C2*%
X214113613Y-96325267D03*
X217238613Y-96325267D03*
%TD*%
D10*
%TO.C,C4*%
X70336177Y-63025867D03*
X67211177Y-63025867D03*
%TD*%
D13*
%TO.C,R6*%
X54388757Y-96147467D03*
X56388757Y-96147467D03*
%TD*%
D10*
%TO.C,C3*%
X60595677Y-72093667D03*
X57470677Y-72093667D03*
%TD*%
D12*
%TO.C,C4*%
X59820657Y-102726067D03*
X62945657Y-102726067D03*
%TD*%
D10*
%TO.C,C2*%
X178401757Y-69426667D03*
X175276757Y-69426667D03*
%TD*%
%TO.C,C4*%
X189590057Y-63025867D03*
X186465057Y-63025867D03*
%TD*%
D15*
%TO.C,C5*%
X228262389Y-105633967D03*
X228262389Y-108758967D03*
%TD*%
D14*
%TO.C,R6*%
X195021957Y-69604467D03*
X193021957Y-69604467D03*
%TD*%
D11*
%TO.C,C5*%
X140402205Y-60117967D03*
X140402205Y-56992967D03*
%TD*%
D12*
%TO.C,C2*%
X142561285Y-96325267D03*
X145686285Y-96325267D03*
%TD*%
D10*
%TO.C,C4*%
X165739281Y-63025867D03*
X162614281Y-63025867D03*
%TD*%
D12*
%TO.C,C3*%
X236516589Y-93658267D03*
X239641589Y-93658267D03*
%TD*%
D13*
%TO.C,R6*%
X197493413Y-96147467D03*
X199493413Y-96147467D03*
%TD*%
D12*
%TO.C,C2*%
X118710509Y-96325267D03*
X121835509Y-96325267D03*
%TD*%
D10*
%TO.C,C3*%
X132148005Y-72093667D03*
X129023005Y-72093667D03*
%TD*%
D11*
%TO.C,C5*%
X68849877Y-60117967D03*
X68849877Y-56992967D03*
%TD*%
D10*
%TO.C,C4*%
X118037729Y-63025867D03*
X114912729Y-63025867D03*
%TD*%
D15*
%TO.C,C5*%
X156710061Y-105633967D03*
X156710061Y-108758967D03*
%TD*%
D12*
%TO.C,C4*%
X155223761Y-102726067D03*
X158348761Y-102726067D03*
%TD*%
D13*
%TO.C,R6*%
X173642637Y-96147467D03*
X175642637Y-96147467D03*
%TD*%
D12*
%TO.C,C4*%
X131372985Y-102726067D03*
X134497985Y-102726067D03*
%TD*%
%TO.C,C2*%
X94859733Y-96325267D03*
X97984733Y-96325267D03*
%TD*%
D10*
%TO.C,C3*%
X84446453Y-72093667D03*
X81321453Y-72093667D03*
%TD*%
%TO.C,C2*%
X154550981Y-69426667D03*
X151425981Y-69426667D03*
%TD*%
D11*
%TO.C,C5*%
X211954533Y-60117967D03*
X211954533Y-56992967D03*
%TD*%
D10*
%TO.C,C2*%
X226103309Y-69426667D03*
X222978309Y-69426667D03*
%TD*%
D13*
%TO.C,R6*%
X221344189Y-96147467D03*
X223344189Y-96147467D03*
%TD*%
D15*
%TO.C,C5*%
X61306957Y-105633967D03*
X61306957Y-108758967D03*
%TD*%
D14*
%TO.C,R6*%
X75768077Y-69604467D03*
X73768077Y-69604467D03*
%TD*%
D12*
%TO.C,C2*%
X190262837Y-96325267D03*
X193387837Y-96325267D03*
%TD*%
D14*
%TO.C,R6*%
X171171181Y-69604467D03*
X169171181Y-69604467D03*
%TD*%
D13*
%TO.C,R6*%
X125941085Y-96147467D03*
X127941085Y-96147467D03*
%TD*%
D15*
%TO.C,C5*%
X204411613Y-105633967D03*
X204411613Y-108758967D03*
%TD*%
D12*
%TO.C,C3*%
X164964261Y-93658267D03*
X168089261Y-93658267D03*
%TD*%
D13*
%TO.C,R6*%
X78239533Y-96147467D03*
X80239533Y-96147467D03*
%TD*%
D11*
%TO.C,C5*%
X116551429Y-60117967D03*
X116551429Y-56992967D03*
%TD*%
D15*
%TO.C,C5*%
X85157733Y-105633967D03*
X85157733Y-108758967D03*
%TD*%
D10*
%TO.C,C4*%
X213440833Y-63025867D03*
X210315833Y-63025867D03*
%TD*%
%TO.C,C4*%
X94186953Y-63025867D03*
X91061953Y-63025867D03*
%TD*%
%TO.C,C2*%
X106849429Y-69426667D03*
X103724429Y-69426667D03*
%TD*%
D13*
%TO.C,R6*%
X102090309Y-96147467D03*
X104090309Y-96147467D03*
%TD*%
D12*
%TO.C,C4*%
X226776089Y-102726067D03*
X229901089Y-102726067D03*
%TD*%
D15*
%TO.C,C5*%
X109008509Y-105633967D03*
X109008509Y-108758967D03*
%TD*%
D11*
%TO.C,C5*%
X235805309Y-60117967D03*
X235805309Y-56992967D03*
%TD*%
D12*
%TO.C,C4*%
X202925313Y-102726067D03*
X206050313Y-102726067D03*
%TD*%
%TO.C,C3*%
X117262709Y-93658267D03*
X120387709Y-93658267D03*
%TD*%
D15*
%TO.C,C5*%
X132859285Y-105633967D03*
X132859285Y-108758967D03*
%TD*%
D12*
%TO.C,C4*%
X179074537Y-102726067D03*
X182199537Y-102726067D03*
%TD*%
D10*
%TO.C,C4*%
X237291609Y-63025867D03*
X234166609Y-63025867D03*
%TD*%
%TO.C,C3*%
X155998781Y-72093667D03*
X152873781Y-72093667D03*
%TD*%
%TO.C,C2*%
X82998653Y-69426667D03*
X79873653Y-69426667D03*
%TD*%
D12*
%TO.C,C4*%
X83671433Y-102726067D03*
X86796433Y-102726067D03*
%TD*%
D14*
%TO.C,R6*%
X242723509Y-69604467D03*
X240723509Y-69604467D03*
%TD*%
D12*
%TO.C,C3*%
X93411933Y-93658267D03*
X96536933Y-93658267D03*
%TD*%
D14*
%TO.C,R6*%
X218872733Y-69604467D03*
X216872733Y-69604467D03*
%TD*%
D10*
%TO.C,C3*%
X203700333Y-72093667D03*
X200575333Y-72093667D03*
%TD*%
D15*
%TO.C,C5*%
X180560837Y-105633967D03*
X180560837Y-108758967D03*
%TD*%
D11*
%TO.C,C5*%
X164252981Y-60117967D03*
X164252981Y-56992967D03*
%TD*%
M02*
