%TF.GenerationSoftware,KiCad,Pcbnew,(6.0.7)*%
%TF.CreationDate,2022-08-12T11:14:58-05:00*%
%TF.ProjectId,SAQ-Readout,5341512d-5265-4616-946f-75742e6b6963,rev?*%
%TF.SameCoordinates,Original*%
%TF.FileFunction,Soldermask,Bot*%
%TF.FilePolarity,Negative*%
%FSLAX46Y46*%
G04 Gerber Fmt 4.6, Leading zero omitted, Abs format (unit mm)*
G04 Created by KiCad (PCBNEW (6.0.7)) date 2022-08-12 11:14:58*
%MOMM*%
%LPD*%
G01*
G04 APERTURE LIST*
G04 Aperture macros list*
%AMRoundRect*
0 Rectangle with rounded corners*
0 $1 Rounding radius*
0 $2 $3 $4 $5 $6 $7 $8 $9 X,Y pos of 4 corners*
0 Add a 4 corners polygon primitive as box body*
4,1,4,$2,$3,$4,$5,$6,$7,$8,$9,$2,$3,0*
0 Add four circle primitives for the rounded corners*
1,1,$1+$1,$2,$3*
1,1,$1+$1,$4,$5*
1,1,$1+$1,$6,$7*
1,1,$1+$1,$8,$9*
0 Add four rect primitives between the rounded corners*
20,1,$1+$1,$2,$3,$4,$5,0*
20,1,$1+$1,$4,$5,$6,$7,0*
20,1,$1+$1,$6,$7,$8,$9,0*
20,1,$1+$1,$8,$9,$2,$3,0*%
G04 Aperture macros list end*
%ADD10C,0.150000*%
%ADD11R,2.500000X2.500000*%
%ADD12C,3.180000*%
%ADD13RoundRect,0.250000X1.070000X-1.070000X1.070000X1.070000X-1.070000X1.070000X-1.070000X-1.070000X0*%
%ADD14C,2.640000*%
%ADD15C,3.200000*%
%ADD16C,4.000000*%
%ADD17R,1.600000X1.600000*%
%ADD18C,1.600000*%
%ADD19RoundRect,0.250000X0.412500X0.650000X-0.412500X0.650000X-0.412500X-0.650000X0.412500X-0.650000X0*%
%ADD20C,2.000000*%
%ADD21RoundRect,0.250000X0.650000X-0.412500X0.650000X0.412500X-0.650000X0.412500X-0.650000X-0.412500X0*%
%ADD22RoundRect,0.250000X-0.412500X-0.650000X0.412500X-0.650000X0.412500X0.650000X-0.412500X0.650000X0*%
%ADD23RoundRect,0.250000X-0.350000X-0.450000X0.350000X-0.450000X0.350000X0.450000X-0.350000X0.450000X0*%
%ADD24RoundRect,0.250000X0.350000X0.450000X-0.350000X0.450000X-0.350000X-0.450000X0.350000X-0.450000X0*%
%ADD25RoundRect,0.250000X-0.650000X0.412500X-0.650000X-0.412500X0.650000X-0.412500X0.650000X0.412500X0*%
G04 APERTURE END LIST*
D10*
G36*
X234394280Y-76408600D02*
G01*
X234340400Y-75742800D01*
X234340400Y-76504800D01*
X232562400Y-78282800D01*
X231038400Y-78282800D01*
X229260400Y-76504800D01*
X229260400Y-71836600D01*
X234394280Y-71836600D01*
X234394280Y-76408600D01*
G37*
X234394280Y-76408600D02*
X234340400Y-75742800D01*
X234340400Y-76504800D01*
X232562400Y-78282800D01*
X231038400Y-78282800D01*
X229260400Y-76504800D01*
X229260400Y-71836600D01*
X234394280Y-71836600D01*
X234394280Y-76408600D01*
G36*
X139598400Y-89204800D02*
G01*
X139598400Y-93873000D01*
X134464520Y-93873000D01*
X134464520Y-89301000D01*
X134518400Y-89966800D01*
X134518400Y-89204800D01*
X136296400Y-87426800D01*
X137820400Y-87426800D01*
X139598400Y-89204800D01*
G37*
X139598400Y-89204800D02*
X139598400Y-93873000D01*
X134464520Y-93873000D01*
X134464520Y-89301000D01*
X134518400Y-89966800D01*
X134518400Y-89204800D01*
X136296400Y-87426800D01*
X137820400Y-87426800D01*
X139598400Y-89204800D01*
G36*
X67262280Y-76408600D02*
G01*
X67208400Y-75742800D01*
X67208400Y-76504800D01*
X65430400Y-78282800D01*
X63906400Y-78282800D01*
X62128400Y-76504800D01*
X62128400Y-71836600D01*
X67262280Y-71836600D01*
X67262280Y-76408600D01*
G37*
X67262280Y-76408600D02*
X67208400Y-75742800D01*
X67208400Y-76504800D01*
X65430400Y-78282800D01*
X63906400Y-78282800D01*
X62128400Y-76504800D01*
X62128400Y-71836600D01*
X67262280Y-71836600D01*
X67262280Y-76408600D01*
G36*
X187096400Y-89204800D02*
G01*
X187096400Y-93873000D01*
X181962520Y-93873000D01*
X181962520Y-89301000D01*
X182016400Y-89966800D01*
X182016400Y-89204800D01*
X183794400Y-87426800D01*
X185318400Y-87426800D01*
X187096400Y-89204800D01*
G37*
X187096400Y-89204800D02*
X187096400Y-93873000D01*
X181962520Y-93873000D01*
X181962520Y-89301000D01*
X182016400Y-89966800D01*
X182016400Y-89204800D01*
X183794400Y-87426800D01*
X185318400Y-87426800D01*
X187096400Y-89204800D01*
G36*
X163220400Y-89204800D02*
G01*
X163220400Y-93873000D01*
X158086520Y-93873000D01*
X158086520Y-89301000D01*
X158140400Y-89966800D01*
X158140400Y-89204800D01*
X159918400Y-87426800D01*
X161442400Y-87426800D01*
X163220400Y-89204800D01*
G37*
X163220400Y-89204800D02*
X163220400Y-93873000D01*
X158086520Y-93873000D01*
X158086520Y-89301000D01*
X158140400Y-89966800D01*
X158140400Y-89204800D01*
X159918400Y-87426800D01*
X161442400Y-87426800D01*
X163220400Y-89204800D01*
G36*
X138890280Y-76408600D02*
G01*
X138836400Y-75742800D01*
X138836400Y-76504800D01*
X137058400Y-78282800D01*
X135534400Y-78282800D01*
X133756400Y-76504800D01*
X133756400Y-71836600D01*
X138890280Y-71836600D01*
X138890280Y-76408600D01*
G37*
X138890280Y-76408600D02*
X138836400Y-75742800D01*
X138836400Y-76504800D01*
X137058400Y-78282800D01*
X135534400Y-78282800D01*
X133756400Y-76504800D01*
X133756400Y-71836600D01*
X138890280Y-71836600D01*
X138890280Y-76408600D01*
G36*
X234848400Y-89204800D02*
G01*
X234848400Y-93873000D01*
X229714520Y-93873000D01*
X229714520Y-89301000D01*
X229768400Y-89966800D01*
X229768400Y-89204800D01*
X231546400Y-87426800D01*
X233070400Y-87426800D01*
X234848400Y-89204800D01*
G37*
X234848400Y-89204800D02*
X234848400Y-93873000D01*
X229714520Y-93873000D01*
X229714520Y-89301000D01*
X229768400Y-89966800D01*
X229768400Y-89204800D01*
X231546400Y-87426800D01*
X233070400Y-87426800D01*
X234848400Y-89204800D01*
G36*
X210972400Y-89204800D02*
G01*
X210972400Y-93873000D01*
X205838520Y-93873000D01*
X205838520Y-89301000D01*
X205892400Y-89966800D01*
X205892400Y-89204800D01*
X207670400Y-87426800D01*
X209194400Y-87426800D01*
X210972400Y-89204800D01*
G37*
X210972400Y-89204800D02*
X210972400Y-93873000D01*
X205838520Y-93873000D01*
X205838520Y-89301000D01*
X205892400Y-89966800D01*
X205892400Y-89204800D01*
X207670400Y-87426800D01*
X209194400Y-87426800D01*
X210972400Y-89204800D01*
G36*
X115014280Y-76408600D02*
G01*
X114960400Y-75742800D01*
X114960400Y-76504800D01*
X113182400Y-78282800D01*
X111658400Y-78282800D01*
X109880400Y-76504800D01*
X109880400Y-71836600D01*
X115014280Y-71836600D01*
X115014280Y-76408600D01*
G37*
X115014280Y-76408600D02*
X114960400Y-75742800D01*
X114960400Y-76504800D01*
X113182400Y-78282800D01*
X111658400Y-78282800D01*
X109880400Y-76504800D01*
X109880400Y-71836600D01*
X115014280Y-71836600D01*
X115014280Y-76408600D01*
G36*
X210518280Y-76408600D02*
G01*
X210464400Y-75742800D01*
X210464400Y-76504800D01*
X208686400Y-78282800D01*
X207162400Y-78282800D01*
X205384400Y-76504800D01*
X205384400Y-71836600D01*
X210518280Y-71836600D01*
X210518280Y-76408600D01*
G37*
X210518280Y-76408600D02*
X210464400Y-75742800D01*
X210464400Y-76504800D01*
X208686400Y-78282800D01*
X207162400Y-78282800D01*
X205384400Y-76504800D01*
X205384400Y-71836600D01*
X210518280Y-71836600D01*
X210518280Y-76408600D01*
G36*
X162766280Y-76408600D02*
G01*
X162712400Y-75742800D01*
X162712400Y-76504800D01*
X160934400Y-78282800D01*
X159410400Y-78282800D01*
X157632400Y-76504800D01*
X157632400Y-71836600D01*
X162766280Y-71836600D01*
X162766280Y-76408600D01*
G37*
X162766280Y-76408600D02*
X162712400Y-75742800D01*
X162712400Y-76504800D01*
X160934400Y-78282800D01*
X159410400Y-78282800D01*
X157632400Y-76504800D01*
X157632400Y-71836600D01*
X162766280Y-71836600D01*
X162766280Y-76408600D01*
G36*
X67970400Y-89204800D02*
G01*
X67970400Y-93873000D01*
X62836520Y-93873000D01*
X62836520Y-89301000D01*
X62890400Y-89966800D01*
X62890400Y-89204800D01*
X64668400Y-87426800D01*
X66192400Y-87426800D01*
X67970400Y-89204800D01*
G37*
X67970400Y-89204800D02*
X67970400Y-93873000D01*
X62836520Y-93873000D01*
X62836520Y-89301000D01*
X62890400Y-89966800D01*
X62890400Y-89204800D01*
X64668400Y-87426800D01*
X66192400Y-87426800D01*
X67970400Y-89204800D01*
G36*
X91846400Y-89204800D02*
G01*
X91846400Y-93873000D01*
X86712520Y-93873000D01*
X86712520Y-89301000D01*
X86766400Y-89966800D01*
X86766400Y-89204800D01*
X88544400Y-87426800D01*
X90068400Y-87426800D01*
X91846400Y-89204800D01*
G37*
X91846400Y-89204800D02*
X91846400Y-93873000D01*
X86712520Y-93873000D01*
X86712520Y-89301000D01*
X86766400Y-89966800D01*
X86766400Y-89204800D01*
X88544400Y-87426800D01*
X90068400Y-87426800D01*
X91846400Y-89204800D01*
G36*
X186642280Y-76408600D02*
G01*
X186588400Y-75742800D01*
X186588400Y-76504800D01*
X184810400Y-78282800D01*
X183286400Y-78282800D01*
X181508400Y-76504800D01*
X181508400Y-71836600D01*
X186642280Y-71836600D01*
X186642280Y-76408600D01*
G37*
X186642280Y-76408600D02*
X186588400Y-75742800D01*
X186588400Y-76504800D01*
X184810400Y-78282800D01*
X183286400Y-78282800D01*
X181508400Y-76504800D01*
X181508400Y-71836600D01*
X186642280Y-71836600D01*
X186642280Y-76408600D01*
G36*
X115722400Y-89204800D02*
G01*
X115722400Y-93873000D01*
X110588520Y-93873000D01*
X110588520Y-89301000D01*
X110642400Y-89966800D01*
X110642400Y-89204800D01*
X112420400Y-87426800D01*
X113944400Y-87426800D01*
X115722400Y-89204800D01*
G37*
X115722400Y-89204800D02*
X115722400Y-93873000D01*
X110588520Y-93873000D01*
X110588520Y-89301000D01*
X110642400Y-89966800D01*
X110642400Y-89204800D01*
X112420400Y-87426800D01*
X113944400Y-87426800D01*
X115722400Y-89204800D01*
G36*
X91138280Y-76408600D02*
G01*
X91084400Y-75742800D01*
X91084400Y-76504800D01*
X89306400Y-78282800D01*
X87782400Y-78282800D01*
X86004400Y-76504800D01*
X86004400Y-71836600D01*
X91138280Y-71836600D01*
X91138280Y-76408600D01*
G37*
X91138280Y-76408600D02*
X91084400Y-75742800D01*
X91084400Y-76504800D01*
X89306400Y-78282800D01*
X87782400Y-78282800D01*
X86004400Y-76504800D01*
X86004400Y-71836600D01*
X91138280Y-71836600D01*
X91138280Y-76408600D01*
D11*
%TO.C,TP2*%
X150918861Y-108060067D03*
%TD*%
%TO.C,TP2*%
X74641077Y-57691867D03*
%TD*%
D12*
%TO.C,J2*%
X225226800Y-146304000D03*
D13*
X229666800Y-146304000D03*
D14*
X233806800Y-146304000D03*
X237946800Y-146304000D03*
X242086800Y-146304000D03*
X246226800Y-146304000D03*
X250366800Y-146304000D03*
X229666800Y-142164000D03*
X233806800Y-142164000D03*
X237946800Y-142164000D03*
X242086800Y-142164000D03*
X246226800Y-142164000D03*
X250366800Y-142164000D03*
%TD*%
D11*
%TO.C,TP2*%
X217745733Y-57691867D03*
%TD*%
%TO.C,TP2*%
X79366533Y-108060067D03*
%TD*%
%TO.C,TP2*%
X55515757Y-108060067D03*
%TD*%
%TO.C,TP2*%
X170044181Y-57691867D03*
%TD*%
%TO.C,TP2*%
X198620413Y-108060067D03*
%TD*%
%TO.C,TP2*%
X122342629Y-57691867D03*
%TD*%
%TO.C,TP2*%
X241596509Y-57691867D03*
%TD*%
D15*
%TO.C,REF\u002A\u002A*%
X166344600Y-117449600D03*
%TD*%
%TO.C,REF\u002A\u002A*%
X218084400Y-146786600D03*
%TD*%
%TO.C,REF\u002A\u002A*%
X243103400Y-30454600D03*
%TD*%
D11*
%TO.C,TP2*%
X127068085Y-108060067D03*
%TD*%
%TO.C,TP2*%
X222471189Y-108060067D03*
%TD*%
D15*
%TO.C,REF\u002A\u002A*%
X50063400Y-30454600D03*
%TD*%
D11*
%TO.C,TP2*%
X174769637Y-108060067D03*
%TD*%
%TO.C,TP2*%
X103217309Y-108060067D03*
%TD*%
%TO.C,TP2*%
X98491853Y-57691867D03*
%TD*%
D15*
%TO.C,REF\u002A\u002A*%
X50063400Y-147294600D03*
%TD*%
D11*
%TO.C,TP2*%
X193894957Y-57691867D03*
%TD*%
%TO.C,TP2*%
X146193405Y-57691867D03*
%TD*%
D16*
%TO.C,J1*%
X126457400Y-140844669D03*
X173557400Y-140844669D03*
D17*
X133387400Y-140544669D03*
D18*
X136157400Y-140544669D03*
X138927400Y-140544669D03*
X141697400Y-140544669D03*
X144467400Y-140544669D03*
X147237400Y-140544669D03*
X150007400Y-140544669D03*
X152777400Y-140544669D03*
X155547400Y-140544669D03*
X158317400Y-140544669D03*
X161087400Y-140544669D03*
X163857400Y-140544669D03*
X166627400Y-140544669D03*
X134772400Y-143384669D03*
X137542400Y-143384669D03*
X140312400Y-143384669D03*
X143082400Y-143384669D03*
X145852400Y-143384669D03*
X148622400Y-143384669D03*
X151392400Y-143384669D03*
X154162400Y-143384669D03*
X156932400Y-143384669D03*
X159702400Y-143384669D03*
X162472400Y-143384669D03*
X165242400Y-143384669D03*
%TD*%
D19*
%TO.C,C3*%
X108297229Y-72093667D03*
X105172229Y-72093667D03*
%TD*%
%TO.C,C3*%
X227551109Y-72093667D03*
X224426109Y-72093667D03*
%TD*%
D20*
%TO.C,REF\u002A\u002A*%
X232359200Y-89738200D03*
%TD*%
D21*
%TO.C,C5*%
X92700653Y-60117967D03*
X92700653Y-56992967D03*
%TD*%
D19*
%TO.C,C2*%
X130700205Y-69426667D03*
X127575205Y-69426667D03*
%TD*%
D22*
%TO.C,C4*%
X107522209Y-102726067D03*
X110647209Y-102726067D03*
%TD*%
D19*
%TO.C,C2*%
X202252533Y-69426667D03*
X199127533Y-69426667D03*
%TD*%
D22*
%TO.C,C3*%
X69561157Y-93658267D03*
X72686157Y-93658267D03*
%TD*%
%TO.C,C2*%
X166412061Y-96325267D03*
X169537061Y-96325267D03*
%TD*%
%TO.C,C3*%
X188815037Y-93658267D03*
X191940037Y-93658267D03*
%TD*%
D19*
%TO.C,C2*%
X59147877Y-69426667D03*
X56022877Y-69426667D03*
%TD*%
D22*
%TO.C,C2*%
X237964389Y-96325267D03*
X241089389Y-96325267D03*
%TD*%
D23*
%TO.C,R6*%
X149791861Y-96147467D03*
X151791861Y-96147467D03*
%TD*%
D21*
%TO.C,C5*%
X188103757Y-60117967D03*
X188103757Y-56992967D03*
%TD*%
D22*
%TO.C,C3*%
X212665813Y-93658267D03*
X215790813Y-93658267D03*
%TD*%
D19*
%TO.C,C4*%
X141888505Y-63025867D03*
X138763505Y-63025867D03*
%TD*%
D24*
%TO.C,R6*%
X99618853Y-69604467D03*
X97618853Y-69604467D03*
%TD*%
D19*
%TO.C,C3*%
X179849557Y-72093667D03*
X176724557Y-72093667D03*
%TD*%
D24*
%TO.C,R6*%
X123469629Y-69604467D03*
X121469629Y-69604467D03*
%TD*%
%TO.C,R6*%
X147320405Y-69604467D03*
X145320405Y-69604467D03*
%TD*%
D20*
%TO.C,REF\u002A\u002A*%
X231724200Y-76047600D03*
%TD*%
D22*
%TO.C,C2*%
X71008957Y-96325267D03*
X74133957Y-96325267D03*
%TD*%
%TO.C,C3*%
X141113485Y-93658267D03*
X144238485Y-93658267D03*
%TD*%
%TO.C,C2*%
X214113613Y-96325267D03*
X217238613Y-96325267D03*
%TD*%
D20*
%TO.C,REF\u002A\u002A*%
X112471200Y-76022200D03*
%TD*%
%TO.C,REF\u002A\u002A*%
X64770000Y-75996800D03*
%TD*%
D19*
%TO.C,C4*%
X70336177Y-63025867D03*
X67211177Y-63025867D03*
%TD*%
D20*
%TO.C,REF\u002A\u002A*%
X136931400Y-89763600D03*
%TD*%
D23*
%TO.C,R6*%
X54388757Y-96147467D03*
X56388757Y-96147467D03*
%TD*%
D19*
%TO.C,C3*%
X60595677Y-72093667D03*
X57470677Y-72093667D03*
%TD*%
D20*
%TO.C,REF\u002A\u002A*%
X89255600Y-89763600D03*
%TD*%
%TO.C,REF\u002A\u002A*%
X113080800Y-89789000D03*
%TD*%
D22*
%TO.C,C4*%
X59820657Y-102726067D03*
X62945657Y-102726067D03*
%TD*%
D19*
%TO.C,C2*%
X178401757Y-69426667D03*
X175276757Y-69426667D03*
%TD*%
%TO.C,C4*%
X189590057Y-63025867D03*
X186465057Y-63025867D03*
%TD*%
D25*
%TO.C,C5*%
X228262389Y-105633967D03*
X228262389Y-108758967D03*
%TD*%
D24*
%TO.C,R6*%
X195021957Y-69604467D03*
X193021957Y-69604467D03*
%TD*%
D20*
%TO.C,REF\u002A\u002A*%
X160172400Y-76047600D03*
%TD*%
D21*
%TO.C,C5*%
X140402205Y-60117967D03*
X140402205Y-56992967D03*
%TD*%
D20*
%TO.C,REF\u002A\u002A*%
X65405000Y-89789000D03*
%TD*%
D22*
%TO.C,C2*%
X142561285Y-96325267D03*
X145686285Y-96325267D03*
%TD*%
D19*
%TO.C,C4*%
X165739281Y-63025867D03*
X162614281Y-63025867D03*
%TD*%
D22*
%TO.C,C3*%
X236516589Y-93658267D03*
X239641589Y-93658267D03*
%TD*%
D23*
%TO.C,R6*%
X197493413Y-96147467D03*
X199493413Y-96147467D03*
%TD*%
D22*
%TO.C,C2*%
X118710509Y-96325267D03*
X121835509Y-96325267D03*
%TD*%
D19*
%TO.C,C3*%
X132148005Y-72093667D03*
X129023005Y-72093667D03*
%TD*%
D20*
%TO.C,REF\u002A\u002A*%
X88595200Y-75971400D03*
%TD*%
D21*
%TO.C,C5*%
X68849877Y-60117967D03*
X68849877Y-56992967D03*
%TD*%
D19*
%TO.C,C4*%
X118037729Y-63025867D03*
X114912729Y-63025867D03*
%TD*%
D25*
%TO.C,C5*%
X156710061Y-105633967D03*
X156710061Y-108758967D03*
%TD*%
D22*
%TO.C,C4*%
X155223761Y-102726067D03*
X158348761Y-102726067D03*
%TD*%
D23*
%TO.C,R6*%
X173642637Y-96147467D03*
X175642637Y-96147467D03*
%TD*%
D22*
%TO.C,C4*%
X131372985Y-102726067D03*
X134497985Y-102726067D03*
%TD*%
D20*
%TO.C,REF\u002A\u002A*%
X208483200Y-89763600D03*
%TD*%
D22*
%TO.C,C2*%
X94859733Y-96325267D03*
X97984733Y-96325267D03*
%TD*%
D19*
%TO.C,C3*%
X84446453Y-72093667D03*
X81321453Y-72093667D03*
%TD*%
D20*
%TO.C,REF\u002A\u002A*%
X207848200Y-75946000D03*
%TD*%
D19*
%TO.C,C2*%
X154550981Y-69426667D03*
X151425981Y-69426667D03*
%TD*%
D21*
%TO.C,C5*%
X211954533Y-60117967D03*
X211954533Y-56992967D03*
%TD*%
D19*
%TO.C,C2*%
X226103309Y-69426667D03*
X222978309Y-69426667D03*
%TD*%
D23*
%TO.C,R6*%
X221344189Y-96147467D03*
X223344189Y-96147467D03*
%TD*%
D25*
%TO.C,C5*%
X61306957Y-105633967D03*
X61306957Y-108758967D03*
%TD*%
D24*
%TO.C,R6*%
X75768077Y-69604467D03*
X73768077Y-69604467D03*
%TD*%
D20*
%TO.C,REF\u002A\u002A*%
X136296400Y-75971400D03*
%TD*%
D22*
%TO.C,C2*%
X190262837Y-96325267D03*
X193387837Y-96325267D03*
%TD*%
D24*
%TO.C,R6*%
X171171181Y-69604467D03*
X169171181Y-69604467D03*
%TD*%
D23*
%TO.C,R6*%
X125941085Y-96147467D03*
X127941085Y-96147467D03*
%TD*%
D20*
%TO.C,REF\u002A\u002A*%
X160807400Y-89789000D03*
%TD*%
D25*
%TO.C,C5*%
X204411613Y-105633967D03*
X204411613Y-108758967D03*
%TD*%
D22*
%TO.C,C3*%
X164964261Y-93658267D03*
X168089261Y-93658267D03*
%TD*%
D23*
%TO.C,R6*%
X78239533Y-96147467D03*
X80239533Y-96147467D03*
%TD*%
D21*
%TO.C,C5*%
X116551429Y-60117967D03*
X116551429Y-56992967D03*
%TD*%
D25*
%TO.C,C5*%
X85157733Y-105633967D03*
X85157733Y-108758967D03*
%TD*%
D19*
%TO.C,C4*%
X213440833Y-63025867D03*
X210315833Y-63025867D03*
%TD*%
%TO.C,C4*%
X94186953Y-63025867D03*
X91061953Y-63025867D03*
%TD*%
%TO.C,C2*%
X106849429Y-69426667D03*
X103724429Y-69426667D03*
%TD*%
D23*
%TO.C,R6*%
X102090309Y-96147467D03*
X104090309Y-96147467D03*
%TD*%
D22*
%TO.C,C4*%
X226776089Y-102726067D03*
X229901089Y-102726067D03*
%TD*%
D25*
%TO.C,C5*%
X109008509Y-105633967D03*
X109008509Y-108758967D03*
%TD*%
D21*
%TO.C,C5*%
X235805309Y-60117967D03*
X235805309Y-56992967D03*
%TD*%
D22*
%TO.C,C4*%
X202925313Y-102726067D03*
X206050313Y-102726067D03*
%TD*%
%TO.C,C3*%
X117262709Y-93658267D03*
X120387709Y-93658267D03*
%TD*%
D25*
%TO.C,C5*%
X132859285Y-105633967D03*
X132859285Y-108758967D03*
%TD*%
D22*
%TO.C,C4*%
X179074537Y-102726067D03*
X182199537Y-102726067D03*
%TD*%
D20*
%TO.C,REF\u002A\u002A*%
X184023000Y-76022200D03*
%TD*%
D19*
%TO.C,C4*%
X237291609Y-63025867D03*
X234166609Y-63025867D03*
%TD*%
D20*
%TO.C,REF\u002A\u002A*%
X298704000Y-64185800D03*
%TD*%
D19*
%TO.C,C3*%
X155998781Y-72093667D03*
X152873781Y-72093667D03*
%TD*%
%TO.C,C2*%
X82998653Y-69426667D03*
X79873653Y-69426667D03*
%TD*%
D22*
%TO.C,C4*%
X83671433Y-102726067D03*
X86796433Y-102726067D03*
%TD*%
D24*
%TO.C,R6*%
X242723509Y-69604467D03*
X240723509Y-69604467D03*
%TD*%
D22*
%TO.C,C3*%
X93411933Y-93658267D03*
X96536933Y-93658267D03*
%TD*%
D20*
%TO.C,REF\u002A\u002A*%
X184683400Y-89763600D03*
%TD*%
D24*
%TO.C,R6*%
X218872733Y-69604467D03*
X216872733Y-69604467D03*
%TD*%
D19*
%TO.C,C3*%
X203700333Y-72093667D03*
X200575333Y-72093667D03*
%TD*%
D25*
%TO.C,C5*%
X180560837Y-105633967D03*
X180560837Y-108758967D03*
%TD*%
D21*
%TO.C,C5*%
X164252981Y-60117967D03*
X164252981Y-56992967D03*
%TD*%
M02*
