%TF.GenerationSoftware,KiCad,Pcbnew,(6.0.7)*%
%TF.CreationDate,2022-08-12T11:14:58-05:00*%
%TF.ProjectId,SAQ-Readout,5341512d-5265-4616-946f-75742e6b6963,rev?*%
%TF.SameCoordinates,Original*%
%TF.FileFunction,Legend,Bot*%
%TF.FilePolarity,Positive*%
%FSLAX46Y46*%
G04 Gerber Fmt 4.6, Leading zero omitted, Abs format (unit mm)*
G04 Created by KiCad (PCBNEW (6.0.7)) date 2022-08-12 11:14:58*
%MOMM*%
%LPD*%
G01*
G04 APERTURE LIST*
%ADD10C,0.127000*%
%ADD11C,0.150000*%
%ADD12C,0.120000*%
G04 APERTURE END LIST*
D10*
X222445640Y-123943533D02*
X221236116Y-123943533D01*
X222687545Y-124669247D02*
X221840878Y-122129247D01*
X220994211Y-124669247D01*
X219058973Y-122975914D02*
X219058973Y-124669247D01*
X220147545Y-122975914D02*
X220147545Y-124306390D01*
X220026592Y-124548295D01*
X219784688Y-124669247D01*
X219421830Y-124669247D01*
X219179926Y-124548295D01*
X219058973Y-124427342D01*
X217970402Y-124548295D02*
X217728497Y-124669247D01*
X217244688Y-124669247D01*
X217002783Y-124548295D01*
X216881830Y-124306390D01*
X216881830Y-124185438D01*
X217002783Y-123943533D01*
X217244688Y-123822580D01*
X217607545Y-123822580D01*
X217849450Y-123701628D01*
X217970402Y-123459723D01*
X217970402Y-123338771D01*
X217849450Y-123096866D01*
X217607545Y-122975914D01*
X217244688Y-122975914D01*
X217002783Y-123096866D01*
X216156116Y-122975914D02*
X215188497Y-122975914D01*
X215793259Y-122129247D02*
X215793259Y-124306390D01*
X215672307Y-124548295D01*
X215430402Y-124669247D01*
X215188497Y-124669247D01*
X214341830Y-124669247D02*
X214341830Y-122975914D01*
X214341830Y-122129247D02*
X214462783Y-122250200D01*
X214341830Y-122371152D01*
X214220878Y-122250200D01*
X214341830Y-122129247D01*
X214341830Y-122371152D01*
X213132307Y-122975914D02*
X213132307Y-124669247D01*
X213132307Y-123217819D02*
X213011354Y-123096866D01*
X212769450Y-122975914D01*
X212406592Y-122975914D01*
X212164688Y-123096866D01*
X212043735Y-123338771D01*
X212043735Y-124669247D01*
X208898973Y-124669247D02*
X208898973Y-122129247D01*
X208052307Y-123943533D01*
X207205640Y-122129247D01*
X207205640Y-124669247D01*
X204907545Y-124548295D02*
X205149450Y-124669247D01*
X205633259Y-124669247D01*
X205875164Y-124548295D01*
X205996116Y-124427342D01*
X206117069Y-124185438D01*
X206117069Y-123459723D01*
X205996116Y-123217819D01*
X205875164Y-123096866D01*
X205633259Y-122975914D01*
X205149450Y-122975914D01*
X204907545Y-123096866D01*
X203818973Y-124669247D02*
X203818973Y-122129247D01*
X203214211Y-122129247D01*
X202851354Y-122250200D01*
X202609450Y-122492104D01*
X202488497Y-122734009D01*
X202367545Y-123217819D01*
X202367545Y-123580676D01*
X202488497Y-124064485D01*
X202609450Y-124306390D01*
X202851354Y-124548295D01*
X203214211Y-124669247D01*
X203818973Y-124669247D01*
X200916116Y-124669247D02*
X201158021Y-124548295D01*
X201278973Y-124427342D01*
X201399926Y-124185438D01*
X201399926Y-123459723D01*
X201278973Y-123217819D01*
X201158021Y-123096866D01*
X200916116Y-122975914D01*
X200553259Y-122975914D01*
X200311354Y-123096866D01*
X200190402Y-123217819D01*
X200069450Y-123459723D01*
X200069450Y-124185438D01*
X200190402Y-124427342D01*
X200311354Y-124548295D01*
X200553259Y-124669247D01*
X200916116Y-124669247D01*
X198980878Y-122975914D02*
X198980878Y-124669247D01*
X198980878Y-123217819D02*
X198859926Y-123096866D01*
X198618021Y-122975914D01*
X198255164Y-122975914D01*
X198013259Y-123096866D01*
X197892307Y-123338771D01*
X197892307Y-124669247D01*
X195594211Y-124669247D02*
X195594211Y-123338771D01*
X195715164Y-123096866D01*
X195957069Y-122975914D01*
X196440878Y-122975914D01*
X196682783Y-123096866D01*
X195594211Y-124548295D02*
X195836116Y-124669247D01*
X196440878Y-124669247D01*
X196682783Y-124548295D01*
X196803735Y-124306390D01*
X196803735Y-124064485D01*
X196682783Y-123822580D01*
X196440878Y-123701628D01*
X195836116Y-123701628D01*
X195594211Y-123580676D01*
X194021830Y-124669247D02*
X194263735Y-124548295D01*
X194384688Y-124306390D01*
X194384688Y-122129247D01*
X191965640Y-124669247D02*
X191965640Y-122129247D01*
X191965640Y-124548295D02*
X192207545Y-124669247D01*
X192691354Y-124669247D01*
X192933259Y-124548295D01*
X193054211Y-124427342D01*
X193175164Y-124185438D01*
X193175164Y-123459723D01*
X193054211Y-123217819D01*
X192933259Y-123096866D01*
X192691354Y-122975914D01*
X192207545Y-122975914D01*
X191965640Y-123096866D01*
X221598973Y-126218647D02*
X221598973Y-128032933D01*
X221719926Y-128395790D01*
X221961830Y-128637695D01*
X222324688Y-128758647D01*
X222566592Y-128758647D01*
X219300878Y-128758647D02*
X219300878Y-127428171D01*
X219421830Y-127186266D01*
X219663735Y-127065314D01*
X220147545Y-127065314D01*
X220389450Y-127186266D01*
X219300878Y-128637695D02*
X219542783Y-128758647D01*
X220147545Y-128758647D01*
X220389450Y-128637695D01*
X220510402Y-128395790D01*
X220510402Y-128153885D01*
X220389450Y-127911980D01*
X220147545Y-127791028D01*
X219542783Y-127791028D01*
X219300878Y-127670076D01*
X218091354Y-128758647D02*
X218091354Y-127065314D01*
X218091354Y-127307219D02*
X217970402Y-127186266D01*
X217728497Y-127065314D01*
X217365640Y-127065314D01*
X217123735Y-127186266D01*
X217002783Y-127428171D01*
X217002783Y-128758647D01*
X217002783Y-127428171D02*
X216881830Y-127186266D01*
X216639926Y-127065314D01*
X216277069Y-127065314D01*
X216035164Y-127186266D01*
X215914211Y-127428171D01*
X215914211Y-128758647D01*
X213737069Y-128637695D02*
X213978973Y-128758647D01*
X214462783Y-128758647D01*
X214704688Y-128637695D01*
X214825640Y-128395790D01*
X214825640Y-127428171D01*
X214704688Y-127186266D01*
X214462783Y-127065314D01*
X213978973Y-127065314D01*
X213737069Y-127186266D01*
X213616116Y-127428171D01*
X213616116Y-127670076D01*
X214825640Y-127911980D01*
X212648497Y-128637695D02*
X212406592Y-128758647D01*
X211922783Y-128758647D01*
X211680878Y-128637695D01*
X211559926Y-128395790D01*
X211559926Y-128274838D01*
X211680878Y-128032933D01*
X211922783Y-127911980D01*
X212285640Y-127911980D01*
X212527545Y-127791028D01*
X212648497Y-127549123D01*
X212648497Y-127428171D01*
X212527545Y-127186266D01*
X212285640Y-127065314D01*
X211922783Y-127065314D01*
X211680878Y-127186266D01*
X207689450Y-127428171D02*
X207326592Y-127549123D01*
X207205640Y-127670076D01*
X207084688Y-127911980D01*
X207084688Y-128274838D01*
X207205640Y-128516742D01*
X207326592Y-128637695D01*
X207568497Y-128758647D01*
X208536116Y-128758647D01*
X208536116Y-126218647D01*
X207689450Y-126218647D01*
X207447545Y-126339600D01*
X207326592Y-126460552D01*
X207205640Y-126702457D01*
X207205640Y-126944361D01*
X207326592Y-127186266D01*
X207447545Y-127307219D01*
X207689450Y-127428171D01*
X208536116Y-127428171D01*
X204907545Y-128758647D02*
X204907545Y-127428171D01*
X205028497Y-127186266D01*
X205270402Y-127065314D01*
X205754211Y-127065314D01*
X205996116Y-127186266D01*
X204907545Y-128637695D02*
X205149450Y-128758647D01*
X205754211Y-128758647D01*
X205996116Y-128637695D01*
X206117069Y-128395790D01*
X206117069Y-128153885D01*
X205996116Y-127911980D01*
X205754211Y-127791028D01*
X205149450Y-127791028D01*
X204907545Y-127670076D01*
X204060878Y-127065314D02*
X203093259Y-127065314D01*
X203698021Y-126218647D02*
X203698021Y-128395790D01*
X203577069Y-128637695D01*
X203335164Y-128758647D01*
X203093259Y-128758647D01*
X202609450Y-127065314D02*
X201641830Y-127065314D01*
X202246592Y-126218647D02*
X202246592Y-128395790D01*
X202125640Y-128637695D01*
X201883735Y-128758647D01*
X201641830Y-128758647D01*
X199706592Y-128758647D02*
X199706592Y-127428171D01*
X199827545Y-127186266D01*
X200069450Y-127065314D01*
X200553259Y-127065314D01*
X200795164Y-127186266D01*
X199706592Y-128637695D02*
X199948497Y-128758647D01*
X200553259Y-128758647D01*
X200795164Y-128637695D01*
X200916116Y-128395790D01*
X200916116Y-128153885D01*
X200795164Y-127911980D01*
X200553259Y-127791028D01*
X199948497Y-127791028D01*
X199706592Y-127670076D01*
X198859926Y-127065314D02*
X197892307Y-127065314D01*
X198497069Y-126218647D02*
X198497069Y-128395790D01*
X198376116Y-128637695D01*
X198134211Y-128758647D01*
X197892307Y-128758647D01*
X221598973Y-130308047D02*
X221598973Y-132122333D01*
X221719926Y-132485190D01*
X221961830Y-132727095D01*
X222324688Y-132848047D01*
X222566592Y-132848047D01*
X220026592Y-132848047D02*
X220268497Y-132727095D01*
X220389450Y-132606142D01*
X220510402Y-132364238D01*
X220510402Y-131638523D01*
X220389450Y-131396619D01*
X220268497Y-131275666D01*
X220026592Y-131154714D01*
X219663735Y-131154714D01*
X219421830Y-131275666D01*
X219300878Y-131396619D01*
X219179926Y-131638523D01*
X219179926Y-132364238D01*
X219300878Y-132606142D01*
X219421830Y-132727095D01*
X219663735Y-132848047D01*
X220026592Y-132848047D01*
X217002783Y-132848047D02*
X217002783Y-131517571D01*
X217123735Y-131275666D01*
X217365640Y-131154714D01*
X217849450Y-131154714D01*
X218091354Y-131275666D01*
X217002783Y-132727095D02*
X217244688Y-132848047D01*
X217849450Y-132848047D01*
X218091354Y-132727095D01*
X218212307Y-132485190D01*
X218212307Y-132243285D01*
X218091354Y-132001380D01*
X217849450Y-131880428D01*
X217244688Y-131880428D01*
X217002783Y-131759476D01*
X215793259Y-131154714D02*
X215793259Y-132848047D01*
X215793259Y-131396619D02*
X215672307Y-131275666D01*
X215430402Y-131154714D01*
X215067545Y-131154714D01*
X214825640Y-131275666D01*
X214704688Y-131517571D01*
X214704688Y-132848047D01*
X213858021Y-131154714D02*
X212890402Y-131154714D01*
X213495164Y-130308047D02*
X213495164Y-132485190D01*
X213374211Y-132727095D01*
X213132307Y-132848047D01*
X212890402Y-132848047D01*
X212043735Y-132848047D02*
X212043735Y-130308047D01*
X210955164Y-132848047D02*
X210955164Y-131517571D01*
X211076116Y-131275666D01*
X211318021Y-131154714D01*
X211680878Y-131154714D01*
X211922783Y-131275666D01*
X212043735Y-131396619D01*
X208657069Y-132848047D02*
X208657069Y-131517571D01*
X208778021Y-131275666D01*
X209019926Y-131154714D01*
X209503735Y-131154714D01*
X209745640Y-131275666D01*
X208657069Y-132727095D02*
X208898973Y-132848047D01*
X209503735Y-132848047D01*
X209745640Y-132727095D01*
X209866592Y-132485190D01*
X209866592Y-132243285D01*
X209745640Y-132001380D01*
X209503735Y-131880428D01*
X208898973Y-131880428D01*
X208657069Y-131759476D01*
X207447545Y-131154714D02*
X207447545Y-132848047D01*
X207447545Y-131396619D02*
X207326592Y-131275666D01*
X207084688Y-131154714D01*
X206721830Y-131154714D01*
X206479926Y-131275666D01*
X206358973Y-131517571D01*
X206358973Y-132848047D01*
X203335164Y-132122333D02*
X202125640Y-132122333D01*
X203577069Y-132848047D02*
X202730402Y-130308047D01*
X201883735Y-132848047D01*
X201158021Y-132727095D02*
X200916116Y-132848047D01*
X200432307Y-132848047D01*
X200190402Y-132727095D01*
X200069450Y-132485190D01*
X200069450Y-132364238D01*
X200190402Y-132122333D01*
X200432307Y-132001380D01*
X200795164Y-132001380D01*
X201037069Y-131880428D01*
X201158021Y-131638523D01*
X201158021Y-131517571D01*
X201037069Y-131275666D01*
X200795164Y-131154714D01*
X200432307Y-131154714D01*
X200190402Y-131275666D01*
X197892307Y-132848047D02*
X197892307Y-131517571D01*
X198013259Y-131275666D01*
X198255164Y-131154714D01*
X198738973Y-131154714D01*
X198980878Y-131275666D01*
X197892307Y-132727095D02*
X198134211Y-132848047D01*
X198738973Y-132848047D01*
X198980878Y-132727095D01*
X199101830Y-132485190D01*
X199101830Y-132243285D01*
X198980878Y-132001380D01*
X198738973Y-131880428D01*
X198134211Y-131880428D01*
X197892307Y-131759476D01*
X195594211Y-132848047D02*
X195594211Y-131517571D01*
X195715164Y-131275666D01*
X195957069Y-131154714D01*
X196440878Y-131154714D01*
X196682783Y-131275666D01*
X195594211Y-132727095D02*
X195836116Y-132848047D01*
X196440878Y-132848047D01*
X196682783Y-132727095D01*
X196803735Y-132485190D01*
X196803735Y-132243285D01*
X196682783Y-132001380D01*
X196440878Y-131880428D01*
X195836116Y-131880428D01*
X195594211Y-131759476D01*
X193296116Y-132848047D02*
X193296116Y-130308047D01*
X193296116Y-132727095D02*
X193538021Y-132848047D01*
X194021830Y-132848047D01*
X194263735Y-132727095D01*
X194384688Y-132606142D01*
X194505640Y-132364238D01*
X194505640Y-131638523D01*
X194384688Y-131396619D01*
X194263735Y-131275666D01*
X194021830Y-131154714D01*
X193538021Y-131154714D01*
X193296116Y-131275666D01*
X192086592Y-132848047D02*
X192086592Y-131154714D01*
X192086592Y-130308047D02*
X192207545Y-130429000D01*
X192086592Y-130549952D01*
X191965640Y-130429000D01*
X192086592Y-130308047D01*
X192086592Y-130549952D01*
D11*
%TO.C,C3*%
X105097995Y-74330409D02*
X105145614Y-74378028D01*
X105288471Y-74425647D01*
X105383709Y-74425647D01*
X105526567Y-74378028D01*
X105621805Y-74282790D01*
X105669424Y-74187552D01*
X105717043Y-73997076D01*
X105717043Y-73854219D01*
X105669424Y-73663743D01*
X105621805Y-73568505D01*
X105526567Y-73473267D01*
X105383709Y-73425647D01*
X105288471Y-73425647D01*
X105145614Y-73473267D01*
X105097995Y-73520886D01*
X104764662Y-73425647D02*
X104145614Y-73425647D01*
X104478948Y-73806600D01*
X104336090Y-73806600D01*
X104240852Y-73854219D01*
X104193233Y-73901838D01*
X104145614Y-73997076D01*
X104145614Y-74235171D01*
X104193233Y-74330409D01*
X104240852Y-74378028D01*
X104336090Y-74425647D01*
X104621805Y-74425647D01*
X104717043Y-74378028D01*
X104764662Y-74330409D01*
X224351875Y-74330409D02*
X224399494Y-74378028D01*
X224542351Y-74425647D01*
X224637589Y-74425647D01*
X224780447Y-74378028D01*
X224875685Y-74282790D01*
X224923304Y-74187552D01*
X224970923Y-73997076D01*
X224970923Y-73854219D01*
X224923304Y-73663743D01*
X224875685Y-73568505D01*
X224780447Y-73473267D01*
X224637589Y-73425647D01*
X224542351Y-73425647D01*
X224399494Y-73473267D01*
X224351875Y-73520886D01*
X224018542Y-73425647D02*
X223399494Y-73425647D01*
X223732828Y-73806600D01*
X223589970Y-73806600D01*
X223494732Y-73854219D01*
X223447113Y-73901838D01*
X223399494Y-73997076D01*
X223399494Y-74235171D01*
X223447113Y-74330409D01*
X223494732Y-74378028D01*
X223589970Y-74425647D01*
X223875685Y-74425647D01*
X223970923Y-74378028D01*
X224018542Y-74330409D01*
%TO.C,C5*%
X90733719Y-60589009D02*
X90781338Y-60636628D01*
X90924195Y-60684247D01*
X91019433Y-60684247D01*
X91162291Y-60636628D01*
X91257529Y-60541390D01*
X91305148Y-60446152D01*
X91352767Y-60255676D01*
X91352767Y-60112819D01*
X91305148Y-59922343D01*
X91257529Y-59827105D01*
X91162291Y-59731867D01*
X91019433Y-59684247D01*
X90924195Y-59684247D01*
X90781338Y-59731867D01*
X90733719Y-59779486D01*
X89828957Y-59684247D02*
X90305148Y-59684247D01*
X90352767Y-60160438D01*
X90305148Y-60112819D01*
X90209910Y-60065200D01*
X89971814Y-60065200D01*
X89876576Y-60112819D01*
X89828957Y-60160438D01*
X89781338Y-60255676D01*
X89781338Y-60493771D01*
X89828957Y-60589009D01*
X89876576Y-60636628D01*
X89971814Y-60684247D01*
X90209910Y-60684247D01*
X90305148Y-60636628D01*
X90352767Y-60589009D01*
%TO.C,C2*%
X126535771Y-71587209D02*
X126583390Y-71634828D01*
X126726247Y-71682447D01*
X126821485Y-71682447D01*
X126964343Y-71634828D01*
X127059581Y-71539590D01*
X127107200Y-71444352D01*
X127154819Y-71253876D01*
X127154819Y-71111019D01*
X127107200Y-70920543D01*
X127059581Y-70825305D01*
X126964343Y-70730067D01*
X126821485Y-70682447D01*
X126726247Y-70682447D01*
X126583390Y-70730067D01*
X126535771Y-70777686D01*
X126154819Y-70777686D02*
X126107200Y-70730067D01*
X126011962Y-70682447D01*
X125773866Y-70682447D01*
X125678628Y-70730067D01*
X125631009Y-70777686D01*
X125583390Y-70872924D01*
X125583390Y-70968162D01*
X125631009Y-71111019D01*
X126202438Y-71682447D01*
X125583390Y-71682447D01*
%TO.C,C4*%
X111321075Y-101279809D02*
X111368694Y-101327428D01*
X111511551Y-101375047D01*
X111606789Y-101375047D01*
X111749647Y-101327428D01*
X111844885Y-101232190D01*
X111892504Y-101136952D01*
X111940123Y-100946476D01*
X111940123Y-100803619D01*
X111892504Y-100613143D01*
X111844885Y-100517905D01*
X111749647Y-100422667D01*
X111606789Y-100375047D01*
X111511551Y-100375047D01*
X111368694Y-100422667D01*
X111321075Y-100470286D01*
X110463932Y-100708381D02*
X110463932Y-101375047D01*
X110702028Y-100327428D02*
X110940123Y-101041714D01*
X110321075Y-101041714D01*
%TO.C,C2*%
X198088099Y-71587209D02*
X198135718Y-71634828D01*
X198278575Y-71682447D01*
X198373813Y-71682447D01*
X198516671Y-71634828D01*
X198611909Y-71539590D01*
X198659528Y-71444352D01*
X198707147Y-71253876D01*
X198707147Y-71111019D01*
X198659528Y-70920543D01*
X198611909Y-70825305D01*
X198516671Y-70730067D01*
X198373813Y-70682447D01*
X198278575Y-70682447D01*
X198135718Y-70730067D01*
X198088099Y-70777686D01*
X197707147Y-70777686D02*
X197659528Y-70730067D01*
X197564290Y-70682447D01*
X197326194Y-70682447D01*
X197230956Y-70730067D01*
X197183337Y-70777686D01*
X197135718Y-70872924D01*
X197135718Y-70968162D01*
X197183337Y-71111019D01*
X197754766Y-71682447D01*
X197135718Y-71682447D01*
%TO.C,C3*%
X73093723Y-92135809D02*
X73141342Y-92183428D01*
X73284199Y-92231047D01*
X73379437Y-92231047D01*
X73522295Y-92183428D01*
X73617533Y-92088190D01*
X73665152Y-91992952D01*
X73712771Y-91802476D01*
X73712771Y-91659619D01*
X73665152Y-91469143D01*
X73617533Y-91373905D01*
X73522295Y-91278667D01*
X73379437Y-91231047D01*
X73284199Y-91231047D01*
X73141342Y-91278667D01*
X73093723Y-91326286D01*
X72760390Y-91231047D02*
X72141342Y-91231047D01*
X72474676Y-91612000D01*
X72331818Y-91612000D01*
X72236580Y-91659619D01*
X72188961Y-91707238D01*
X72141342Y-91802476D01*
X72141342Y-92040571D01*
X72188961Y-92135809D01*
X72236580Y-92183428D01*
X72331818Y-92231047D01*
X72617533Y-92231047D01*
X72712771Y-92183428D01*
X72760390Y-92135809D01*
%TO.C,C2*%
X170909827Y-94879009D02*
X170957446Y-94926628D01*
X171100303Y-94974247D01*
X171195541Y-94974247D01*
X171338399Y-94926628D01*
X171433637Y-94831390D01*
X171481256Y-94736152D01*
X171528875Y-94545676D01*
X171528875Y-94402819D01*
X171481256Y-94212343D01*
X171433637Y-94117105D01*
X171338399Y-94021867D01*
X171195541Y-93974247D01*
X171100303Y-93974247D01*
X170957446Y-94021867D01*
X170909827Y-94069486D01*
X170528875Y-94069486D02*
X170481256Y-94021867D01*
X170386018Y-93974247D01*
X170147922Y-93974247D01*
X170052684Y-94021867D01*
X170005065Y-94069486D01*
X169957446Y-94164724D01*
X169957446Y-94259962D01*
X170005065Y-94402819D01*
X170576494Y-94974247D01*
X169957446Y-94974247D01*
%TO.C,C3*%
X192347603Y-92135809D02*
X192395222Y-92183428D01*
X192538079Y-92231047D01*
X192633317Y-92231047D01*
X192776175Y-92183428D01*
X192871413Y-92088190D01*
X192919032Y-91992952D01*
X192966651Y-91802476D01*
X192966651Y-91659619D01*
X192919032Y-91469143D01*
X192871413Y-91373905D01*
X192776175Y-91278667D01*
X192633317Y-91231047D01*
X192538079Y-91231047D01*
X192395222Y-91278667D01*
X192347603Y-91326286D01*
X192014270Y-91231047D02*
X191395222Y-91231047D01*
X191728556Y-91612000D01*
X191585698Y-91612000D01*
X191490460Y-91659619D01*
X191442841Y-91707238D01*
X191395222Y-91802476D01*
X191395222Y-92040571D01*
X191442841Y-92135809D01*
X191490460Y-92183428D01*
X191585698Y-92231047D01*
X191871413Y-92231047D01*
X191966651Y-92183428D01*
X192014270Y-92135809D01*
%TO.C,C2*%
X54983443Y-71587209D02*
X55031062Y-71634828D01*
X55173919Y-71682447D01*
X55269157Y-71682447D01*
X55412015Y-71634828D01*
X55507253Y-71539590D01*
X55554872Y-71444352D01*
X55602491Y-71253876D01*
X55602491Y-71111019D01*
X55554872Y-70920543D01*
X55507253Y-70825305D01*
X55412015Y-70730067D01*
X55269157Y-70682447D01*
X55173919Y-70682447D01*
X55031062Y-70730067D01*
X54983443Y-70777686D01*
X54602491Y-70777686D02*
X54554872Y-70730067D01*
X54459634Y-70682447D01*
X54221538Y-70682447D01*
X54126300Y-70730067D01*
X54078681Y-70777686D01*
X54031062Y-70872924D01*
X54031062Y-70968162D01*
X54078681Y-71111019D01*
X54650110Y-71682447D01*
X54031062Y-71682447D01*
X242462155Y-94879009D02*
X242509774Y-94926628D01*
X242652631Y-94974247D01*
X242747869Y-94974247D01*
X242890727Y-94926628D01*
X242985965Y-94831390D01*
X243033584Y-94736152D01*
X243081203Y-94545676D01*
X243081203Y-94402819D01*
X243033584Y-94212343D01*
X242985965Y-94117105D01*
X242890727Y-94021867D01*
X242747869Y-93974247D01*
X242652631Y-93974247D01*
X242509774Y-94021867D01*
X242462155Y-94069486D01*
X242081203Y-94069486D02*
X242033584Y-94021867D01*
X241938346Y-93974247D01*
X241700250Y-93974247D01*
X241605012Y-94021867D01*
X241557393Y-94069486D01*
X241509774Y-94164724D01*
X241509774Y-94259962D01*
X241557393Y-94402819D01*
X242128822Y-94974247D01*
X241509774Y-94974247D01*
%TO.C,R6*%
X152711127Y-94999647D02*
X153044461Y-94523457D01*
X153282556Y-94999647D02*
X153282556Y-93999647D01*
X152901603Y-93999647D01*
X152806365Y-94047267D01*
X152758746Y-94094886D01*
X152711127Y-94190124D01*
X152711127Y-94332981D01*
X152758746Y-94428219D01*
X152806365Y-94475838D01*
X152901603Y-94523457D01*
X153282556Y-94523457D01*
X151853984Y-93999647D02*
X152044461Y-93999647D01*
X152139699Y-94047267D01*
X152187318Y-94094886D01*
X152282556Y-94237743D01*
X152330175Y-94428219D01*
X152330175Y-94809171D01*
X152282556Y-94904409D01*
X152234937Y-94952028D01*
X152139699Y-94999647D01*
X151949222Y-94999647D01*
X151853984Y-94952028D01*
X151806365Y-94904409D01*
X151758746Y-94809171D01*
X151758746Y-94571076D01*
X151806365Y-94475838D01*
X151853984Y-94428219D01*
X151949222Y-94380600D01*
X152139699Y-94380600D01*
X152234937Y-94428219D01*
X152282556Y-94475838D01*
X152330175Y-94571076D01*
%TO.C,C5*%
X186136823Y-60589009D02*
X186184442Y-60636628D01*
X186327299Y-60684247D01*
X186422537Y-60684247D01*
X186565395Y-60636628D01*
X186660633Y-60541390D01*
X186708252Y-60446152D01*
X186755871Y-60255676D01*
X186755871Y-60112819D01*
X186708252Y-59922343D01*
X186660633Y-59827105D01*
X186565395Y-59731867D01*
X186422537Y-59684247D01*
X186327299Y-59684247D01*
X186184442Y-59731867D01*
X186136823Y-59779486D01*
X185232061Y-59684247D02*
X185708252Y-59684247D01*
X185755871Y-60160438D01*
X185708252Y-60112819D01*
X185613014Y-60065200D01*
X185374918Y-60065200D01*
X185279680Y-60112819D01*
X185232061Y-60160438D01*
X185184442Y-60255676D01*
X185184442Y-60493771D01*
X185232061Y-60589009D01*
X185279680Y-60636628D01*
X185374918Y-60684247D01*
X185613014Y-60684247D01*
X185708252Y-60636628D01*
X185755871Y-60589009D01*
%TO.C,C3*%
X216198379Y-92135809D02*
X216245998Y-92183428D01*
X216388855Y-92231047D01*
X216484093Y-92231047D01*
X216626951Y-92183428D01*
X216722189Y-92088190D01*
X216769808Y-91992952D01*
X216817427Y-91802476D01*
X216817427Y-91659619D01*
X216769808Y-91469143D01*
X216722189Y-91373905D01*
X216626951Y-91278667D01*
X216484093Y-91231047D01*
X216388855Y-91231047D01*
X216245998Y-91278667D01*
X216198379Y-91326286D01*
X215865046Y-91231047D02*
X215245998Y-91231047D01*
X215579332Y-91612000D01*
X215436474Y-91612000D01*
X215341236Y-91659619D01*
X215293617Y-91707238D01*
X215245998Y-91802476D01*
X215245998Y-92040571D01*
X215293617Y-92135809D01*
X215341236Y-92183428D01*
X215436474Y-92231047D01*
X215722189Y-92231047D01*
X215817427Y-92183428D01*
X215865046Y-92135809D01*
%TO.C,C4*%
X138422971Y-65186409D02*
X138470590Y-65234028D01*
X138613447Y-65281647D01*
X138708685Y-65281647D01*
X138851543Y-65234028D01*
X138946781Y-65138790D01*
X138994400Y-65043552D01*
X139042019Y-64853076D01*
X139042019Y-64710219D01*
X138994400Y-64519743D01*
X138946781Y-64424505D01*
X138851543Y-64329267D01*
X138708685Y-64281647D01*
X138613447Y-64281647D01*
X138470590Y-64329267D01*
X138422971Y-64376886D01*
X137565828Y-64614981D02*
X137565828Y-65281647D01*
X137803924Y-64234028D02*
X138042019Y-64948314D01*
X137422971Y-64948314D01*
%TO.C,R6*%
X97032919Y-71657047D02*
X97366253Y-71180857D01*
X97604348Y-71657047D02*
X97604348Y-70657047D01*
X97223395Y-70657047D01*
X97128157Y-70704667D01*
X97080538Y-70752286D01*
X97032919Y-70847524D01*
X97032919Y-70990381D01*
X97080538Y-71085619D01*
X97128157Y-71133238D01*
X97223395Y-71180857D01*
X97604348Y-71180857D01*
X96175776Y-70657047D02*
X96366253Y-70657047D01*
X96461491Y-70704667D01*
X96509110Y-70752286D01*
X96604348Y-70895143D01*
X96651967Y-71085619D01*
X96651967Y-71466571D01*
X96604348Y-71561809D01*
X96556729Y-71609428D01*
X96461491Y-71657047D01*
X96271014Y-71657047D01*
X96175776Y-71609428D01*
X96128157Y-71561809D01*
X96080538Y-71466571D01*
X96080538Y-71228476D01*
X96128157Y-71133238D01*
X96175776Y-71085619D01*
X96271014Y-71038000D01*
X96461491Y-71038000D01*
X96556729Y-71085619D01*
X96604348Y-71133238D01*
X96651967Y-71228476D01*
%TO.C,C3*%
X176650323Y-74330409D02*
X176697942Y-74378028D01*
X176840799Y-74425647D01*
X176936037Y-74425647D01*
X177078895Y-74378028D01*
X177174133Y-74282790D01*
X177221752Y-74187552D01*
X177269371Y-73997076D01*
X177269371Y-73854219D01*
X177221752Y-73663743D01*
X177174133Y-73568505D01*
X177078895Y-73473267D01*
X176936037Y-73425647D01*
X176840799Y-73425647D01*
X176697942Y-73473267D01*
X176650323Y-73520886D01*
X176316990Y-73425647D02*
X175697942Y-73425647D01*
X176031276Y-73806600D01*
X175888418Y-73806600D01*
X175793180Y-73854219D01*
X175745561Y-73901838D01*
X175697942Y-73997076D01*
X175697942Y-74235171D01*
X175745561Y-74330409D01*
X175793180Y-74378028D01*
X175888418Y-74425647D01*
X176174133Y-74425647D01*
X176269371Y-74378028D01*
X176316990Y-74330409D01*
%TO.C,R6*%
X120883695Y-71657047D02*
X121217029Y-71180857D01*
X121455124Y-71657047D02*
X121455124Y-70657047D01*
X121074171Y-70657047D01*
X120978933Y-70704667D01*
X120931314Y-70752286D01*
X120883695Y-70847524D01*
X120883695Y-70990381D01*
X120931314Y-71085619D01*
X120978933Y-71133238D01*
X121074171Y-71180857D01*
X121455124Y-71180857D01*
X120026552Y-70657047D02*
X120217029Y-70657047D01*
X120312267Y-70704667D01*
X120359886Y-70752286D01*
X120455124Y-70895143D01*
X120502743Y-71085619D01*
X120502743Y-71466571D01*
X120455124Y-71561809D01*
X120407505Y-71609428D01*
X120312267Y-71657047D01*
X120121790Y-71657047D01*
X120026552Y-71609428D01*
X119978933Y-71561809D01*
X119931314Y-71466571D01*
X119931314Y-71228476D01*
X119978933Y-71133238D01*
X120026552Y-71085619D01*
X120121790Y-71038000D01*
X120312267Y-71038000D01*
X120407505Y-71085619D01*
X120455124Y-71133238D01*
X120502743Y-71228476D01*
X144734471Y-71657047D02*
X145067805Y-71180857D01*
X145305900Y-71657047D02*
X145305900Y-70657047D01*
X144924947Y-70657047D01*
X144829709Y-70704667D01*
X144782090Y-70752286D01*
X144734471Y-70847524D01*
X144734471Y-70990381D01*
X144782090Y-71085619D01*
X144829709Y-71133238D01*
X144924947Y-71180857D01*
X145305900Y-71180857D01*
X143877328Y-70657047D02*
X144067805Y-70657047D01*
X144163043Y-70704667D01*
X144210662Y-70752286D01*
X144305900Y-70895143D01*
X144353519Y-71085619D01*
X144353519Y-71466571D01*
X144305900Y-71561809D01*
X144258281Y-71609428D01*
X144163043Y-71657047D01*
X143972566Y-71657047D01*
X143877328Y-71609428D01*
X143829709Y-71561809D01*
X143782090Y-71466571D01*
X143782090Y-71228476D01*
X143829709Y-71133238D01*
X143877328Y-71085619D01*
X143972566Y-71038000D01*
X144163043Y-71038000D01*
X144258281Y-71085619D01*
X144305900Y-71133238D01*
X144353519Y-71228476D01*
%TO.C,C2*%
X75506723Y-94879009D02*
X75554342Y-94926628D01*
X75697199Y-94974247D01*
X75792437Y-94974247D01*
X75935295Y-94926628D01*
X76030533Y-94831390D01*
X76078152Y-94736152D01*
X76125771Y-94545676D01*
X76125771Y-94402819D01*
X76078152Y-94212343D01*
X76030533Y-94117105D01*
X75935295Y-94021867D01*
X75792437Y-93974247D01*
X75697199Y-93974247D01*
X75554342Y-94021867D01*
X75506723Y-94069486D01*
X75125771Y-94069486D02*
X75078152Y-94021867D01*
X74982914Y-93974247D01*
X74744818Y-93974247D01*
X74649580Y-94021867D01*
X74601961Y-94069486D01*
X74554342Y-94164724D01*
X74554342Y-94259962D01*
X74601961Y-94402819D01*
X75173390Y-94974247D01*
X74554342Y-94974247D01*
%TO.C,C3*%
X144646051Y-92135809D02*
X144693670Y-92183428D01*
X144836527Y-92231047D01*
X144931765Y-92231047D01*
X145074623Y-92183428D01*
X145169861Y-92088190D01*
X145217480Y-91992952D01*
X145265099Y-91802476D01*
X145265099Y-91659619D01*
X145217480Y-91469143D01*
X145169861Y-91373905D01*
X145074623Y-91278667D01*
X144931765Y-91231047D01*
X144836527Y-91231047D01*
X144693670Y-91278667D01*
X144646051Y-91326286D01*
X144312718Y-91231047D02*
X143693670Y-91231047D01*
X144027004Y-91612000D01*
X143884146Y-91612000D01*
X143788908Y-91659619D01*
X143741289Y-91707238D01*
X143693670Y-91802476D01*
X143693670Y-92040571D01*
X143741289Y-92135809D01*
X143788908Y-92183428D01*
X143884146Y-92231047D01*
X144169861Y-92231047D01*
X144265099Y-92183428D01*
X144312718Y-92135809D01*
%TO.C,C2*%
X218611379Y-94879009D02*
X218658998Y-94926628D01*
X218801855Y-94974247D01*
X218897093Y-94974247D01*
X219039951Y-94926628D01*
X219135189Y-94831390D01*
X219182808Y-94736152D01*
X219230427Y-94545676D01*
X219230427Y-94402819D01*
X219182808Y-94212343D01*
X219135189Y-94117105D01*
X219039951Y-94021867D01*
X218897093Y-93974247D01*
X218801855Y-93974247D01*
X218658998Y-94021867D01*
X218611379Y-94069486D01*
X218230427Y-94069486D02*
X218182808Y-94021867D01*
X218087570Y-93974247D01*
X217849474Y-93974247D01*
X217754236Y-94021867D01*
X217706617Y-94069486D01*
X217658998Y-94164724D01*
X217658998Y-94259962D01*
X217706617Y-94402819D01*
X218278046Y-94974247D01*
X217658998Y-94974247D01*
%TO.C,C4*%
X66870643Y-65186409D02*
X66918262Y-65234028D01*
X67061119Y-65281647D01*
X67156357Y-65281647D01*
X67299215Y-65234028D01*
X67394453Y-65138790D01*
X67442072Y-65043552D01*
X67489691Y-64853076D01*
X67489691Y-64710219D01*
X67442072Y-64519743D01*
X67394453Y-64424505D01*
X67299215Y-64329267D01*
X67156357Y-64281647D01*
X67061119Y-64281647D01*
X66918262Y-64329267D01*
X66870643Y-64376886D01*
X66013500Y-64614981D02*
X66013500Y-65281647D01*
X66251596Y-64234028D02*
X66489691Y-64948314D01*
X65870643Y-64948314D01*
%TO.C,R6*%
X57308023Y-94999647D02*
X57641357Y-94523457D01*
X57879452Y-94999647D02*
X57879452Y-93999647D01*
X57498499Y-93999647D01*
X57403261Y-94047267D01*
X57355642Y-94094886D01*
X57308023Y-94190124D01*
X57308023Y-94332981D01*
X57355642Y-94428219D01*
X57403261Y-94475838D01*
X57498499Y-94523457D01*
X57879452Y-94523457D01*
X56450880Y-93999647D02*
X56641357Y-93999647D01*
X56736595Y-94047267D01*
X56784214Y-94094886D01*
X56879452Y-94237743D01*
X56927071Y-94428219D01*
X56927071Y-94809171D01*
X56879452Y-94904409D01*
X56831833Y-94952028D01*
X56736595Y-94999647D01*
X56546118Y-94999647D01*
X56450880Y-94952028D01*
X56403261Y-94904409D01*
X56355642Y-94809171D01*
X56355642Y-94571076D01*
X56403261Y-94475838D01*
X56450880Y-94428219D01*
X56546118Y-94380600D01*
X56736595Y-94380600D01*
X56831833Y-94428219D01*
X56879452Y-94475838D01*
X56927071Y-94571076D01*
%TO.C,C3*%
X57396443Y-74330409D02*
X57444062Y-74378028D01*
X57586919Y-74425647D01*
X57682157Y-74425647D01*
X57825015Y-74378028D01*
X57920253Y-74282790D01*
X57967872Y-74187552D01*
X58015491Y-73997076D01*
X58015491Y-73854219D01*
X57967872Y-73663743D01*
X57920253Y-73568505D01*
X57825015Y-73473267D01*
X57682157Y-73425647D01*
X57586919Y-73425647D01*
X57444062Y-73473267D01*
X57396443Y-73520886D01*
X57063110Y-73425647D02*
X56444062Y-73425647D01*
X56777396Y-73806600D01*
X56634538Y-73806600D01*
X56539300Y-73854219D01*
X56491681Y-73901838D01*
X56444062Y-73997076D01*
X56444062Y-74235171D01*
X56491681Y-74330409D01*
X56539300Y-74378028D01*
X56634538Y-74425647D01*
X56920253Y-74425647D01*
X57015491Y-74378028D01*
X57063110Y-74330409D01*
%TO.C,C4*%
X63619523Y-101279809D02*
X63667142Y-101327428D01*
X63809999Y-101375047D01*
X63905237Y-101375047D01*
X64048095Y-101327428D01*
X64143333Y-101232190D01*
X64190952Y-101136952D01*
X64238571Y-100946476D01*
X64238571Y-100803619D01*
X64190952Y-100613143D01*
X64143333Y-100517905D01*
X64048095Y-100422667D01*
X63905237Y-100375047D01*
X63809999Y-100375047D01*
X63667142Y-100422667D01*
X63619523Y-100470286D01*
X62762380Y-100708381D02*
X62762380Y-101375047D01*
X63000476Y-100327428D02*
X63238571Y-101041714D01*
X62619523Y-101041714D01*
%TO.C,C2*%
X174237323Y-71587209D02*
X174284942Y-71634828D01*
X174427799Y-71682447D01*
X174523037Y-71682447D01*
X174665895Y-71634828D01*
X174761133Y-71539590D01*
X174808752Y-71444352D01*
X174856371Y-71253876D01*
X174856371Y-71111019D01*
X174808752Y-70920543D01*
X174761133Y-70825305D01*
X174665895Y-70730067D01*
X174523037Y-70682447D01*
X174427799Y-70682447D01*
X174284942Y-70730067D01*
X174237323Y-70777686D01*
X173856371Y-70777686D02*
X173808752Y-70730067D01*
X173713514Y-70682447D01*
X173475418Y-70682447D01*
X173380180Y-70730067D01*
X173332561Y-70777686D01*
X173284942Y-70872924D01*
X173284942Y-70968162D01*
X173332561Y-71111019D01*
X173903990Y-71682447D01*
X173284942Y-71682447D01*
%TO.C,C4*%
X186124523Y-65186409D02*
X186172142Y-65234028D01*
X186314999Y-65281647D01*
X186410237Y-65281647D01*
X186553095Y-65234028D01*
X186648333Y-65138790D01*
X186695952Y-65043552D01*
X186743571Y-64853076D01*
X186743571Y-64710219D01*
X186695952Y-64519743D01*
X186648333Y-64424505D01*
X186553095Y-64329267D01*
X186410237Y-64281647D01*
X186314999Y-64281647D01*
X186172142Y-64329267D01*
X186124523Y-64376886D01*
X185267380Y-64614981D02*
X185267380Y-65281647D01*
X185505476Y-64234028D02*
X185743571Y-64948314D01*
X185124523Y-64948314D01*
%TO.C,C5*%
X230562655Y-105877209D02*
X230610274Y-105924828D01*
X230753131Y-105972447D01*
X230848369Y-105972447D01*
X230991227Y-105924828D01*
X231086465Y-105829590D01*
X231134084Y-105734352D01*
X231181703Y-105543876D01*
X231181703Y-105401019D01*
X231134084Y-105210543D01*
X231086465Y-105115305D01*
X230991227Y-105020067D01*
X230848369Y-104972447D01*
X230753131Y-104972447D01*
X230610274Y-105020067D01*
X230562655Y-105067686D01*
X229657893Y-104972447D02*
X230134084Y-104972447D01*
X230181703Y-105448638D01*
X230134084Y-105401019D01*
X230038846Y-105353400D01*
X229800750Y-105353400D01*
X229705512Y-105401019D01*
X229657893Y-105448638D01*
X229610274Y-105543876D01*
X229610274Y-105781971D01*
X229657893Y-105877209D01*
X229705512Y-105924828D01*
X229800750Y-105972447D01*
X230038846Y-105972447D01*
X230134084Y-105924828D01*
X230181703Y-105877209D01*
%TO.C,R6*%
X192436023Y-71657047D02*
X192769357Y-71180857D01*
X193007452Y-71657047D02*
X193007452Y-70657047D01*
X192626499Y-70657047D01*
X192531261Y-70704667D01*
X192483642Y-70752286D01*
X192436023Y-70847524D01*
X192436023Y-70990381D01*
X192483642Y-71085619D01*
X192531261Y-71133238D01*
X192626499Y-71180857D01*
X193007452Y-71180857D01*
X191578880Y-70657047D02*
X191769357Y-70657047D01*
X191864595Y-70704667D01*
X191912214Y-70752286D01*
X192007452Y-70895143D01*
X192055071Y-71085619D01*
X192055071Y-71466571D01*
X192007452Y-71561809D01*
X191959833Y-71609428D01*
X191864595Y-71657047D01*
X191674118Y-71657047D01*
X191578880Y-71609428D01*
X191531261Y-71561809D01*
X191483642Y-71466571D01*
X191483642Y-71228476D01*
X191531261Y-71133238D01*
X191578880Y-71085619D01*
X191674118Y-71038000D01*
X191864595Y-71038000D01*
X191959833Y-71085619D01*
X192007452Y-71133238D01*
X192055071Y-71228476D01*
%TO.C,C5*%
X138435271Y-60589009D02*
X138482890Y-60636628D01*
X138625747Y-60684247D01*
X138720985Y-60684247D01*
X138863843Y-60636628D01*
X138959081Y-60541390D01*
X139006700Y-60446152D01*
X139054319Y-60255676D01*
X139054319Y-60112819D01*
X139006700Y-59922343D01*
X138959081Y-59827105D01*
X138863843Y-59731867D01*
X138720985Y-59684247D01*
X138625747Y-59684247D01*
X138482890Y-59731867D01*
X138435271Y-59779486D01*
X137530509Y-59684247D02*
X138006700Y-59684247D01*
X138054319Y-60160438D01*
X138006700Y-60112819D01*
X137911462Y-60065200D01*
X137673366Y-60065200D01*
X137578128Y-60112819D01*
X137530509Y-60160438D01*
X137482890Y-60255676D01*
X137482890Y-60493771D01*
X137530509Y-60589009D01*
X137578128Y-60636628D01*
X137673366Y-60684247D01*
X137911462Y-60684247D01*
X138006700Y-60636628D01*
X138054319Y-60589009D01*
%TO.C,C2*%
X147059051Y-94879009D02*
X147106670Y-94926628D01*
X147249527Y-94974247D01*
X147344765Y-94974247D01*
X147487623Y-94926628D01*
X147582861Y-94831390D01*
X147630480Y-94736152D01*
X147678099Y-94545676D01*
X147678099Y-94402819D01*
X147630480Y-94212343D01*
X147582861Y-94117105D01*
X147487623Y-94021867D01*
X147344765Y-93974247D01*
X147249527Y-93974247D01*
X147106670Y-94021867D01*
X147059051Y-94069486D01*
X146678099Y-94069486D02*
X146630480Y-94021867D01*
X146535242Y-93974247D01*
X146297146Y-93974247D01*
X146201908Y-94021867D01*
X146154289Y-94069486D01*
X146106670Y-94164724D01*
X146106670Y-94259962D01*
X146154289Y-94402819D01*
X146725718Y-94974247D01*
X146106670Y-94974247D01*
%TO.C,C4*%
X162273747Y-65186409D02*
X162321366Y-65234028D01*
X162464223Y-65281647D01*
X162559461Y-65281647D01*
X162702319Y-65234028D01*
X162797557Y-65138790D01*
X162845176Y-65043552D01*
X162892795Y-64853076D01*
X162892795Y-64710219D01*
X162845176Y-64519743D01*
X162797557Y-64424505D01*
X162702319Y-64329267D01*
X162559461Y-64281647D01*
X162464223Y-64281647D01*
X162321366Y-64329267D01*
X162273747Y-64376886D01*
X161416604Y-64614981D02*
X161416604Y-65281647D01*
X161654700Y-64234028D02*
X161892795Y-64948314D01*
X161273747Y-64948314D01*
%TO.C,C3*%
X240049155Y-92135809D02*
X240096774Y-92183428D01*
X240239631Y-92231047D01*
X240334869Y-92231047D01*
X240477727Y-92183428D01*
X240572965Y-92088190D01*
X240620584Y-91992952D01*
X240668203Y-91802476D01*
X240668203Y-91659619D01*
X240620584Y-91469143D01*
X240572965Y-91373905D01*
X240477727Y-91278667D01*
X240334869Y-91231047D01*
X240239631Y-91231047D01*
X240096774Y-91278667D01*
X240049155Y-91326286D01*
X239715822Y-91231047D02*
X239096774Y-91231047D01*
X239430108Y-91612000D01*
X239287250Y-91612000D01*
X239192012Y-91659619D01*
X239144393Y-91707238D01*
X239096774Y-91802476D01*
X239096774Y-92040571D01*
X239144393Y-92135809D01*
X239192012Y-92183428D01*
X239287250Y-92231047D01*
X239572965Y-92231047D01*
X239668203Y-92183428D01*
X239715822Y-92135809D01*
%TO.C,R6*%
X200412679Y-94999647D02*
X200746013Y-94523457D01*
X200984108Y-94999647D02*
X200984108Y-93999647D01*
X200603155Y-93999647D01*
X200507917Y-94047267D01*
X200460298Y-94094886D01*
X200412679Y-94190124D01*
X200412679Y-94332981D01*
X200460298Y-94428219D01*
X200507917Y-94475838D01*
X200603155Y-94523457D01*
X200984108Y-94523457D01*
X199555536Y-93999647D02*
X199746013Y-93999647D01*
X199841251Y-94047267D01*
X199888870Y-94094886D01*
X199984108Y-94237743D01*
X200031727Y-94428219D01*
X200031727Y-94809171D01*
X199984108Y-94904409D01*
X199936489Y-94952028D01*
X199841251Y-94999647D01*
X199650774Y-94999647D01*
X199555536Y-94952028D01*
X199507917Y-94904409D01*
X199460298Y-94809171D01*
X199460298Y-94571076D01*
X199507917Y-94475838D01*
X199555536Y-94428219D01*
X199650774Y-94380600D01*
X199841251Y-94380600D01*
X199936489Y-94428219D01*
X199984108Y-94475838D01*
X200031727Y-94571076D01*
%TO.C,C2*%
X123208275Y-94879009D02*
X123255894Y-94926628D01*
X123398751Y-94974247D01*
X123493989Y-94974247D01*
X123636847Y-94926628D01*
X123732085Y-94831390D01*
X123779704Y-94736152D01*
X123827323Y-94545676D01*
X123827323Y-94402819D01*
X123779704Y-94212343D01*
X123732085Y-94117105D01*
X123636847Y-94021867D01*
X123493989Y-93974247D01*
X123398751Y-93974247D01*
X123255894Y-94021867D01*
X123208275Y-94069486D01*
X122827323Y-94069486D02*
X122779704Y-94021867D01*
X122684466Y-93974247D01*
X122446370Y-93974247D01*
X122351132Y-94021867D01*
X122303513Y-94069486D01*
X122255894Y-94164724D01*
X122255894Y-94259962D01*
X122303513Y-94402819D01*
X122874942Y-94974247D01*
X122255894Y-94974247D01*
%TO.C,C3*%
X128948771Y-74330409D02*
X128996390Y-74378028D01*
X129139247Y-74425647D01*
X129234485Y-74425647D01*
X129377343Y-74378028D01*
X129472581Y-74282790D01*
X129520200Y-74187552D01*
X129567819Y-73997076D01*
X129567819Y-73854219D01*
X129520200Y-73663743D01*
X129472581Y-73568505D01*
X129377343Y-73473267D01*
X129234485Y-73425647D01*
X129139247Y-73425647D01*
X128996390Y-73473267D01*
X128948771Y-73520886D01*
X128615438Y-73425647D02*
X127996390Y-73425647D01*
X128329724Y-73806600D01*
X128186866Y-73806600D01*
X128091628Y-73854219D01*
X128044009Y-73901838D01*
X127996390Y-73997076D01*
X127996390Y-74235171D01*
X128044009Y-74330409D01*
X128091628Y-74378028D01*
X128186866Y-74425647D01*
X128472581Y-74425647D01*
X128567819Y-74378028D01*
X128615438Y-74330409D01*
%TO.C,C5*%
X66882943Y-60589009D02*
X66930562Y-60636628D01*
X67073419Y-60684247D01*
X67168657Y-60684247D01*
X67311515Y-60636628D01*
X67406753Y-60541390D01*
X67454372Y-60446152D01*
X67501991Y-60255676D01*
X67501991Y-60112819D01*
X67454372Y-59922343D01*
X67406753Y-59827105D01*
X67311515Y-59731867D01*
X67168657Y-59684247D01*
X67073419Y-59684247D01*
X66930562Y-59731867D01*
X66882943Y-59779486D01*
X65978181Y-59684247D02*
X66454372Y-59684247D01*
X66501991Y-60160438D01*
X66454372Y-60112819D01*
X66359134Y-60065200D01*
X66121038Y-60065200D01*
X66025800Y-60112819D01*
X65978181Y-60160438D01*
X65930562Y-60255676D01*
X65930562Y-60493771D01*
X65978181Y-60589009D01*
X66025800Y-60636628D01*
X66121038Y-60684247D01*
X66359134Y-60684247D01*
X66454372Y-60636628D01*
X66501991Y-60589009D01*
%TO.C,C4*%
X114572195Y-65186409D02*
X114619814Y-65234028D01*
X114762671Y-65281647D01*
X114857909Y-65281647D01*
X115000767Y-65234028D01*
X115096005Y-65138790D01*
X115143624Y-65043552D01*
X115191243Y-64853076D01*
X115191243Y-64710219D01*
X115143624Y-64519743D01*
X115096005Y-64424505D01*
X115000767Y-64329267D01*
X114857909Y-64281647D01*
X114762671Y-64281647D01*
X114619814Y-64329267D01*
X114572195Y-64376886D01*
X113715052Y-64614981D02*
X113715052Y-65281647D01*
X113953148Y-64234028D02*
X114191243Y-64948314D01*
X113572195Y-64948314D01*
%TO.C,C5*%
X159010327Y-105877209D02*
X159057946Y-105924828D01*
X159200803Y-105972447D01*
X159296041Y-105972447D01*
X159438899Y-105924828D01*
X159534137Y-105829590D01*
X159581756Y-105734352D01*
X159629375Y-105543876D01*
X159629375Y-105401019D01*
X159581756Y-105210543D01*
X159534137Y-105115305D01*
X159438899Y-105020067D01*
X159296041Y-104972447D01*
X159200803Y-104972447D01*
X159057946Y-105020067D01*
X159010327Y-105067686D01*
X158105565Y-104972447D02*
X158581756Y-104972447D01*
X158629375Y-105448638D01*
X158581756Y-105401019D01*
X158486518Y-105353400D01*
X158248422Y-105353400D01*
X158153184Y-105401019D01*
X158105565Y-105448638D01*
X158057946Y-105543876D01*
X158057946Y-105781971D01*
X158105565Y-105877209D01*
X158153184Y-105924828D01*
X158248422Y-105972447D01*
X158486518Y-105972447D01*
X158581756Y-105924828D01*
X158629375Y-105877209D01*
%TO.C,C4*%
X159022627Y-101279809D02*
X159070246Y-101327428D01*
X159213103Y-101375047D01*
X159308341Y-101375047D01*
X159451199Y-101327428D01*
X159546437Y-101232190D01*
X159594056Y-101136952D01*
X159641675Y-100946476D01*
X159641675Y-100803619D01*
X159594056Y-100613143D01*
X159546437Y-100517905D01*
X159451199Y-100422667D01*
X159308341Y-100375047D01*
X159213103Y-100375047D01*
X159070246Y-100422667D01*
X159022627Y-100470286D01*
X158165484Y-100708381D02*
X158165484Y-101375047D01*
X158403580Y-100327428D02*
X158641675Y-101041714D01*
X158022627Y-101041714D01*
%TO.C,R6*%
X176561903Y-94999647D02*
X176895237Y-94523457D01*
X177133332Y-94999647D02*
X177133332Y-93999647D01*
X176752379Y-93999647D01*
X176657141Y-94047267D01*
X176609522Y-94094886D01*
X176561903Y-94190124D01*
X176561903Y-94332981D01*
X176609522Y-94428219D01*
X176657141Y-94475838D01*
X176752379Y-94523457D01*
X177133332Y-94523457D01*
X175704760Y-93999647D02*
X175895237Y-93999647D01*
X175990475Y-94047267D01*
X176038094Y-94094886D01*
X176133332Y-94237743D01*
X176180951Y-94428219D01*
X176180951Y-94809171D01*
X176133332Y-94904409D01*
X176085713Y-94952028D01*
X175990475Y-94999647D01*
X175799998Y-94999647D01*
X175704760Y-94952028D01*
X175657141Y-94904409D01*
X175609522Y-94809171D01*
X175609522Y-94571076D01*
X175657141Y-94475838D01*
X175704760Y-94428219D01*
X175799998Y-94380600D01*
X175990475Y-94380600D01*
X176085713Y-94428219D01*
X176133332Y-94475838D01*
X176180951Y-94571076D01*
%TO.C,C4*%
X135171851Y-101279809D02*
X135219470Y-101327428D01*
X135362327Y-101375047D01*
X135457565Y-101375047D01*
X135600423Y-101327428D01*
X135695661Y-101232190D01*
X135743280Y-101136952D01*
X135790899Y-100946476D01*
X135790899Y-100803619D01*
X135743280Y-100613143D01*
X135695661Y-100517905D01*
X135600423Y-100422667D01*
X135457565Y-100375047D01*
X135362327Y-100375047D01*
X135219470Y-100422667D01*
X135171851Y-100470286D01*
X134314708Y-100708381D02*
X134314708Y-101375047D01*
X134552804Y-100327428D02*
X134790899Y-101041714D01*
X134171851Y-101041714D01*
%TO.C,C2*%
X99357499Y-94879009D02*
X99405118Y-94926628D01*
X99547975Y-94974247D01*
X99643213Y-94974247D01*
X99786071Y-94926628D01*
X99881309Y-94831390D01*
X99928928Y-94736152D01*
X99976547Y-94545676D01*
X99976547Y-94402819D01*
X99928928Y-94212343D01*
X99881309Y-94117105D01*
X99786071Y-94021867D01*
X99643213Y-93974247D01*
X99547975Y-93974247D01*
X99405118Y-94021867D01*
X99357499Y-94069486D01*
X98976547Y-94069486D02*
X98928928Y-94021867D01*
X98833690Y-93974247D01*
X98595594Y-93974247D01*
X98500356Y-94021867D01*
X98452737Y-94069486D01*
X98405118Y-94164724D01*
X98405118Y-94259962D01*
X98452737Y-94402819D01*
X99024166Y-94974247D01*
X98405118Y-94974247D01*
%TO.C,C3*%
X81247219Y-74330409D02*
X81294838Y-74378028D01*
X81437695Y-74425647D01*
X81532933Y-74425647D01*
X81675791Y-74378028D01*
X81771029Y-74282790D01*
X81818648Y-74187552D01*
X81866267Y-73997076D01*
X81866267Y-73854219D01*
X81818648Y-73663743D01*
X81771029Y-73568505D01*
X81675791Y-73473267D01*
X81532933Y-73425647D01*
X81437695Y-73425647D01*
X81294838Y-73473267D01*
X81247219Y-73520886D01*
X80913886Y-73425647D02*
X80294838Y-73425647D01*
X80628172Y-73806600D01*
X80485314Y-73806600D01*
X80390076Y-73854219D01*
X80342457Y-73901838D01*
X80294838Y-73997076D01*
X80294838Y-74235171D01*
X80342457Y-74330409D01*
X80390076Y-74378028D01*
X80485314Y-74425647D01*
X80771029Y-74425647D01*
X80866267Y-74378028D01*
X80913886Y-74330409D01*
%TO.C,C2*%
X150386547Y-71587209D02*
X150434166Y-71634828D01*
X150577023Y-71682447D01*
X150672261Y-71682447D01*
X150815119Y-71634828D01*
X150910357Y-71539590D01*
X150957976Y-71444352D01*
X151005595Y-71253876D01*
X151005595Y-71111019D01*
X150957976Y-70920543D01*
X150910357Y-70825305D01*
X150815119Y-70730067D01*
X150672261Y-70682447D01*
X150577023Y-70682447D01*
X150434166Y-70730067D01*
X150386547Y-70777686D01*
X150005595Y-70777686D02*
X149957976Y-70730067D01*
X149862738Y-70682447D01*
X149624642Y-70682447D01*
X149529404Y-70730067D01*
X149481785Y-70777686D01*
X149434166Y-70872924D01*
X149434166Y-70968162D01*
X149481785Y-71111019D01*
X150053214Y-71682447D01*
X149434166Y-71682447D01*
%TO.C,C5*%
X209987599Y-60589009D02*
X210035218Y-60636628D01*
X210178075Y-60684247D01*
X210273313Y-60684247D01*
X210416171Y-60636628D01*
X210511409Y-60541390D01*
X210559028Y-60446152D01*
X210606647Y-60255676D01*
X210606647Y-60112819D01*
X210559028Y-59922343D01*
X210511409Y-59827105D01*
X210416171Y-59731867D01*
X210273313Y-59684247D01*
X210178075Y-59684247D01*
X210035218Y-59731867D01*
X209987599Y-59779486D01*
X209082837Y-59684247D02*
X209559028Y-59684247D01*
X209606647Y-60160438D01*
X209559028Y-60112819D01*
X209463790Y-60065200D01*
X209225694Y-60065200D01*
X209130456Y-60112819D01*
X209082837Y-60160438D01*
X209035218Y-60255676D01*
X209035218Y-60493771D01*
X209082837Y-60589009D01*
X209130456Y-60636628D01*
X209225694Y-60684247D01*
X209463790Y-60684247D01*
X209559028Y-60636628D01*
X209606647Y-60589009D01*
%TO.C,C2*%
X221938875Y-71587209D02*
X221986494Y-71634828D01*
X222129351Y-71682447D01*
X222224589Y-71682447D01*
X222367447Y-71634828D01*
X222462685Y-71539590D01*
X222510304Y-71444352D01*
X222557923Y-71253876D01*
X222557923Y-71111019D01*
X222510304Y-70920543D01*
X222462685Y-70825305D01*
X222367447Y-70730067D01*
X222224589Y-70682447D01*
X222129351Y-70682447D01*
X221986494Y-70730067D01*
X221938875Y-70777686D01*
X221557923Y-70777686D02*
X221510304Y-70730067D01*
X221415066Y-70682447D01*
X221176970Y-70682447D01*
X221081732Y-70730067D01*
X221034113Y-70777686D01*
X220986494Y-70872924D01*
X220986494Y-70968162D01*
X221034113Y-71111019D01*
X221605542Y-71682447D01*
X220986494Y-71682447D01*
%TO.C,R6*%
X224263455Y-94999647D02*
X224596789Y-94523457D01*
X224834884Y-94999647D02*
X224834884Y-93999647D01*
X224453931Y-93999647D01*
X224358693Y-94047267D01*
X224311074Y-94094886D01*
X224263455Y-94190124D01*
X224263455Y-94332981D01*
X224311074Y-94428219D01*
X224358693Y-94475838D01*
X224453931Y-94523457D01*
X224834884Y-94523457D01*
X223406312Y-93999647D02*
X223596789Y-93999647D01*
X223692027Y-94047267D01*
X223739646Y-94094886D01*
X223834884Y-94237743D01*
X223882503Y-94428219D01*
X223882503Y-94809171D01*
X223834884Y-94904409D01*
X223787265Y-94952028D01*
X223692027Y-94999647D01*
X223501550Y-94999647D01*
X223406312Y-94952028D01*
X223358693Y-94904409D01*
X223311074Y-94809171D01*
X223311074Y-94571076D01*
X223358693Y-94475838D01*
X223406312Y-94428219D01*
X223501550Y-94380600D01*
X223692027Y-94380600D01*
X223787265Y-94428219D01*
X223834884Y-94475838D01*
X223882503Y-94571076D01*
%TO.C,C5*%
X63607223Y-105877209D02*
X63654842Y-105924828D01*
X63797699Y-105972447D01*
X63892937Y-105972447D01*
X64035795Y-105924828D01*
X64131033Y-105829590D01*
X64178652Y-105734352D01*
X64226271Y-105543876D01*
X64226271Y-105401019D01*
X64178652Y-105210543D01*
X64131033Y-105115305D01*
X64035795Y-105020067D01*
X63892937Y-104972447D01*
X63797699Y-104972447D01*
X63654842Y-105020067D01*
X63607223Y-105067686D01*
X62702461Y-104972447D02*
X63178652Y-104972447D01*
X63226271Y-105448638D01*
X63178652Y-105401019D01*
X63083414Y-105353400D01*
X62845318Y-105353400D01*
X62750080Y-105401019D01*
X62702461Y-105448638D01*
X62654842Y-105543876D01*
X62654842Y-105781971D01*
X62702461Y-105877209D01*
X62750080Y-105924828D01*
X62845318Y-105972447D01*
X63083414Y-105972447D01*
X63178652Y-105924828D01*
X63226271Y-105877209D01*
%TO.C,R6*%
X73182143Y-71657047D02*
X73515477Y-71180857D01*
X73753572Y-71657047D02*
X73753572Y-70657047D01*
X73372619Y-70657047D01*
X73277381Y-70704667D01*
X73229762Y-70752286D01*
X73182143Y-70847524D01*
X73182143Y-70990381D01*
X73229762Y-71085619D01*
X73277381Y-71133238D01*
X73372619Y-71180857D01*
X73753572Y-71180857D01*
X72325000Y-70657047D02*
X72515477Y-70657047D01*
X72610715Y-70704667D01*
X72658334Y-70752286D01*
X72753572Y-70895143D01*
X72801191Y-71085619D01*
X72801191Y-71466571D01*
X72753572Y-71561809D01*
X72705953Y-71609428D01*
X72610715Y-71657047D01*
X72420238Y-71657047D01*
X72325000Y-71609428D01*
X72277381Y-71561809D01*
X72229762Y-71466571D01*
X72229762Y-71228476D01*
X72277381Y-71133238D01*
X72325000Y-71085619D01*
X72420238Y-71038000D01*
X72610715Y-71038000D01*
X72705953Y-71085619D01*
X72753572Y-71133238D01*
X72801191Y-71228476D01*
%TO.C,C2*%
X194760603Y-94879009D02*
X194808222Y-94926628D01*
X194951079Y-94974247D01*
X195046317Y-94974247D01*
X195189175Y-94926628D01*
X195284413Y-94831390D01*
X195332032Y-94736152D01*
X195379651Y-94545676D01*
X195379651Y-94402819D01*
X195332032Y-94212343D01*
X195284413Y-94117105D01*
X195189175Y-94021867D01*
X195046317Y-93974247D01*
X194951079Y-93974247D01*
X194808222Y-94021867D01*
X194760603Y-94069486D01*
X194379651Y-94069486D02*
X194332032Y-94021867D01*
X194236794Y-93974247D01*
X193998698Y-93974247D01*
X193903460Y-94021867D01*
X193855841Y-94069486D01*
X193808222Y-94164724D01*
X193808222Y-94259962D01*
X193855841Y-94402819D01*
X194427270Y-94974247D01*
X193808222Y-94974247D01*
%TO.C,R6*%
X168585247Y-71657047D02*
X168918581Y-71180857D01*
X169156676Y-71657047D02*
X169156676Y-70657047D01*
X168775723Y-70657047D01*
X168680485Y-70704667D01*
X168632866Y-70752286D01*
X168585247Y-70847524D01*
X168585247Y-70990381D01*
X168632866Y-71085619D01*
X168680485Y-71133238D01*
X168775723Y-71180857D01*
X169156676Y-71180857D01*
X167728104Y-70657047D02*
X167918581Y-70657047D01*
X168013819Y-70704667D01*
X168061438Y-70752286D01*
X168156676Y-70895143D01*
X168204295Y-71085619D01*
X168204295Y-71466571D01*
X168156676Y-71561809D01*
X168109057Y-71609428D01*
X168013819Y-71657047D01*
X167823342Y-71657047D01*
X167728104Y-71609428D01*
X167680485Y-71561809D01*
X167632866Y-71466571D01*
X167632866Y-71228476D01*
X167680485Y-71133238D01*
X167728104Y-71085619D01*
X167823342Y-71038000D01*
X168013819Y-71038000D01*
X168109057Y-71085619D01*
X168156676Y-71133238D01*
X168204295Y-71228476D01*
X128860351Y-94999647D02*
X129193685Y-94523457D01*
X129431780Y-94999647D02*
X129431780Y-93999647D01*
X129050827Y-93999647D01*
X128955589Y-94047267D01*
X128907970Y-94094886D01*
X128860351Y-94190124D01*
X128860351Y-94332981D01*
X128907970Y-94428219D01*
X128955589Y-94475838D01*
X129050827Y-94523457D01*
X129431780Y-94523457D01*
X128003208Y-93999647D02*
X128193685Y-93999647D01*
X128288923Y-94047267D01*
X128336542Y-94094886D01*
X128431780Y-94237743D01*
X128479399Y-94428219D01*
X128479399Y-94809171D01*
X128431780Y-94904409D01*
X128384161Y-94952028D01*
X128288923Y-94999647D01*
X128098446Y-94999647D01*
X128003208Y-94952028D01*
X127955589Y-94904409D01*
X127907970Y-94809171D01*
X127907970Y-94571076D01*
X127955589Y-94475838D01*
X128003208Y-94428219D01*
X128098446Y-94380600D01*
X128288923Y-94380600D01*
X128384161Y-94428219D01*
X128431780Y-94475838D01*
X128479399Y-94571076D01*
%TO.C,C5*%
X206711879Y-105877209D02*
X206759498Y-105924828D01*
X206902355Y-105972447D01*
X206997593Y-105972447D01*
X207140451Y-105924828D01*
X207235689Y-105829590D01*
X207283308Y-105734352D01*
X207330927Y-105543876D01*
X207330927Y-105401019D01*
X207283308Y-105210543D01*
X207235689Y-105115305D01*
X207140451Y-105020067D01*
X206997593Y-104972447D01*
X206902355Y-104972447D01*
X206759498Y-105020067D01*
X206711879Y-105067686D01*
X205807117Y-104972447D02*
X206283308Y-104972447D01*
X206330927Y-105448638D01*
X206283308Y-105401019D01*
X206188070Y-105353400D01*
X205949974Y-105353400D01*
X205854736Y-105401019D01*
X205807117Y-105448638D01*
X205759498Y-105543876D01*
X205759498Y-105781971D01*
X205807117Y-105877209D01*
X205854736Y-105924828D01*
X205949974Y-105972447D01*
X206188070Y-105972447D01*
X206283308Y-105924828D01*
X206330927Y-105877209D01*
%TO.C,C3*%
X168496827Y-92135809D02*
X168544446Y-92183428D01*
X168687303Y-92231047D01*
X168782541Y-92231047D01*
X168925399Y-92183428D01*
X169020637Y-92088190D01*
X169068256Y-91992952D01*
X169115875Y-91802476D01*
X169115875Y-91659619D01*
X169068256Y-91469143D01*
X169020637Y-91373905D01*
X168925399Y-91278667D01*
X168782541Y-91231047D01*
X168687303Y-91231047D01*
X168544446Y-91278667D01*
X168496827Y-91326286D01*
X168163494Y-91231047D02*
X167544446Y-91231047D01*
X167877780Y-91612000D01*
X167734922Y-91612000D01*
X167639684Y-91659619D01*
X167592065Y-91707238D01*
X167544446Y-91802476D01*
X167544446Y-92040571D01*
X167592065Y-92135809D01*
X167639684Y-92183428D01*
X167734922Y-92231047D01*
X168020637Y-92231047D01*
X168115875Y-92183428D01*
X168163494Y-92135809D01*
%TO.C,R6*%
X81158799Y-94999647D02*
X81492133Y-94523457D01*
X81730228Y-94999647D02*
X81730228Y-93999647D01*
X81349275Y-93999647D01*
X81254037Y-94047267D01*
X81206418Y-94094886D01*
X81158799Y-94190124D01*
X81158799Y-94332981D01*
X81206418Y-94428219D01*
X81254037Y-94475838D01*
X81349275Y-94523457D01*
X81730228Y-94523457D01*
X80301656Y-93999647D02*
X80492133Y-93999647D01*
X80587371Y-94047267D01*
X80634990Y-94094886D01*
X80730228Y-94237743D01*
X80777847Y-94428219D01*
X80777847Y-94809171D01*
X80730228Y-94904409D01*
X80682609Y-94952028D01*
X80587371Y-94999647D01*
X80396894Y-94999647D01*
X80301656Y-94952028D01*
X80254037Y-94904409D01*
X80206418Y-94809171D01*
X80206418Y-94571076D01*
X80254037Y-94475838D01*
X80301656Y-94428219D01*
X80396894Y-94380600D01*
X80587371Y-94380600D01*
X80682609Y-94428219D01*
X80730228Y-94475838D01*
X80777847Y-94571076D01*
%TO.C,C5*%
X114584495Y-60589009D02*
X114632114Y-60636628D01*
X114774971Y-60684247D01*
X114870209Y-60684247D01*
X115013067Y-60636628D01*
X115108305Y-60541390D01*
X115155924Y-60446152D01*
X115203543Y-60255676D01*
X115203543Y-60112819D01*
X115155924Y-59922343D01*
X115108305Y-59827105D01*
X115013067Y-59731867D01*
X114870209Y-59684247D01*
X114774971Y-59684247D01*
X114632114Y-59731867D01*
X114584495Y-59779486D01*
X113679733Y-59684247D02*
X114155924Y-59684247D01*
X114203543Y-60160438D01*
X114155924Y-60112819D01*
X114060686Y-60065200D01*
X113822590Y-60065200D01*
X113727352Y-60112819D01*
X113679733Y-60160438D01*
X113632114Y-60255676D01*
X113632114Y-60493771D01*
X113679733Y-60589009D01*
X113727352Y-60636628D01*
X113822590Y-60684247D01*
X114060686Y-60684247D01*
X114155924Y-60636628D01*
X114203543Y-60589009D01*
X87457999Y-105877209D02*
X87505618Y-105924828D01*
X87648475Y-105972447D01*
X87743713Y-105972447D01*
X87886571Y-105924828D01*
X87981809Y-105829590D01*
X88029428Y-105734352D01*
X88077047Y-105543876D01*
X88077047Y-105401019D01*
X88029428Y-105210543D01*
X87981809Y-105115305D01*
X87886571Y-105020067D01*
X87743713Y-104972447D01*
X87648475Y-104972447D01*
X87505618Y-105020067D01*
X87457999Y-105067686D01*
X86553237Y-104972447D02*
X87029428Y-104972447D01*
X87077047Y-105448638D01*
X87029428Y-105401019D01*
X86934190Y-105353400D01*
X86696094Y-105353400D01*
X86600856Y-105401019D01*
X86553237Y-105448638D01*
X86505618Y-105543876D01*
X86505618Y-105781971D01*
X86553237Y-105877209D01*
X86600856Y-105924828D01*
X86696094Y-105972447D01*
X86934190Y-105972447D01*
X87029428Y-105924828D01*
X87077047Y-105877209D01*
%TO.C,C4*%
X209975299Y-65186409D02*
X210022918Y-65234028D01*
X210165775Y-65281647D01*
X210261013Y-65281647D01*
X210403871Y-65234028D01*
X210499109Y-65138790D01*
X210546728Y-65043552D01*
X210594347Y-64853076D01*
X210594347Y-64710219D01*
X210546728Y-64519743D01*
X210499109Y-64424505D01*
X210403871Y-64329267D01*
X210261013Y-64281647D01*
X210165775Y-64281647D01*
X210022918Y-64329267D01*
X209975299Y-64376886D01*
X209118156Y-64614981D02*
X209118156Y-65281647D01*
X209356252Y-64234028D02*
X209594347Y-64948314D01*
X208975299Y-64948314D01*
X90721419Y-65186409D02*
X90769038Y-65234028D01*
X90911895Y-65281647D01*
X91007133Y-65281647D01*
X91149991Y-65234028D01*
X91245229Y-65138790D01*
X91292848Y-65043552D01*
X91340467Y-64853076D01*
X91340467Y-64710219D01*
X91292848Y-64519743D01*
X91245229Y-64424505D01*
X91149991Y-64329267D01*
X91007133Y-64281647D01*
X90911895Y-64281647D01*
X90769038Y-64329267D01*
X90721419Y-64376886D01*
X89864276Y-64614981D02*
X89864276Y-65281647D01*
X90102372Y-64234028D02*
X90340467Y-64948314D01*
X89721419Y-64948314D01*
%TO.C,C2*%
X102684995Y-71587209D02*
X102732614Y-71634828D01*
X102875471Y-71682447D01*
X102970709Y-71682447D01*
X103113567Y-71634828D01*
X103208805Y-71539590D01*
X103256424Y-71444352D01*
X103304043Y-71253876D01*
X103304043Y-71111019D01*
X103256424Y-70920543D01*
X103208805Y-70825305D01*
X103113567Y-70730067D01*
X102970709Y-70682447D01*
X102875471Y-70682447D01*
X102732614Y-70730067D01*
X102684995Y-70777686D01*
X102304043Y-70777686D02*
X102256424Y-70730067D01*
X102161186Y-70682447D01*
X101923090Y-70682447D01*
X101827852Y-70730067D01*
X101780233Y-70777686D01*
X101732614Y-70872924D01*
X101732614Y-70968162D01*
X101780233Y-71111019D01*
X102351662Y-71682447D01*
X101732614Y-71682447D01*
%TO.C,R6*%
X105009575Y-94999647D02*
X105342909Y-94523457D01*
X105581004Y-94999647D02*
X105581004Y-93999647D01*
X105200051Y-93999647D01*
X105104813Y-94047267D01*
X105057194Y-94094886D01*
X105009575Y-94190124D01*
X105009575Y-94332981D01*
X105057194Y-94428219D01*
X105104813Y-94475838D01*
X105200051Y-94523457D01*
X105581004Y-94523457D01*
X104152432Y-93999647D02*
X104342909Y-93999647D01*
X104438147Y-94047267D01*
X104485766Y-94094886D01*
X104581004Y-94237743D01*
X104628623Y-94428219D01*
X104628623Y-94809171D01*
X104581004Y-94904409D01*
X104533385Y-94952028D01*
X104438147Y-94999647D01*
X104247670Y-94999647D01*
X104152432Y-94952028D01*
X104104813Y-94904409D01*
X104057194Y-94809171D01*
X104057194Y-94571076D01*
X104104813Y-94475838D01*
X104152432Y-94428219D01*
X104247670Y-94380600D01*
X104438147Y-94380600D01*
X104533385Y-94428219D01*
X104581004Y-94475838D01*
X104628623Y-94571076D01*
%TO.C,C4*%
X230574955Y-101279809D02*
X230622574Y-101327428D01*
X230765431Y-101375047D01*
X230860669Y-101375047D01*
X231003527Y-101327428D01*
X231098765Y-101232190D01*
X231146384Y-101136952D01*
X231194003Y-100946476D01*
X231194003Y-100803619D01*
X231146384Y-100613143D01*
X231098765Y-100517905D01*
X231003527Y-100422667D01*
X230860669Y-100375047D01*
X230765431Y-100375047D01*
X230622574Y-100422667D01*
X230574955Y-100470286D01*
X229717812Y-100708381D02*
X229717812Y-101375047D01*
X229955908Y-100327428D02*
X230194003Y-101041714D01*
X229574955Y-101041714D01*
%TO.C,C5*%
X111308775Y-105877209D02*
X111356394Y-105924828D01*
X111499251Y-105972447D01*
X111594489Y-105972447D01*
X111737347Y-105924828D01*
X111832585Y-105829590D01*
X111880204Y-105734352D01*
X111927823Y-105543876D01*
X111927823Y-105401019D01*
X111880204Y-105210543D01*
X111832585Y-105115305D01*
X111737347Y-105020067D01*
X111594489Y-104972447D01*
X111499251Y-104972447D01*
X111356394Y-105020067D01*
X111308775Y-105067686D01*
X110404013Y-104972447D02*
X110880204Y-104972447D01*
X110927823Y-105448638D01*
X110880204Y-105401019D01*
X110784966Y-105353400D01*
X110546870Y-105353400D01*
X110451632Y-105401019D01*
X110404013Y-105448638D01*
X110356394Y-105543876D01*
X110356394Y-105781971D01*
X110404013Y-105877209D01*
X110451632Y-105924828D01*
X110546870Y-105972447D01*
X110784966Y-105972447D01*
X110880204Y-105924828D01*
X110927823Y-105877209D01*
X233838375Y-60589009D02*
X233885994Y-60636628D01*
X234028851Y-60684247D01*
X234124089Y-60684247D01*
X234266947Y-60636628D01*
X234362185Y-60541390D01*
X234409804Y-60446152D01*
X234457423Y-60255676D01*
X234457423Y-60112819D01*
X234409804Y-59922343D01*
X234362185Y-59827105D01*
X234266947Y-59731867D01*
X234124089Y-59684247D01*
X234028851Y-59684247D01*
X233885994Y-59731867D01*
X233838375Y-59779486D01*
X232933613Y-59684247D02*
X233409804Y-59684247D01*
X233457423Y-60160438D01*
X233409804Y-60112819D01*
X233314566Y-60065200D01*
X233076470Y-60065200D01*
X232981232Y-60112819D01*
X232933613Y-60160438D01*
X232885994Y-60255676D01*
X232885994Y-60493771D01*
X232933613Y-60589009D01*
X232981232Y-60636628D01*
X233076470Y-60684247D01*
X233314566Y-60684247D01*
X233409804Y-60636628D01*
X233457423Y-60589009D01*
%TO.C,C4*%
X206724179Y-101279809D02*
X206771798Y-101327428D01*
X206914655Y-101375047D01*
X207009893Y-101375047D01*
X207152751Y-101327428D01*
X207247989Y-101232190D01*
X207295608Y-101136952D01*
X207343227Y-100946476D01*
X207343227Y-100803619D01*
X207295608Y-100613143D01*
X207247989Y-100517905D01*
X207152751Y-100422667D01*
X207009893Y-100375047D01*
X206914655Y-100375047D01*
X206771798Y-100422667D01*
X206724179Y-100470286D01*
X205867036Y-100708381D02*
X205867036Y-101375047D01*
X206105132Y-100327428D02*
X206343227Y-101041714D01*
X205724179Y-101041714D01*
%TO.C,C3*%
X120795275Y-92135809D02*
X120842894Y-92183428D01*
X120985751Y-92231047D01*
X121080989Y-92231047D01*
X121223847Y-92183428D01*
X121319085Y-92088190D01*
X121366704Y-91992952D01*
X121414323Y-91802476D01*
X121414323Y-91659619D01*
X121366704Y-91469143D01*
X121319085Y-91373905D01*
X121223847Y-91278667D01*
X121080989Y-91231047D01*
X120985751Y-91231047D01*
X120842894Y-91278667D01*
X120795275Y-91326286D01*
X120461942Y-91231047D02*
X119842894Y-91231047D01*
X120176228Y-91612000D01*
X120033370Y-91612000D01*
X119938132Y-91659619D01*
X119890513Y-91707238D01*
X119842894Y-91802476D01*
X119842894Y-92040571D01*
X119890513Y-92135809D01*
X119938132Y-92183428D01*
X120033370Y-92231047D01*
X120319085Y-92231047D01*
X120414323Y-92183428D01*
X120461942Y-92135809D01*
%TO.C,C5*%
X135159551Y-105877209D02*
X135207170Y-105924828D01*
X135350027Y-105972447D01*
X135445265Y-105972447D01*
X135588123Y-105924828D01*
X135683361Y-105829590D01*
X135730980Y-105734352D01*
X135778599Y-105543876D01*
X135778599Y-105401019D01*
X135730980Y-105210543D01*
X135683361Y-105115305D01*
X135588123Y-105020067D01*
X135445265Y-104972447D01*
X135350027Y-104972447D01*
X135207170Y-105020067D01*
X135159551Y-105067686D01*
X134254789Y-104972447D02*
X134730980Y-104972447D01*
X134778599Y-105448638D01*
X134730980Y-105401019D01*
X134635742Y-105353400D01*
X134397646Y-105353400D01*
X134302408Y-105401019D01*
X134254789Y-105448638D01*
X134207170Y-105543876D01*
X134207170Y-105781971D01*
X134254789Y-105877209D01*
X134302408Y-105924828D01*
X134397646Y-105972447D01*
X134635742Y-105972447D01*
X134730980Y-105924828D01*
X134778599Y-105877209D01*
%TO.C,C4*%
X182873403Y-101279809D02*
X182921022Y-101327428D01*
X183063879Y-101375047D01*
X183159117Y-101375047D01*
X183301975Y-101327428D01*
X183397213Y-101232190D01*
X183444832Y-101136952D01*
X183492451Y-100946476D01*
X183492451Y-100803619D01*
X183444832Y-100613143D01*
X183397213Y-100517905D01*
X183301975Y-100422667D01*
X183159117Y-100375047D01*
X183063879Y-100375047D01*
X182921022Y-100422667D01*
X182873403Y-100470286D01*
X182016260Y-100708381D02*
X182016260Y-101375047D01*
X182254356Y-100327428D02*
X182492451Y-101041714D01*
X181873403Y-101041714D01*
X233826075Y-65186409D02*
X233873694Y-65234028D01*
X234016551Y-65281647D01*
X234111789Y-65281647D01*
X234254647Y-65234028D01*
X234349885Y-65138790D01*
X234397504Y-65043552D01*
X234445123Y-64853076D01*
X234445123Y-64710219D01*
X234397504Y-64519743D01*
X234349885Y-64424505D01*
X234254647Y-64329267D01*
X234111789Y-64281647D01*
X234016551Y-64281647D01*
X233873694Y-64329267D01*
X233826075Y-64376886D01*
X232968932Y-64614981D02*
X232968932Y-65281647D01*
X233207028Y-64234028D02*
X233445123Y-64948314D01*
X232826075Y-64948314D01*
%TO.C,C3*%
X152799547Y-74330409D02*
X152847166Y-74378028D01*
X152990023Y-74425647D01*
X153085261Y-74425647D01*
X153228119Y-74378028D01*
X153323357Y-74282790D01*
X153370976Y-74187552D01*
X153418595Y-73997076D01*
X153418595Y-73854219D01*
X153370976Y-73663743D01*
X153323357Y-73568505D01*
X153228119Y-73473267D01*
X153085261Y-73425647D01*
X152990023Y-73425647D01*
X152847166Y-73473267D01*
X152799547Y-73520886D01*
X152466214Y-73425647D02*
X151847166Y-73425647D01*
X152180500Y-73806600D01*
X152037642Y-73806600D01*
X151942404Y-73854219D01*
X151894785Y-73901838D01*
X151847166Y-73997076D01*
X151847166Y-74235171D01*
X151894785Y-74330409D01*
X151942404Y-74378028D01*
X152037642Y-74425647D01*
X152323357Y-74425647D01*
X152418595Y-74378028D01*
X152466214Y-74330409D01*
%TO.C,C2*%
X78834219Y-71587209D02*
X78881838Y-71634828D01*
X79024695Y-71682447D01*
X79119933Y-71682447D01*
X79262791Y-71634828D01*
X79358029Y-71539590D01*
X79405648Y-71444352D01*
X79453267Y-71253876D01*
X79453267Y-71111019D01*
X79405648Y-70920543D01*
X79358029Y-70825305D01*
X79262791Y-70730067D01*
X79119933Y-70682447D01*
X79024695Y-70682447D01*
X78881838Y-70730067D01*
X78834219Y-70777686D01*
X78453267Y-70777686D02*
X78405648Y-70730067D01*
X78310410Y-70682447D01*
X78072314Y-70682447D01*
X77977076Y-70730067D01*
X77929457Y-70777686D01*
X77881838Y-70872924D01*
X77881838Y-70968162D01*
X77929457Y-71111019D01*
X78500886Y-71682447D01*
X77881838Y-71682447D01*
%TO.C,C4*%
X87470299Y-101279809D02*
X87517918Y-101327428D01*
X87660775Y-101375047D01*
X87756013Y-101375047D01*
X87898871Y-101327428D01*
X87994109Y-101232190D01*
X88041728Y-101136952D01*
X88089347Y-100946476D01*
X88089347Y-100803619D01*
X88041728Y-100613143D01*
X87994109Y-100517905D01*
X87898871Y-100422667D01*
X87756013Y-100375047D01*
X87660775Y-100375047D01*
X87517918Y-100422667D01*
X87470299Y-100470286D01*
X86613156Y-100708381D02*
X86613156Y-101375047D01*
X86851252Y-100327428D02*
X87089347Y-101041714D01*
X86470299Y-101041714D01*
%TO.C,R6*%
X240137575Y-71657047D02*
X240470909Y-71180857D01*
X240709004Y-71657047D02*
X240709004Y-70657047D01*
X240328051Y-70657047D01*
X240232813Y-70704667D01*
X240185194Y-70752286D01*
X240137575Y-70847524D01*
X240137575Y-70990381D01*
X240185194Y-71085619D01*
X240232813Y-71133238D01*
X240328051Y-71180857D01*
X240709004Y-71180857D01*
X239280432Y-70657047D02*
X239470909Y-70657047D01*
X239566147Y-70704667D01*
X239613766Y-70752286D01*
X239709004Y-70895143D01*
X239756623Y-71085619D01*
X239756623Y-71466571D01*
X239709004Y-71561809D01*
X239661385Y-71609428D01*
X239566147Y-71657047D01*
X239375670Y-71657047D01*
X239280432Y-71609428D01*
X239232813Y-71561809D01*
X239185194Y-71466571D01*
X239185194Y-71228476D01*
X239232813Y-71133238D01*
X239280432Y-71085619D01*
X239375670Y-71038000D01*
X239566147Y-71038000D01*
X239661385Y-71085619D01*
X239709004Y-71133238D01*
X239756623Y-71228476D01*
%TO.C,C3*%
X96944499Y-92135809D02*
X96992118Y-92183428D01*
X97134975Y-92231047D01*
X97230213Y-92231047D01*
X97373071Y-92183428D01*
X97468309Y-92088190D01*
X97515928Y-91992952D01*
X97563547Y-91802476D01*
X97563547Y-91659619D01*
X97515928Y-91469143D01*
X97468309Y-91373905D01*
X97373071Y-91278667D01*
X97230213Y-91231047D01*
X97134975Y-91231047D01*
X96992118Y-91278667D01*
X96944499Y-91326286D01*
X96611166Y-91231047D02*
X95992118Y-91231047D01*
X96325452Y-91612000D01*
X96182594Y-91612000D01*
X96087356Y-91659619D01*
X96039737Y-91707238D01*
X95992118Y-91802476D01*
X95992118Y-92040571D01*
X96039737Y-92135809D01*
X96087356Y-92183428D01*
X96182594Y-92231047D01*
X96468309Y-92231047D01*
X96563547Y-92183428D01*
X96611166Y-92135809D01*
%TO.C,R6*%
X216286799Y-71657047D02*
X216620133Y-71180857D01*
X216858228Y-71657047D02*
X216858228Y-70657047D01*
X216477275Y-70657047D01*
X216382037Y-70704667D01*
X216334418Y-70752286D01*
X216286799Y-70847524D01*
X216286799Y-70990381D01*
X216334418Y-71085619D01*
X216382037Y-71133238D01*
X216477275Y-71180857D01*
X216858228Y-71180857D01*
X215429656Y-70657047D02*
X215620133Y-70657047D01*
X215715371Y-70704667D01*
X215762990Y-70752286D01*
X215858228Y-70895143D01*
X215905847Y-71085619D01*
X215905847Y-71466571D01*
X215858228Y-71561809D01*
X215810609Y-71609428D01*
X215715371Y-71657047D01*
X215524894Y-71657047D01*
X215429656Y-71609428D01*
X215382037Y-71561809D01*
X215334418Y-71466571D01*
X215334418Y-71228476D01*
X215382037Y-71133238D01*
X215429656Y-71085619D01*
X215524894Y-71038000D01*
X215715371Y-71038000D01*
X215810609Y-71085619D01*
X215858228Y-71133238D01*
X215905847Y-71228476D01*
%TO.C,C3*%
X200501099Y-74330409D02*
X200548718Y-74378028D01*
X200691575Y-74425647D01*
X200786813Y-74425647D01*
X200929671Y-74378028D01*
X201024909Y-74282790D01*
X201072528Y-74187552D01*
X201120147Y-73997076D01*
X201120147Y-73854219D01*
X201072528Y-73663743D01*
X201024909Y-73568505D01*
X200929671Y-73473267D01*
X200786813Y-73425647D01*
X200691575Y-73425647D01*
X200548718Y-73473267D01*
X200501099Y-73520886D01*
X200167766Y-73425647D02*
X199548718Y-73425647D01*
X199882052Y-73806600D01*
X199739194Y-73806600D01*
X199643956Y-73854219D01*
X199596337Y-73901838D01*
X199548718Y-73997076D01*
X199548718Y-74235171D01*
X199596337Y-74330409D01*
X199643956Y-74378028D01*
X199739194Y-74425647D01*
X200024909Y-74425647D01*
X200120147Y-74378028D01*
X200167766Y-74330409D01*
%TO.C,C5*%
X182861103Y-105877209D02*
X182908722Y-105924828D01*
X183051579Y-105972447D01*
X183146817Y-105972447D01*
X183289675Y-105924828D01*
X183384913Y-105829590D01*
X183432532Y-105734352D01*
X183480151Y-105543876D01*
X183480151Y-105401019D01*
X183432532Y-105210543D01*
X183384913Y-105115305D01*
X183289675Y-105020067D01*
X183146817Y-104972447D01*
X183051579Y-104972447D01*
X182908722Y-105020067D01*
X182861103Y-105067686D01*
X181956341Y-104972447D02*
X182432532Y-104972447D01*
X182480151Y-105448638D01*
X182432532Y-105401019D01*
X182337294Y-105353400D01*
X182099198Y-105353400D01*
X182003960Y-105401019D01*
X181956341Y-105448638D01*
X181908722Y-105543876D01*
X181908722Y-105781971D01*
X181956341Y-105877209D01*
X182003960Y-105924828D01*
X182099198Y-105972447D01*
X182337294Y-105972447D01*
X182432532Y-105924828D01*
X182480151Y-105877209D01*
X162286047Y-60589009D02*
X162333666Y-60636628D01*
X162476523Y-60684247D01*
X162571761Y-60684247D01*
X162714619Y-60636628D01*
X162809857Y-60541390D01*
X162857476Y-60446152D01*
X162905095Y-60255676D01*
X162905095Y-60112819D01*
X162857476Y-59922343D01*
X162809857Y-59827105D01*
X162714619Y-59731867D01*
X162571761Y-59684247D01*
X162476523Y-59684247D01*
X162333666Y-59731867D01*
X162286047Y-59779486D01*
X161381285Y-59684247D02*
X161857476Y-59684247D01*
X161905095Y-60160438D01*
X161857476Y-60112819D01*
X161762238Y-60065200D01*
X161524142Y-60065200D01*
X161428904Y-60112819D01*
X161381285Y-60160438D01*
X161333666Y-60255676D01*
X161333666Y-60493771D01*
X161381285Y-60589009D01*
X161428904Y-60636628D01*
X161524142Y-60684247D01*
X161762238Y-60684247D01*
X161857476Y-60636628D01*
X161905095Y-60589009D01*
D12*
%TO.C,C3*%
X107445981Y-71183667D02*
X106023477Y-71183667D01*
X107445981Y-73003667D02*
X106023477Y-73003667D01*
X226699861Y-73003667D02*
X225277357Y-73003667D01*
X226699861Y-71183667D02*
X225277357Y-71183667D01*
%TO.C,REF\u002A\u002A*%
X233559200Y-89738200D02*
G75*
G03*
X233559200Y-89738200I-1200000J0D01*
G01*
%TO.C,C5*%
X93610653Y-59266719D02*
X93610653Y-57844215D01*
X91790653Y-59266719D02*
X91790653Y-57844215D01*
%TO.C,C2*%
X129848957Y-68516667D02*
X128426453Y-68516667D01*
X129848957Y-70336667D02*
X128426453Y-70336667D01*
%TO.C,C4*%
X108373457Y-101816067D02*
X109795961Y-101816067D01*
X108373457Y-103636067D02*
X109795961Y-103636067D01*
%TO.C,C2*%
X201401285Y-68516667D02*
X199978781Y-68516667D01*
X201401285Y-70336667D02*
X199978781Y-70336667D01*
%TO.C,C3*%
X70412405Y-92748267D02*
X71834909Y-92748267D01*
X70412405Y-94568267D02*
X71834909Y-94568267D01*
%TO.C,C2*%
X167263309Y-97235267D02*
X168685813Y-97235267D01*
X167263309Y-95415267D02*
X168685813Y-95415267D01*
%TO.C,C3*%
X189666285Y-92748267D02*
X191088789Y-92748267D01*
X189666285Y-94568267D02*
X191088789Y-94568267D01*
%TO.C,C2*%
X58296629Y-68516667D02*
X56874125Y-68516667D01*
X58296629Y-70336667D02*
X56874125Y-70336667D01*
X238815637Y-95415267D02*
X240238141Y-95415267D01*
X238815637Y-97235267D02*
X240238141Y-97235267D01*
%TO.C,R6*%
X150564797Y-95412467D02*
X151018925Y-95412467D01*
X150564797Y-96882467D02*
X151018925Y-96882467D01*
%TO.C,C5*%
X187193757Y-59266719D02*
X187193757Y-57844215D01*
X189013757Y-59266719D02*
X189013757Y-57844215D01*
%TO.C,C3*%
X213517061Y-92748267D02*
X214939565Y-92748267D01*
X213517061Y-94568267D02*
X214939565Y-94568267D01*
%TO.C,C4*%
X141037257Y-63935867D02*
X139614753Y-63935867D01*
X141037257Y-62115867D02*
X139614753Y-62115867D01*
%TO.C,R6*%
X98845917Y-68869467D02*
X98391789Y-68869467D01*
X98845917Y-70339467D02*
X98391789Y-70339467D01*
%TO.C,C3*%
X178998309Y-73003667D02*
X177575805Y-73003667D01*
X178998309Y-71183667D02*
X177575805Y-71183667D01*
%TO.C,R6*%
X122696693Y-70339467D02*
X122242565Y-70339467D01*
X122696693Y-68869467D02*
X122242565Y-68869467D01*
X146547469Y-70339467D02*
X146093341Y-70339467D01*
X146547469Y-68869467D02*
X146093341Y-68869467D01*
%TO.C,REF\u002A\u002A*%
X232924200Y-76047600D02*
G75*
G03*
X232924200Y-76047600I-1200000J0D01*
G01*
%TO.C,C2*%
X71860205Y-97235267D02*
X73282709Y-97235267D01*
X71860205Y-95415267D02*
X73282709Y-95415267D01*
%TO.C,C3*%
X141964733Y-94568267D02*
X143387237Y-94568267D01*
X141964733Y-92748267D02*
X143387237Y-92748267D01*
%TO.C,C2*%
X214964861Y-97235267D02*
X216387365Y-97235267D01*
X214964861Y-95415267D02*
X216387365Y-95415267D01*
%TO.C,REF\u002A\u002A*%
X113671200Y-76022200D02*
G75*
G03*
X113671200Y-76022200I-1200000J0D01*
G01*
X65970000Y-75996800D02*
G75*
G03*
X65970000Y-75996800I-1200000J0D01*
G01*
%TO.C,C4*%
X69484929Y-63935867D02*
X68062425Y-63935867D01*
X69484929Y-62115867D02*
X68062425Y-62115867D01*
%TO.C,REF\u002A\u002A*%
X138131400Y-89763600D02*
G75*
G03*
X138131400Y-89763600I-1200000J0D01*
G01*
%TO.C,R6*%
X55161693Y-95412467D02*
X55615821Y-95412467D01*
X55161693Y-96882467D02*
X55615821Y-96882467D01*
%TO.C,C3*%
X59744429Y-73003667D02*
X58321925Y-73003667D01*
X59744429Y-71183667D02*
X58321925Y-71183667D01*
%TO.C,REF\u002A\u002A*%
X90455600Y-89763600D02*
G75*
G03*
X90455600Y-89763600I-1200000J0D01*
G01*
X114280800Y-89789000D02*
G75*
G03*
X114280800Y-89789000I-1200000J0D01*
G01*
%TO.C,C4*%
X60671905Y-103636067D02*
X62094409Y-103636067D01*
X60671905Y-101816067D02*
X62094409Y-101816067D01*
%TO.C,C2*%
X177550509Y-68516667D02*
X176128005Y-68516667D01*
X177550509Y-70336667D02*
X176128005Y-70336667D01*
%TO.C,C4*%
X188738809Y-63935867D02*
X187316305Y-63935867D01*
X188738809Y-62115867D02*
X187316305Y-62115867D01*
%TO.C,C5*%
X229172389Y-106485215D02*
X229172389Y-107907719D01*
X227352389Y-106485215D02*
X227352389Y-107907719D01*
%TO.C,R6*%
X194249021Y-70339467D02*
X193794893Y-70339467D01*
X194249021Y-68869467D02*
X193794893Y-68869467D01*
%TO.C,REF\u002A\u002A*%
X161372400Y-76047600D02*
G75*
G03*
X161372400Y-76047600I-1200000J0D01*
G01*
%TO.C,C5*%
X139492205Y-59266719D02*
X139492205Y-57844215D01*
X141312205Y-59266719D02*
X141312205Y-57844215D01*
%TO.C,REF\u002A\u002A*%
X66605000Y-89789000D02*
G75*
G03*
X66605000Y-89789000I-1200000J0D01*
G01*
%TO.C,C2*%
X143412533Y-97235267D02*
X144835037Y-97235267D01*
X143412533Y-95415267D02*
X144835037Y-95415267D01*
%TO.C,C4*%
X164888033Y-63935867D02*
X163465529Y-63935867D01*
X164888033Y-62115867D02*
X163465529Y-62115867D01*
%TO.C,C3*%
X237367837Y-94568267D02*
X238790341Y-94568267D01*
X237367837Y-92748267D02*
X238790341Y-92748267D01*
%TO.C,R6*%
X198266349Y-95412467D02*
X198720477Y-95412467D01*
X198266349Y-96882467D02*
X198720477Y-96882467D01*
%TO.C,C2*%
X119561757Y-97235267D02*
X120984261Y-97235267D01*
X119561757Y-95415267D02*
X120984261Y-95415267D01*
%TO.C,C3*%
X131296757Y-73003667D02*
X129874253Y-73003667D01*
X131296757Y-71183667D02*
X129874253Y-71183667D01*
%TO.C,REF\u002A\u002A*%
X89795200Y-75971400D02*
G75*
G03*
X89795200Y-75971400I-1200000J0D01*
G01*
%TO.C,C5*%
X67939877Y-59266719D02*
X67939877Y-57844215D01*
X69759877Y-59266719D02*
X69759877Y-57844215D01*
%TO.C,C4*%
X117186481Y-62115867D02*
X115763977Y-62115867D01*
X117186481Y-63935867D02*
X115763977Y-63935867D01*
%TO.C,C5*%
X155800061Y-106485215D02*
X155800061Y-107907719D01*
X157620061Y-106485215D02*
X157620061Y-107907719D01*
%TO.C,C4*%
X156075009Y-103636067D02*
X157497513Y-103636067D01*
X156075009Y-101816067D02*
X157497513Y-101816067D01*
%TO.C,R6*%
X174415573Y-96882467D02*
X174869701Y-96882467D01*
X174415573Y-95412467D02*
X174869701Y-95412467D01*
%TO.C,C4*%
X132224233Y-103636067D02*
X133646737Y-103636067D01*
X132224233Y-101816067D02*
X133646737Y-101816067D01*
%TO.C,REF\u002A\u002A*%
X209683200Y-89763600D02*
G75*
G03*
X209683200Y-89763600I-1200000J0D01*
G01*
%TO.C,C2*%
X95710981Y-97235267D02*
X97133485Y-97235267D01*
X95710981Y-95415267D02*
X97133485Y-95415267D01*
%TO.C,C3*%
X83595205Y-73003667D02*
X82172701Y-73003667D01*
X83595205Y-71183667D02*
X82172701Y-71183667D01*
%TO.C,REF\u002A\u002A*%
X209048200Y-75946000D02*
G75*
G03*
X209048200Y-75946000I-1200000J0D01*
G01*
%TO.C,C2*%
X153699733Y-68516667D02*
X152277229Y-68516667D01*
X153699733Y-70336667D02*
X152277229Y-70336667D01*
%TO.C,C5*%
X212864533Y-59266719D02*
X212864533Y-57844215D01*
X211044533Y-59266719D02*
X211044533Y-57844215D01*
%TO.C,C2*%
X225252061Y-68516667D02*
X223829557Y-68516667D01*
X225252061Y-70336667D02*
X223829557Y-70336667D01*
%TO.C,R6*%
X222117125Y-95412467D02*
X222571253Y-95412467D01*
X222117125Y-96882467D02*
X222571253Y-96882467D01*
%TO.C,C5*%
X60396957Y-106485215D02*
X60396957Y-107907719D01*
X62216957Y-106485215D02*
X62216957Y-107907719D01*
%TO.C,R6*%
X74995141Y-68869467D02*
X74541013Y-68869467D01*
X74995141Y-70339467D02*
X74541013Y-70339467D01*
%TO.C,REF\u002A\u002A*%
X137496400Y-75971400D02*
G75*
G03*
X137496400Y-75971400I-1200000J0D01*
G01*
%TO.C,C2*%
X191114085Y-97235267D02*
X192536589Y-97235267D01*
X191114085Y-95415267D02*
X192536589Y-95415267D01*
%TO.C,R6*%
X170398245Y-70339467D02*
X169944117Y-70339467D01*
X170398245Y-68869467D02*
X169944117Y-68869467D01*
X126714021Y-96882467D02*
X127168149Y-96882467D01*
X126714021Y-95412467D02*
X127168149Y-95412467D01*
%TO.C,REF\u002A\u002A*%
X162007400Y-89789000D02*
G75*
G03*
X162007400Y-89789000I-1200000J0D01*
G01*
%TO.C,C5*%
X205321613Y-106485215D02*
X205321613Y-107907719D01*
X203501613Y-106485215D02*
X203501613Y-107907719D01*
%TO.C,C3*%
X165815509Y-94568267D02*
X167238013Y-94568267D01*
X165815509Y-92748267D02*
X167238013Y-92748267D01*
%TO.C,R6*%
X79012469Y-96882467D02*
X79466597Y-96882467D01*
X79012469Y-95412467D02*
X79466597Y-95412467D01*
%TO.C,C5*%
X115641429Y-59266719D02*
X115641429Y-57844215D01*
X117461429Y-59266719D02*
X117461429Y-57844215D01*
X86067733Y-106485215D02*
X86067733Y-107907719D01*
X84247733Y-106485215D02*
X84247733Y-107907719D01*
%TO.C,C4*%
X212589585Y-63935867D02*
X211167081Y-63935867D01*
X212589585Y-62115867D02*
X211167081Y-62115867D01*
X93335705Y-62115867D02*
X91913201Y-62115867D01*
X93335705Y-63935867D02*
X91913201Y-63935867D01*
%TO.C,C2*%
X105998181Y-68516667D02*
X104575677Y-68516667D01*
X105998181Y-70336667D02*
X104575677Y-70336667D01*
%TO.C,R6*%
X102863245Y-95412467D02*
X103317373Y-95412467D01*
X102863245Y-96882467D02*
X103317373Y-96882467D01*
%TO.C,C4*%
X227627337Y-103636067D02*
X229049841Y-103636067D01*
X227627337Y-101816067D02*
X229049841Y-101816067D01*
%TO.C,C5*%
X108098509Y-106485215D02*
X108098509Y-107907719D01*
X109918509Y-106485215D02*
X109918509Y-107907719D01*
X234895309Y-59266719D02*
X234895309Y-57844215D01*
X236715309Y-59266719D02*
X236715309Y-57844215D01*
%TO.C,C4*%
X203776561Y-101816067D02*
X205199065Y-101816067D01*
X203776561Y-103636067D02*
X205199065Y-103636067D01*
%TO.C,C3*%
X118113957Y-92748267D02*
X119536461Y-92748267D01*
X118113957Y-94568267D02*
X119536461Y-94568267D01*
%TO.C,C5*%
X133769285Y-106485215D02*
X133769285Y-107907719D01*
X131949285Y-106485215D02*
X131949285Y-107907719D01*
%TO.C,C4*%
X179925785Y-101816067D02*
X181348289Y-101816067D01*
X179925785Y-103636067D02*
X181348289Y-103636067D01*
%TO.C,REF\u002A\u002A*%
X185223000Y-76022200D02*
G75*
G03*
X185223000Y-76022200I-1200000J0D01*
G01*
%TO.C,C4*%
X236440361Y-62115867D02*
X235017857Y-62115867D01*
X236440361Y-63935867D02*
X235017857Y-63935867D01*
%TO.C,REF\u002A\u002A*%
X299904000Y-64185800D02*
G75*
G03*
X299904000Y-64185800I-1200000J0D01*
G01*
%TO.C,C3*%
X155147533Y-73003667D02*
X153725029Y-73003667D01*
X155147533Y-71183667D02*
X153725029Y-71183667D01*
%TO.C,C2*%
X82147405Y-70336667D02*
X80724901Y-70336667D01*
X82147405Y-68516667D02*
X80724901Y-68516667D01*
%TO.C,C4*%
X84522681Y-103636067D02*
X85945185Y-103636067D01*
X84522681Y-101816067D02*
X85945185Y-101816067D01*
%TO.C,R6*%
X241950573Y-68869467D02*
X241496445Y-68869467D01*
X241950573Y-70339467D02*
X241496445Y-70339467D01*
%TO.C,C3*%
X94263181Y-94568267D02*
X95685685Y-94568267D01*
X94263181Y-92748267D02*
X95685685Y-92748267D01*
%TO.C,REF\u002A\u002A*%
X185883400Y-89763600D02*
G75*
G03*
X185883400Y-89763600I-1200000J0D01*
G01*
%TO.C,R6*%
X218099797Y-68869467D02*
X217645669Y-68869467D01*
X218099797Y-70339467D02*
X217645669Y-70339467D01*
%TO.C,C3*%
X202849085Y-71183667D02*
X201426581Y-71183667D01*
X202849085Y-73003667D02*
X201426581Y-73003667D01*
%TO.C,C5*%
X181470837Y-106485215D02*
X181470837Y-107907719D01*
X179650837Y-106485215D02*
X179650837Y-107907719D01*
X163342981Y-59266719D02*
X163342981Y-57844215D01*
X165162981Y-59266719D02*
X165162981Y-57844215D01*
%TD*%
M02*
