M48
; DRILL file {KiCad (6.0.0)} date Thu Sep  1 11:04:59 2022
; FORMAT={-:-/ absolute / inch / decimal}
; #@! TF.CreationDate,2022-09-01T11:04:59-05:00
; #@! TF.GenerationSoftware,Kicad,Pcbnew,(6.0.0)
; #@! TF.FileFunction,Plated,1,2,PTH
FMAT,2
INCH
; #@! TA.AperFunction,Plated,PTH,ViaDrill
T1C0.0157
; #@! TA.AperFunction,Plated,PTH,ComponentDrill
T2C0.0315
; #@! TA.AperFunction,Plated,PTH,ComponentDrill
T3C0.0394
; #@! TA.AperFunction,Plated,PTH,ComponentDrill
T4C0.0520
; #@! TA.AperFunction,Plated,PTH,ComponentDrill
T5C0.0598
; #@! TA.AperFunction,Plated,PTH,ComponentDrill
T6C0.1181
%
G90
G05
T1
X2.29Y-2.62
X2.29Y-2.66
X2.33Y-2.62
X2.33Y-2.66
X2.56Y-3.62
X2.56Y-3.68
X2.6Y-3.62
X2.6Y-3.68
T2
X1.49Y-2.675
X1.49Y-3.275
T3
X0.65Y-2.71
X0.65Y-2.81
X0.65Y-2.91
X1.04Y-2.7106
X1.04Y-2.8106
X1.04Y-2.9106
X1.29Y-3.29
X1.29Y-3.39
X1.29Y-3.49
X1.7Y-3.4006
X1.7Y-3.5006
X1.7Y-3.6006
T4
X0.655Y-3.34
X0.8519Y-3.34
T5
X3.16Y-2.785
X3.16Y-2.985
T6
X0.375Y-0.375
X0.375Y-3.375
X3.375Y-0.375
X3.375Y-3.375
T0
M30
