%TF.GenerationSoftware,KiCad,Pcbnew,(6.0.0)*%
%TF.CreationDate,2022-09-01T11:05:02-05:00*%
%TF.ProjectId,SAQ-HV,5341512d-4856-42e6-9b69-6361645f7063,rev?*%
%TF.SameCoordinates,Original*%
%TF.FileFunction,Legend,Top*%
%TF.FilePolarity,Positive*%
%FSLAX46Y46*%
G04 Gerber Fmt 4.6, Leading zero omitted, Abs format (unit mm)*
G04 Created by KiCad (PCBNEW (6.0.0)) date 2022-09-01 11:05:02*
%MOMM*%
%LPD*%
G01*
G04 APERTURE LIST*
%ADD10C,0.150000*%
%ADD11C,0.254000*%
%ADD12C,0.120000*%
G04 APERTURE END LIST*
D10*
X25860357Y-84468788D02*
X25860357Y-82944788D01*
X26440928Y-82944788D01*
X26586071Y-83017360D01*
X26658642Y-83089931D01*
X26731214Y-83235074D01*
X26731214Y-83452788D01*
X26658642Y-83597931D01*
X26586071Y-83670502D01*
X26440928Y-83743074D01*
X25860357Y-83743074D01*
X27239214Y-82944788D02*
X27602071Y-84468788D01*
X27892357Y-83380217D01*
X28182642Y-84468788D01*
X28545500Y-82944788D01*
X29996928Y-84468788D02*
X29488928Y-83743074D01*
X29126071Y-84468788D02*
X29126071Y-82944788D01*
X29706642Y-82944788D01*
X29851785Y-83017360D01*
X29924357Y-83089931D01*
X29996928Y-83235074D01*
X29996928Y-83452788D01*
X29924357Y-83597931D01*
X29851785Y-83670502D01*
X29706642Y-83743074D01*
X29126071Y-83743074D01*
X25787785Y-86849857D02*
X26005500Y-86922428D01*
X26368357Y-86922428D01*
X26513500Y-86849857D01*
X26586071Y-86777285D01*
X26658642Y-86632142D01*
X26658642Y-86487000D01*
X26586071Y-86341857D01*
X26513500Y-86269285D01*
X26368357Y-86196714D01*
X26078071Y-86124142D01*
X25932928Y-86051571D01*
X25860357Y-85979000D01*
X25787785Y-85833857D01*
X25787785Y-85688714D01*
X25860357Y-85543571D01*
X25932928Y-85471000D01*
X26078071Y-85398428D01*
X26440928Y-85398428D01*
X26658642Y-85471000D01*
X27311785Y-86124142D02*
X27819785Y-86124142D01*
X28037500Y-86922428D02*
X27311785Y-86922428D01*
X27311785Y-85398428D01*
X28037500Y-85398428D01*
X28690642Y-86922428D02*
X28690642Y-85398428D01*
X29561500Y-86922428D01*
X29561500Y-85398428D01*
X30214642Y-85543571D02*
X30287214Y-85471000D01*
X30432357Y-85398428D01*
X30795214Y-85398428D01*
X30940357Y-85471000D01*
X31012928Y-85543571D01*
X31085500Y-85688714D01*
X31085500Y-85833857D01*
X31012928Y-86051571D01*
X30142071Y-86922428D01*
X31085500Y-86922428D01*
X26658642Y-87924640D02*
X26513500Y-87852068D01*
X26295785Y-87852068D01*
X26078071Y-87924640D01*
X25932928Y-88069782D01*
X25860357Y-88214925D01*
X25787785Y-88505211D01*
X25787785Y-88722925D01*
X25860357Y-89013211D01*
X25932928Y-89158354D01*
X26078071Y-89303497D01*
X26295785Y-89376068D01*
X26440928Y-89376068D01*
X26658642Y-89303497D01*
X26731214Y-89230925D01*
X26731214Y-88722925D01*
X26440928Y-88722925D01*
X27384357Y-89376068D02*
X27384357Y-87852068D01*
X28255214Y-89376068D01*
X28255214Y-87852068D01*
X28980928Y-89376068D02*
X28980928Y-87852068D01*
X29343785Y-87852068D01*
X29561500Y-87924640D01*
X29706642Y-88069782D01*
X29779214Y-88214925D01*
X29851785Y-88505211D01*
X29851785Y-88722925D01*
X29779214Y-89013211D01*
X29706642Y-89158354D01*
X29561500Y-89303497D01*
X29343785Y-89376068D01*
X28980928Y-89376068D01*
D11*
X6882190Y-20410956D02*
X7172476Y-20507718D01*
X7656285Y-20507718D01*
X7849809Y-20410956D01*
X7946571Y-20314194D01*
X8043333Y-20120670D01*
X8043333Y-19927146D01*
X7946571Y-19733622D01*
X7849809Y-19636860D01*
X7656285Y-19540099D01*
X7269238Y-19443337D01*
X7075714Y-19346575D01*
X6978952Y-19249813D01*
X6882190Y-19056289D01*
X6882190Y-18862765D01*
X6978952Y-18669241D01*
X7075714Y-18572480D01*
X7269238Y-18475718D01*
X7753047Y-18475718D01*
X8043333Y-18572480D01*
X8817428Y-19927146D02*
X9785047Y-19927146D01*
X8623904Y-20507718D02*
X9301238Y-18475718D01*
X9978571Y-20507718D01*
X12010571Y-20701241D02*
X11817047Y-20604480D01*
X11623523Y-20410956D01*
X11333238Y-20120670D01*
X11139714Y-20023908D01*
X10946190Y-20023908D01*
X11042952Y-20507718D02*
X10849428Y-20410956D01*
X10655904Y-20217432D01*
X10559142Y-19830384D01*
X10559142Y-19153051D01*
X10655904Y-18766003D01*
X10849428Y-18572480D01*
X11042952Y-18475718D01*
X11430000Y-18475718D01*
X11623523Y-18572480D01*
X11817047Y-18766003D01*
X11913809Y-19153051D01*
X11913809Y-19830384D01*
X11817047Y-20217432D01*
X11623523Y-20410956D01*
X11430000Y-20507718D01*
X11042952Y-20507718D01*
X14332857Y-20507718D02*
X14332857Y-18475718D01*
X14332857Y-19443337D02*
X15494000Y-19443337D01*
X15494000Y-20507718D02*
X15494000Y-18475718D01*
X16461619Y-20507718D02*
X16461619Y-18475718D01*
X18493619Y-18572480D02*
X18300095Y-18475718D01*
X18009809Y-18475718D01*
X17719523Y-18572480D01*
X17526000Y-18766003D01*
X17429238Y-18959527D01*
X17332476Y-19346575D01*
X17332476Y-19636860D01*
X17429238Y-20023908D01*
X17526000Y-20217432D01*
X17719523Y-20410956D01*
X18009809Y-20507718D01*
X18203333Y-20507718D01*
X18493619Y-20410956D01*
X18590380Y-20314194D01*
X18590380Y-19636860D01*
X18203333Y-19636860D01*
X19461238Y-20507718D02*
X19461238Y-18475718D01*
X19461238Y-19443337D02*
X20622380Y-19443337D01*
X20622380Y-20507718D02*
X20622380Y-18475718D01*
X22847904Y-18475718D02*
X23525238Y-20507718D01*
X24202571Y-18475718D01*
X25266952Y-18475718D02*
X25654000Y-18475718D01*
X25847523Y-18572480D01*
X26041047Y-18766003D01*
X26137809Y-19153051D01*
X26137809Y-19830384D01*
X26041047Y-20217432D01*
X25847523Y-20410956D01*
X25654000Y-20507718D01*
X25266952Y-20507718D01*
X25073428Y-20410956D01*
X24879904Y-20217432D01*
X24783142Y-19830384D01*
X24783142Y-19153051D01*
X24879904Y-18766003D01*
X25073428Y-18572480D01*
X25266952Y-18475718D01*
X27976285Y-20507718D02*
X27008666Y-20507718D01*
X27008666Y-18475718D01*
X28363333Y-18475718D02*
X29524476Y-18475718D01*
X28943904Y-20507718D02*
X28943904Y-18475718D01*
X30105047Y-19927146D02*
X31072666Y-19927146D01*
X29911523Y-20507718D02*
X30588857Y-18475718D01*
X31266190Y-20507718D01*
X33007904Y-18572480D02*
X32814380Y-18475718D01*
X32524095Y-18475718D01*
X32233809Y-18572480D01*
X32040285Y-18766003D01*
X31943523Y-18959527D01*
X31846761Y-19346575D01*
X31846761Y-19636860D01*
X31943523Y-20023908D01*
X32040285Y-20217432D01*
X32233809Y-20410956D01*
X32524095Y-20507718D01*
X32717619Y-20507718D01*
X33007904Y-20410956D01*
X33104666Y-20314194D01*
X33104666Y-19636860D01*
X32717619Y-19636860D01*
X33975523Y-19443337D02*
X34652857Y-19443337D01*
X34943142Y-20507718D02*
X33975523Y-20507718D01*
X33975523Y-18475718D01*
X34943142Y-18475718D01*
X38039523Y-19443337D02*
X38329809Y-19540099D01*
X38426571Y-19636860D01*
X38523333Y-19830384D01*
X38523333Y-20120670D01*
X38426571Y-20314194D01*
X38329809Y-20410956D01*
X38136285Y-20507718D01*
X37362190Y-20507718D01*
X37362190Y-18475718D01*
X38039523Y-18475718D01*
X38233047Y-18572480D01*
X38329809Y-18669241D01*
X38426571Y-18862765D01*
X38426571Y-19056289D01*
X38329809Y-19249813D01*
X38233047Y-19346575D01*
X38039523Y-19443337D01*
X37362190Y-19443337D01*
X39781238Y-18475718D02*
X40168285Y-18475718D01*
X40361809Y-18572480D01*
X40555333Y-18766003D01*
X40652095Y-19153051D01*
X40652095Y-19830384D01*
X40555333Y-20217432D01*
X40361809Y-20410956D01*
X40168285Y-20507718D01*
X39781238Y-20507718D01*
X39587714Y-20410956D01*
X39394190Y-20217432D01*
X39297428Y-19830384D01*
X39297428Y-19153051D01*
X39394190Y-18766003D01*
X39587714Y-18572480D01*
X39781238Y-18475718D01*
X41426190Y-19927146D02*
X42393809Y-19927146D01*
X41232666Y-20507718D02*
X41910000Y-18475718D01*
X42587333Y-20507718D01*
X44425809Y-20507718D02*
X43748476Y-19540099D01*
X43264666Y-20507718D02*
X43264666Y-18475718D01*
X44038761Y-18475718D01*
X44232285Y-18572480D01*
X44329047Y-18669241D01*
X44425809Y-18862765D01*
X44425809Y-19153051D01*
X44329047Y-19346575D01*
X44232285Y-19443337D01*
X44038761Y-19540099D01*
X43264666Y-19540099D01*
X45296666Y-20507718D02*
X45296666Y-18475718D01*
X45780476Y-18475718D01*
X46070761Y-18572480D01*
X46264285Y-18766003D01*
X46361047Y-18959527D01*
X46457809Y-19346575D01*
X46457809Y-19636860D01*
X46361047Y-20023908D01*
X46264285Y-20217432D01*
X46070761Y-20410956D01*
X45780476Y-20507718D01*
X45296666Y-20507718D01*
X19461238Y-23198666D02*
X20428857Y-23198666D01*
X19267714Y-23779238D02*
X19945047Y-21747238D01*
X20622380Y-23779238D01*
X21299714Y-21747238D02*
X21299714Y-23392190D01*
X21396476Y-23585714D01*
X21493238Y-23682476D01*
X21686761Y-23779238D01*
X22073809Y-23779238D01*
X22267333Y-23682476D01*
X22364095Y-23585714D01*
X22460857Y-23392190D01*
X22460857Y-21747238D01*
X24492857Y-21844000D02*
X24299333Y-21747238D01*
X24009047Y-21747238D01*
X23718761Y-21844000D01*
X23525238Y-22037523D01*
X23428476Y-22231047D01*
X23331714Y-22618095D01*
X23331714Y-22908380D01*
X23428476Y-23295428D01*
X23525238Y-23488952D01*
X23718761Y-23682476D01*
X24009047Y-23779238D01*
X24202571Y-23779238D01*
X24492857Y-23682476D01*
X24589619Y-23585714D01*
X24589619Y-22908380D01*
X24202571Y-22908380D01*
X26911904Y-21940761D02*
X27008666Y-21844000D01*
X27202190Y-21747238D01*
X27686000Y-21747238D01*
X27879523Y-21844000D01*
X27976285Y-21940761D01*
X28073047Y-22134285D01*
X28073047Y-22327809D01*
X27976285Y-22618095D01*
X26815142Y-23779238D01*
X28073047Y-23779238D01*
X29330952Y-21747238D02*
X29524476Y-21747238D01*
X29718000Y-21844000D01*
X29814761Y-21940761D01*
X29911523Y-22134285D01*
X30008285Y-22521333D01*
X30008285Y-23005142D01*
X29911523Y-23392190D01*
X29814761Y-23585714D01*
X29718000Y-23682476D01*
X29524476Y-23779238D01*
X29330952Y-23779238D01*
X29137428Y-23682476D01*
X29040666Y-23585714D01*
X28943904Y-23392190D01*
X28847142Y-23005142D01*
X28847142Y-22521333D01*
X28943904Y-22134285D01*
X29040666Y-21940761D01*
X29137428Y-21844000D01*
X29330952Y-21747238D01*
X30782380Y-21940761D02*
X30879142Y-21844000D01*
X31072666Y-21747238D01*
X31556476Y-21747238D01*
X31750000Y-21844000D01*
X31846761Y-21940761D01*
X31943523Y-22134285D01*
X31943523Y-22327809D01*
X31846761Y-22618095D01*
X30685619Y-23779238D01*
X31943523Y-23779238D01*
X32717619Y-21940761D02*
X32814380Y-21844000D01*
X33007904Y-21747238D01*
X33491714Y-21747238D01*
X33685238Y-21844000D01*
X33782000Y-21940761D01*
X33878761Y-22134285D01*
X33878761Y-22327809D01*
X33782000Y-22618095D01*
X32620857Y-23779238D01*
X33878761Y-23779238D01*
X13026571Y-26470186D02*
X13994190Y-26470186D01*
X12833047Y-27050758D02*
X13510380Y-25018758D01*
X14187714Y-27050758D01*
X14865047Y-25018758D02*
X14865047Y-26663710D01*
X14961809Y-26857234D01*
X15058571Y-26953996D01*
X15252095Y-27050758D01*
X15639142Y-27050758D01*
X15832666Y-26953996D01*
X15929428Y-26857234D01*
X16026190Y-26663710D01*
X16026190Y-25018758D01*
X16897047Y-26953996D02*
X17187333Y-27050758D01*
X17671142Y-27050758D01*
X17864666Y-26953996D01*
X17961428Y-26857234D01*
X18058190Y-26663710D01*
X18058190Y-26470186D01*
X17961428Y-26276662D01*
X17864666Y-26179900D01*
X17671142Y-26083139D01*
X17284095Y-25986377D01*
X17090571Y-25889615D01*
X16993809Y-25792853D01*
X16897047Y-25599329D01*
X16897047Y-25405805D01*
X16993809Y-25212281D01*
X17090571Y-25115520D01*
X17284095Y-25018758D01*
X17767904Y-25018758D01*
X18058190Y-25115520D01*
X18638761Y-25018758D02*
X19799904Y-25018758D01*
X19219333Y-27050758D02*
X19219333Y-25018758D01*
X20477238Y-27050758D02*
X20477238Y-25018758D01*
X21444857Y-27050758D02*
X21444857Y-25018758D01*
X22606000Y-27050758D01*
X22606000Y-25018758D01*
X25121809Y-27050758D02*
X25121809Y-25018758D01*
X25799142Y-26470186D01*
X26476476Y-25018758D01*
X26476476Y-27050758D01*
X28605238Y-26857234D02*
X28508476Y-26953996D01*
X28218190Y-27050758D01*
X28024666Y-27050758D01*
X27734380Y-26953996D01*
X27540857Y-26760472D01*
X27444095Y-26566948D01*
X27347333Y-26179900D01*
X27347333Y-25889615D01*
X27444095Y-25502567D01*
X27540857Y-25309043D01*
X27734380Y-25115520D01*
X28024666Y-25018758D01*
X28218190Y-25018758D01*
X28508476Y-25115520D01*
X28605238Y-25212281D01*
X29476095Y-27050758D02*
X29476095Y-25018758D01*
X29959904Y-25018758D01*
X30250190Y-25115520D01*
X30443714Y-25309043D01*
X30540476Y-25502567D01*
X30637238Y-25889615D01*
X30637238Y-26179900D01*
X30540476Y-26566948D01*
X30443714Y-26760472D01*
X30250190Y-26953996D01*
X29959904Y-27050758D01*
X29476095Y-27050758D01*
X31895142Y-25018758D02*
X32282190Y-25018758D01*
X32475714Y-25115520D01*
X32669238Y-25309043D01*
X32765999Y-25696091D01*
X32765999Y-26373424D01*
X32669238Y-26760472D01*
X32475714Y-26953996D01*
X32282190Y-27050758D01*
X31895142Y-27050758D01*
X31701619Y-26953996D01*
X31508095Y-26760472D01*
X31411333Y-26373424D01*
X31411333Y-25696091D01*
X31508095Y-25309043D01*
X31701619Y-25115520D01*
X31895142Y-25018758D01*
X33636857Y-27050758D02*
X33636857Y-25018758D01*
X34798000Y-27050758D01*
X34798000Y-25018758D01*
X35668857Y-26470186D02*
X36636476Y-26470186D01*
X35475333Y-27050758D02*
X36152666Y-25018758D01*
X36830000Y-27050758D01*
X38474952Y-27050758D02*
X37507333Y-27050758D01*
X37507333Y-25018758D01*
X39152285Y-27050758D02*
X39152285Y-25018758D01*
X39636095Y-25018758D01*
X39926380Y-25115520D01*
X40119904Y-25309043D01*
X40216666Y-25502567D01*
X40313428Y-25889615D01*
X40313428Y-26179900D01*
X40216666Y-26566948D01*
X40119904Y-26760472D01*
X39926380Y-26953996D01*
X39636095Y-27050758D01*
X39152285Y-27050758D01*
D10*
X88598357Y-71047428D02*
X88598357Y-69523428D01*
X88598357Y-70249142D02*
X89469214Y-70249142D01*
X89469214Y-71047428D02*
X89469214Y-69523428D01*
X89977214Y-69523428D02*
X90485214Y-71047428D01*
X90993214Y-69523428D01*
X9350357Y-69609788D02*
X9350357Y-68085788D01*
X9930928Y-68085788D01*
X10076071Y-68158360D01*
X10148642Y-68230931D01*
X10221214Y-68376074D01*
X10221214Y-68593788D01*
X10148642Y-68738931D01*
X10076071Y-68811502D01*
X9930928Y-68884074D01*
X9350357Y-68884074D01*
X10729214Y-68085788D02*
X11092071Y-69609788D01*
X11382357Y-68521217D01*
X11672642Y-69609788D01*
X12035500Y-68085788D01*
X13486928Y-69609788D02*
X12978928Y-68884074D01*
X12616071Y-69609788D02*
X12616071Y-68085788D01*
X13196642Y-68085788D01*
X13341785Y-68158360D01*
X13414357Y-68230931D01*
X13486928Y-68376074D01*
X13486928Y-68593788D01*
X13414357Y-68738931D01*
X13341785Y-68811502D01*
X13196642Y-68884074D01*
X12616071Y-68884074D01*
X9277785Y-71990857D02*
X9495500Y-72063428D01*
X9858357Y-72063428D01*
X10003500Y-71990857D01*
X10076071Y-71918285D01*
X10148642Y-71773142D01*
X10148642Y-71628000D01*
X10076071Y-71482857D01*
X10003500Y-71410285D01*
X9858357Y-71337714D01*
X9568071Y-71265142D01*
X9422928Y-71192571D01*
X9350357Y-71120000D01*
X9277785Y-70974857D01*
X9277785Y-70829714D01*
X9350357Y-70684571D01*
X9422928Y-70612000D01*
X9568071Y-70539428D01*
X9930928Y-70539428D01*
X10148642Y-70612000D01*
X10801785Y-71265142D02*
X11309785Y-71265142D01*
X11527500Y-72063428D02*
X10801785Y-72063428D01*
X10801785Y-70539428D01*
X11527500Y-70539428D01*
X12180642Y-72063428D02*
X12180642Y-70539428D01*
X13051500Y-72063428D01*
X13051500Y-70539428D01*
X14575500Y-72063428D02*
X13704642Y-72063428D01*
X14140071Y-72063428D02*
X14140071Y-70539428D01*
X13994928Y-70757142D01*
X13849785Y-70902285D01*
X13704642Y-70974857D01*
X10148642Y-73065640D02*
X10003500Y-72993068D01*
X9785785Y-72993068D01*
X9568071Y-73065640D01*
X9422928Y-73210782D01*
X9350357Y-73355925D01*
X9277785Y-73646211D01*
X9277785Y-73863925D01*
X9350357Y-74154211D01*
X9422928Y-74299354D01*
X9568071Y-74444497D01*
X9785785Y-74517068D01*
X9930928Y-74517068D01*
X10148642Y-74444497D01*
X10221214Y-74371925D01*
X10221214Y-73863925D01*
X9930928Y-73863925D01*
X10874357Y-74517068D02*
X10874357Y-72993068D01*
X11745214Y-74517068D01*
X11745214Y-72993068D01*
X12470928Y-74517068D02*
X12470928Y-72993068D01*
X12833785Y-72993068D01*
X13051500Y-73065640D01*
X13196642Y-73210782D01*
X13269214Y-73355925D01*
X13341785Y-73646211D01*
X13341785Y-73863925D01*
X13269214Y-74154211D01*
X13196642Y-74299354D01*
X13051500Y-74444497D01*
X12833785Y-74517068D01*
X12470928Y-74517068D01*
X29289357Y-69482788D02*
X29289357Y-67958788D01*
X30160214Y-69482788D01*
X30160214Y-67958788D01*
X31756785Y-69337645D02*
X31684214Y-69410217D01*
X31466500Y-69482788D01*
X31321357Y-69482788D01*
X31103642Y-69410217D01*
X30958500Y-69265074D01*
X30885928Y-69119931D01*
X30813357Y-68829645D01*
X30813357Y-68611931D01*
X30885928Y-68321645D01*
X30958500Y-68176502D01*
X31103642Y-68031360D01*
X31321357Y-67958788D01*
X31466500Y-67958788D01*
X31684214Y-68031360D01*
X31756785Y-68103931D01*
X29071642Y-70412428D02*
X29579642Y-71936428D01*
X30087642Y-70412428D01*
X30595642Y-71936428D02*
X30595642Y-70412428D01*
X30958500Y-70412428D01*
X31176214Y-70485000D01*
X31321357Y-70630142D01*
X31393928Y-70775285D01*
X31466500Y-71065571D01*
X31466500Y-71283285D01*
X31393928Y-71573571D01*
X31321357Y-71718714D01*
X31176214Y-71863857D01*
X30958500Y-71936428D01*
X30595642Y-71936428D01*
X29579642Y-72866068D02*
X29869928Y-72866068D01*
X30015071Y-72938640D01*
X30160214Y-73083782D01*
X30232785Y-73374068D01*
X30232785Y-73882068D01*
X30160214Y-74172354D01*
X30015071Y-74317497D01*
X29869928Y-74390068D01*
X29579642Y-74390068D01*
X29434500Y-74317497D01*
X29289357Y-74172354D01*
X29216785Y-73882068D01*
X29216785Y-73374068D01*
X29289357Y-73083782D01*
X29434500Y-72938640D01*
X29579642Y-72866068D01*
X30885928Y-74390068D02*
X30885928Y-72866068D01*
X31756785Y-74390068D01*
X31756785Y-72866068D01*
X89596214Y-77143428D02*
X89088214Y-76417714D01*
X88725357Y-77143428D02*
X88725357Y-75619428D01*
X89305928Y-75619428D01*
X89451071Y-75692000D01*
X89523642Y-75764571D01*
X89596214Y-75909714D01*
X89596214Y-76127428D01*
X89523642Y-76272571D01*
X89451071Y-76345142D01*
X89305928Y-76417714D01*
X88725357Y-76417714D01*
X90031642Y-75619428D02*
X90902500Y-75619428D01*
X90467071Y-77143428D02*
X90467071Y-75619428D01*
X91410500Y-77143428D02*
X91410500Y-75619428D01*
X92281357Y-77143428D01*
X92281357Y-75619428D01*
X37163357Y-87135788D02*
X37163357Y-85611788D01*
X37743928Y-85611788D01*
X37889071Y-85684360D01*
X37961642Y-85756931D01*
X38034214Y-85902074D01*
X38034214Y-86119788D01*
X37961642Y-86264931D01*
X37889071Y-86337502D01*
X37743928Y-86410074D01*
X37163357Y-86410074D01*
X38977642Y-85611788D02*
X39267928Y-85611788D01*
X39413071Y-85684360D01*
X39558214Y-85829502D01*
X39630785Y-86119788D01*
X39630785Y-86627788D01*
X39558214Y-86918074D01*
X39413071Y-87063217D01*
X39267928Y-87135788D01*
X38977642Y-87135788D01*
X38832500Y-87063217D01*
X38687357Y-86918074D01*
X38614785Y-86627788D01*
X38614785Y-86119788D01*
X38687357Y-85829502D01*
X38832500Y-85684360D01*
X38977642Y-85611788D01*
X40066214Y-85611788D02*
X40937071Y-85611788D01*
X40501642Y-87135788D02*
X40501642Y-85611788D01*
X37961642Y-88138000D02*
X37816500Y-88065428D01*
X37598785Y-88065428D01*
X37381071Y-88138000D01*
X37235928Y-88283142D01*
X37163357Y-88428285D01*
X37090785Y-88718571D01*
X37090785Y-88936285D01*
X37163357Y-89226571D01*
X37235928Y-89371714D01*
X37381071Y-89516857D01*
X37598785Y-89589428D01*
X37743928Y-89589428D01*
X37961642Y-89516857D01*
X38034214Y-89444285D01*
X38034214Y-88936285D01*
X37743928Y-88936285D01*
X38687357Y-89589428D02*
X38687357Y-88065428D01*
X39558214Y-89589428D01*
X39558214Y-88065428D01*
X40283928Y-89589428D02*
X40283928Y-88065428D01*
X40646785Y-88065428D01*
X40864500Y-88138000D01*
X41009642Y-88283142D01*
X41082214Y-88428285D01*
X41154785Y-88718571D01*
X41154785Y-88936285D01*
X41082214Y-89226571D01*
X41009642Y-89371714D01*
X40864500Y-89516857D01*
X40646785Y-89589428D01*
X40283928Y-89589428D01*
X37961642Y-90591640D02*
X37816500Y-90519068D01*
X37598785Y-90519068D01*
X37381071Y-90591640D01*
X37235928Y-90736782D01*
X37163357Y-90881925D01*
X37090785Y-91172211D01*
X37090785Y-91389925D01*
X37163357Y-91680211D01*
X37235928Y-91825354D01*
X37381071Y-91970497D01*
X37598785Y-92043068D01*
X37743928Y-92043068D01*
X37961642Y-91970497D01*
X38034214Y-91897925D01*
X38034214Y-91389925D01*
X37743928Y-91389925D01*
X38687357Y-92043068D02*
X38687357Y-90519068D01*
X39558214Y-92043068D01*
X39558214Y-90519068D01*
X40283928Y-92043068D02*
X40283928Y-90519068D01*
X40646785Y-90519068D01*
X40864500Y-90591640D01*
X41009642Y-90736782D01*
X41082214Y-90881925D01*
X41154785Y-91172211D01*
X41154785Y-91389925D01*
X41082214Y-91680211D01*
X41009642Y-91825354D01*
X40864500Y-91970497D01*
X40646785Y-92043068D01*
X40283928Y-92043068D01*
%TO.C,J4*%
X84796380Y-73612333D02*
X85510666Y-73612333D01*
X85653523Y-73659952D01*
X85748761Y-73755190D01*
X85796380Y-73898047D01*
X85796380Y-73993285D01*
X85129714Y-72707571D02*
X85796380Y-72707571D01*
X84748761Y-72945666D02*
X85463047Y-73183761D01*
X85463047Y-72564714D01*
%TO.C,J2*%
X32432666Y-80688380D02*
X32432666Y-81402666D01*
X32385047Y-81545523D01*
X32289809Y-81640761D01*
X32146952Y-81688380D01*
X32051714Y-81688380D01*
X32861238Y-80783619D02*
X32908857Y-80736000D01*
X33004095Y-80688380D01*
X33242190Y-80688380D01*
X33337428Y-80736000D01*
X33385047Y-80783619D01*
X33432666Y-80878857D01*
X33432666Y-80974095D01*
X33385047Y-81116952D01*
X32813619Y-81688380D01*
X33432666Y-81688380D01*
%TO.C,R1*%
X41018380Y-75731666D02*
X40542190Y-76065000D01*
X41018380Y-76303095D02*
X40018380Y-76303095D01*
X40018380Y-75922142D01*
X40066000Y-75826904D01*
X40113619Y-75779285D01*
X40208857Y-75731666D01*
X40351714Y-75731666D01*
X40446952Y-75779285D01*
X40494571Y-75826904D01*
X40542190Y-75922142D01*
X40542190Y-76303095D01*
X41018380Y-74779285D02*
X41018380Y-75350714D01*
X41018380Y-75065000D02*
X40018380Y-75065000D01*
X40161238Y-75160238D01*
X40256476Y-75255476D01*
X40304095Y-75350714D01*
%TO.C,HV1*%
X54530476Y-85653619D02*
X54530476Y-86653619D01*
X54530476Y-86177428D02*
X53959047Y-86177428D01*
X53959047Y-85653619D02*
X53959047Y-86653619D01*
X53625714Y-86653619D02*
X53292380Y-85653619D01*
X52959047Y-86653619D01*
X52101904Y-85653619D02*
X52673333Y-85653619D01*
X52387619Y-85653619D02*
X52387619Y-86653619D01*
X52482857Y-86510761D01*
X52578095Y-86415523D01*
X52673333Y-86367904D01*
%TO.C,J3*%
X26082666Y-65971380D02*
X26082666Y-66685666D01*
X26035047Y-66828523D01*
X25939809Y-66923761D01*
X25796952Y-66971380D01*
X25701714Y-66971380D01*
X26463619Y-65971380D02*
X27082666Y-65971380D01*
X26749333Y-66352333D01*
X26892190Y-66352333D01*
X26987428Y-66399952D01*
X27035047Y-66447571D01*
X27082666Y-66542809D01*
X27082666Y-66780904D01*
X27035047Y-66876142D01*
X26987428Y-66923761D01*
X26892190Y-66971380D01*
X26606476Y-66971380D01*
X26511238Y-66923761D01*
X26463619Y-66876142D01*
%TO.C,J5*%
X42846666Y-83497380D02*
X42846666Y-84211666D01*
X42799047Y-84354523D01*
X42703809Y-84449761D01*
X42560952Y-84497380D01*
X42465714Y-84497380D01*
X43799047Y-83497380D02*
X43322857Y-83497380D01*
X43275238Y-83973571D01*
X43322857Y-83925952D01*
X43418095Y-83878333D01*
X43656190Y-83878333D01*
X43751428Y-83925952D01*
X43799047Y-83973571D01*
X43846666Y-84068809D01*
X43846666Y-84306904D01*
X43799047Y-84402142D01*
X43751428Y-84449761D01*
X43656190Y-84497380D01*
X43418095Y-84497380D01*
X43322857Y-84449761D01*
X43275238Y-84402142D01*
%TO.C,J1*%
X16176666Y-65956380D02*
X16176666Y-66670666D01*
X16129047Y-66813523D01*
X16033809Y-66908761D01*
X15890952Y-66956380D01*
X15795714Y-66956380D01*
X17176666Y-66956380D02*
X16605238Y-66956380D01*
X16890952Y-66956380D02*
X16890952Y-65956380D01*
X16795714Y-66099238D01*
X16700476Y-66194476D01*
X16605238Y-66242095D01*
%TO.C,BT1*%
X13931285Y-77774571D02*
X14074142Y-77822190D01*
X14121761Y-77869809D01*
X14169380Y-77965047D01*
X14169380Y-78107904D01*
X14121761Y-78203142D01*
X14074142Y-78250761D01*
X13978904Y-78298380D01*
X13597952Y-78298380D01*
X13597952Y-77298380D01*
X13931285Y-77298380D01*
X14026523Y-77346000D01*
X14074142Y-77393619D01*
X14121761Y-77488857D01*
X14121761Y-77584095D01*
X14074142Y-77679333D01*
X14026523Y-77726952D01*
X13931285Y-77774571D01*
X13597952Y-77774571D01*
X14455095Y-77298380D02*
X15026523Y-77298380D01*
X14740809Y-78298380D02*
X14740809Y-77298380D01*
X15883666Y-78298380D02*
X15312238Y-78298380D01*
X15597952Y-78298380D02*
X15597952Y-77298380D01*
X15502714Y-77441238D01*
X15407476Y-77536476D01*
X15312238Y-77584095D01*
D12*
%TO.C,J4*%
X77724000Y-78359000D02*
X77724000Y-68199000D01*
X76454000Y-78359000D02*
X84074000Y-78359000D01*
X84074000Y-68199000D02*
X76454000Y-68199000D01*
X76454000Y-68199000D02*
X76454000Y-78359000D01*
X84074000Y-78359000D02*
X84074000Y-68199000D01*
%TO.C,J2*%
X31436000Y-82236000D02*
X32766000Y-82236000D01*
X31436000Y-84836000D02*
X34096000Y-84836000D01*
X31436000Y-83566000D02*
X31436000Y-82236000D01*
X31436000Y-84836000D02*
X31436000Y-89976000D01*
X34096000Y-84836000D02*
X34096000Y-89976000D01*
X31436000Y-89976000D02*
X34096000Y-89976000D01*
%TO.C,G\u002A\u002A\u002A*%
G36*
X38429554Y-9390100D02*
G01*
X38424861Y-9363361D01*
X38424861Y-9243803D01*
X43065725Y-9243803D01*
X43065725Y-2157752D01*
X47257474Y-2157752D01*
X47257474Y-5285544D01*
X47372609Y-5338003D01*
X47505264Y-5363532D01*
X47639693Y-5326572D01*
X47838117Y-5283128D01*
X48020139Y-5331901D01*
X48196756Y-5476290D01*
X48224174Y-5507237D01*
X48337359Y-5625980D01*
X48437240Y-5683390D01*
X48566306Y-5700888D01*
X48609609Y-5701542D01*
X48760177Y-5711149D01*
X48873383Y-5734301D01*
X48895944Y-5744501D01*
X48983005Y-5760581D01*
X49122683Y-5750655D01*
X49180976Y-5740102D01*
X49417562Y-5727013D01*
X49603933Y-5797241D01*
X49734902Y-5948686D01*
X49744707Y-5968123D01*
X49804212Y-6060812D01*
X49856585Y-6064349D01*
X49867420Y-6054996D01*
X49985240Y-6004045D01*
X50147267Y-6029795D01*
X50283256Y-6095948D01*
X50396332Y-6148074D01*
X50474654Y-6154192D01*
X50482863Y-6148900D01*
X50561975Y-6120704D01*
X50710724Y-6104067D01*
X50899576Y-6099347D01*
X51098995Y-6106905D01*
X51279446Y-6127100D01*
X51338375Y-6138495D01*
X51495846Y-6189222D01*
X51624637Y-6255813D01*
X51648987Y-6274791D01*
X51742114Y-6332847D01*
X51847876Y-6322547D01*
X51884589Y-6309477D01*
X52193019Y-6208226D01*
X52525808Y-6127062D01*
X52834367Y-6077229D01*
X52920580Y-6069703D01*
X53104593Y-6068522D01*
X53293206Y-6093203D01*
X53519386Y-6149427D01*
X53694058Y-6202975D01*
X53913553Y-6278653D01*
X54110482Y-6356048D01*
X54256055Y-6423412D01*
X54303305Y-6451574D01*
X54417295Y-6512304D01*
X54549285Y-6527465D01*
X54672532Y-6515783D01*
X54784020Y-6502914D01*
X54870482Y-6505801D01*
X54935099Y-6535256D01*
X54981050Y-6602091D01*
X55011516Y-6717121D01*
X55029679Y-6891158D01*
X55038718Y-7135015D01*
X55041814Y-7459505D01*
X55042150Y-7772377D01*
X55042150Y-8876768D01*
X55190647Y-9150939D01*
X55288907Y-9348286D01*
X55393788Y-9583298D01*
X55467922Y-9767239D01*
X55551110Y-9962343D01*
X55643657Y-10140424D01*
X55722592Y-10258983D01*
X55810454Y-10394958D01*
X55826580Y-10527518D01*
X55821738Y-10562252D01*
X55807907Y-10675271D01*
X55791598Y-10859638D01*
X55775129Y-11087012D01*
X55764283Y-11264825D01*
X55744143Y-11535570D01*
X55715203Y-11813029D01*
X55682124Y-12055803D01*
X55663151Y-12163057D01*
X55624743Y-12373006D01*
X55594244Y-12575000D01*
X55579422Y-12711976D01*
X55571204Y-12797671D01*
X55549859Y-12863620D01*
X55500339Y-12923362D01*
X55407594Y-12990437D01*
X55256576Y-13078385D01*
X55042150Y-13195377D01*
X54814207Y-13317823D01*
X54597796Y-13432290D01*
X54419631Y-13524748D01*
X54318574Y-13575381D01*
X54180995Y-13664274D01*
X54019569Y-13800981D01*
X53883575Y-13940310D01*
X53728322Y-14115076D01*
X53598450Y-14252357D01*
X53471702Y-14372194D01*
X53325823Y-14494625D01*
X53138558Y-14639691D01*
X52949438Y-14781451D01*
X52717205Y-14948286D01*
X52544245Y-15056791D01*
X52415569Y-15115311D01*
X52319301Y-15132212D01*
X52187987Y-15154406D01*
X52097945Y-15207065D01*
X52013596Y-15270447D01*
X51968231Y-15281917D01*
X51895656Y-15320150D01*
X51815262Y-15412224D01*
X51814436Y-15413480D01*
X51706860Y-15525066D01*
X51566199Y-15612711D01*
X51561765Y-15614597D01*
X51459682Y-15669728D01*
X51418749Y-15717670D01*
X51420661Y-15725192D01*
X51413844Y-15791937D01*
X51374358Y-15860911D01*
X51321861Y-15979172D01*
X51301104Y-16113635D01*
X51269478Y-16300612D01*
X51190670Y-16515927D01*
X51084042Y-16713539D01*
X51007172Y-16812593D01*
X50961626Y-16866664D01*
X50934284Y-16927433D01*
X50923247Y-17016271D01*
X50926611Y-17154548D01*
X50942477Y-17363635D01*
X50950217Y-17452780D01*
X50978233Y-17720521D01*
X51013432Y-17924219D01*
X51064687Y-18099622D01*
X51140872Y-18282475D01*
X51173175Y-18350916D01*
X51256756Y-18540175D01*
X51318896Y-18710391D01*
X51348412Y-18830151D01*
X51349419Y-18845995D01*
X51349419Y-18974648D01*
X50887827Y-18968090D01*
X50631917Y-18960460D01*
X50366552Y-18946097D01*
X50140469Y-18927776D01*
X50097166Y-18923063D01*
X49730508Y-18863106D01*
X49368161Y-18772867D01*
X49030710Y-18659855D01*
X48738738Y-18531580D01*
X48512828Y-18395551D01*
X48413148Y-18308672D01*
X48361102Y-18228887D01*
X48278949Y-18074267D01*
X48175149Y-17862025D01*
X48058164Y-17609375D01*
X47955584Y-17377792D01*
X47827612Y-17084246D01*
X47728009Y-16864293D01*
X47645434Y-16699966D01*
X47568543Y-16573296D01*
X47485996Y-16466314D01*
X47386448Y-16361051D01*
X47258558Y-16239540D01*
X47206701Y-16191422D01*
X46915373Y-15906522D01*
X46693441Y-15651373D01*
X46524985Y-15403940D01*
X46394082Y-15142189D01*
X46330313Y-14978541D01*
X46252061Y-14776650D01*
X46164945Y-14592347D01*
X46056933Y-14406258D01*
X45915995Y-14199010D01*
X45730098Y-13951230D01*
X45550342Y-13722629D01*
X45392886Y-13528483D01*
X45275228Y-13397409D01*
X45177206Y-13312697D01*
X45078653Y-13257637D01*
X44959406Y-13215521D01*
X44926715Y-13205845D01*
X44576881Y-13146580D01*
X44299957Y-13145369D01*
X44114470Y-13158500D01*
X43992292Y-13183365D01*
X43897073Y-13237036D01*
X43792462Y-13336584D01*
X43714974Y-13420098D01*
X43568721Y-13592323D01*
X43404471Y-13805599D01*
X43256152Y-14015743D01*
X43247139Y-14029352D01*
X43132388Y-14190997D01*
X43029362Y-14313977D01*
X42955225Y-14378543D01*
X42939188Y-14383685D01*
X42848647Y-14363661D01*
X42691909Y-14310131D01*
X42492690Y-14232910D01*
X42274705Y-14141811D01*
X42061670Y-14046649D01*
X41877299Y-13957238D01*
X41776936Y-13902708D01*
X41560417Y-13755127D01*
X41336885Y-13568666D01*
X41136064Y-13370660D01*
X40987674Y-13188445D01*
X40968885Y-13159529D01*
X40906755Y-13030056D01*
X40837767Y-12842311D01*
X40776255Y-12635552D01*
X40773035Y-12623085D01*
X40651055Y-12242434D01*
X40492156Y-11893133D01*
X40309796Y-11602494D01*
X40213177Y-11486808D01*
X40098645Y-11377418D01*
X39931598Y-11233141D01*
X39740171Y-11077880D01*
X39647454Y-11006144D01*
X39464269Y-10863144D01*
X39301112Y-10729020D01*
X39181586Y-10623492D01*
X39142792Y-10584554D01*
X39045455Y-10460375D01*
X38926374Y-10286305D01*
X38797684Y-10082989D01*
X38671522Y-9871067D01*
X38560023Y-9671184D01*
X38533115Y-9618067D01*
X38923889Y-9618067D01*
X39170053Y-10002264D01*
X39408989Y-10325305D01*
X39675115Y-10582025D01*
X39731199Y-10626036D01*
X40139871Y-10959237D01*
X40464540Y-11277934D01*
X40716392Y-11597622D01*
X40906611Y-11933798D01*
X41046383Y-12301957D01*
X41108125Y-12533592D01*
X41162738Y-12739475D01*
X41226577Y-12892624D01*
X41321285Y-13033381D01*
X41464299Y-13197523D01*
X41637429Y-13368878D01*
X41819391Y-13507335D01*
X42044769Y-13637310D01*
X42187874Y-13708343D01*
X42440262Y-13828543D01*
X42619284Y-13907910D01*
X42741799Y-13948281D01*
X42824666Y-13951490D01*
X42884743Y-13919372D01*
X42938889Y-13853761D01*
X42978639Y-13794399D01*
X43191395Y-13498394D01*
X43409779Y-13240287D01*
X43618878Y-13035747D01*
X43803778Y-12900446D01*
X43853466Y-12875182D01*
X44084749Y-12811447D01*
X44372722Y-12788909D01*
X44683853Y-12806093D01*
X44984613Y-12861523D01*
X45199851Y-12934425D01*
X45313541Y-12990661D01*
X45416962Y-13060882D01*
X45525469Y-13159940D01*
X45654415Y-13302685D01*
X45819156Y-13503970D01*
X45918160Y-13629184D01*
X46174143Y-13969586D01*
X46373559Y-14272323D01*
X46533514Y-14567060D01*
X46671113Y-14883461D01*
X46727247Y-15032408D01*
X46837318Y-15246731D01*
X47018619Y-15494788D01*
X47256692Y-15759146D01*
X47537079Y-16022371D01*
X47575644Y-16055395D01*
X47681844Y-16147922D01*
X47767114Y-16233143D01*
X47841327Y-16327366D01*
X47914358Y-16446896D01*
X47996082Y-16608043D01*
X48096372Y-16827112D01*
X48225103Y-17120411D01*
X48236793Y-17147263D01*
X48356278Y-17418959D01*
X48465002Y-17660859D01*
X48555712Y-17857245D01*
X48621154Y-17992400D01*
X48653151Y-18049571D01*
X48757450Y-18134130D01*
X48929586Y-18231953D01*
X49141249Y-18329552D01*
X49364123Y-18413439D01*
X49503593Y-18454736D01*
X49696654Y-18497430D01*
X49924002Y-18537332D01*
X50165757Y-18572283D01*
X50402039Y-18600125D01*
X50612967Y-18618698D01*
X50778661Y-18625844D01*
X50879241Y-18619403D01*
X50900303Y-18606415D01*
X50881168Y-18554725D01*
X50831348Y-18439056D01*
X50771523Y-18306201D01*
X50692551Y-18095592D01*
X50640602Y-17855522D01*
X50608296Y-17553829D01*
X50588360Y-17323783D01*
X50564398Y-17168287D01*
X50529694Y-17062121D01*
X50477532Y-16980069D01*
X50445694Y-16943336D01*
X50327238Y-16803018D01*
X50211064Y-16648747D01*
X50202335Y-16636160D01*
X50106219Y-16496194D01*
X51066642Y-16496194D01*
X51073492Y-16525860D01*
X51099910Y-16529461D01*
X51140985Y-16511203D01*
X51133178Y-16496194D01*
X51073956Y-16490221D01*
X51066642Y-16496194D01*
X50106219Y-16496194D01*
X50087132Y-16468399D01*
X50451939Y-16486455D01*
X50639783Y-16494200D01*
X50751999Y-16489552D01*
X50812627Y-16465385D01*
X50845705Y-16414573D01*
X50863646Y-16364393D01*
X50865302Y-16354046D01*
X51020363Y-16354046D01*
X51025057Y-16379756D01*
X51088855Y-16427754D01*
X51102855Y-16429658D01*
X51148468Y-16391596D01*
X51149812Y-16379756D01*
X51109194Y-16335962D01*
X51072014Y-16329854D01*
X51020363Y-16354046D01*
X50865302Y-16354046D01*
X50880257Y-16260623D01*
X51166965Y-16260623D01*
X51174763Y-16279953D01*
X51219605Y-16327558D01*
X51227609Y-16329854D01*
X51249043Y-16291246D01*
X51249615Y-16279953D01*
X51211253Y-16231968D01*
X51196768Y-16230051D01*
X51166965Y-16260623D01*
X50880257Y-16260623D01*
X50883798Y-16238501D01*
X50833958Y-16139874D01*
X50826073Y-16130936D01*
X50770050Y-16006158D01*
X50799547Y-15877320D01*
X50903683Y-15779126D01*
X50980324Y-15690110D01*
X51000106Y-15556377D01*
X51032658Y-15403738D01*
X51135360Y-15314388D01*
X51315788Y-15282226D01*
X51340799Y-15281917D01*
X51463108Y-15256942D01*
X51518078Y-15204698D01*
X51583227Y-15134502D01*
X51696034Y-15075773D01*
X51832908Y-14991497D01*
X51880682Y-14863459D01*
X51849707Y-14711389D01*
X51799919Y-14536746D01*
X51814402Y-14430253D01*
X51899079Y-14387237D01*
X52059878Y-14403019D01*
X52195208Y-14438722D01*
X52284906Y-14460472D01*
X52368486Y-14461370D01*
X52468909Y-14435137D01*
X52609137Y-14375494D01*
X52812130Y-14276164D01*
X52839033Y-14262667D01*
X53140858Y-14095723D01*
X53386283Y-13920606D01*
X53615219Y-13709236D01*
X53764658Y-13553256D01*
X53852126Y-13449021D01*
X53887971Y-13379501D01*
X53882542Y-13327664D01*
X53864527Y-13298945D01*
X53818393Y-13189857D01*
X53796430Y-13043514D01*
X53796193Y-13031872D01*
X53824344Y-12887864D01*
X53918556Y-12795011D01*
X54088900Y-12747103D01*
X54274383Y-12736927D01*
X54411673Y-12741962D01*
X54471280Y-12764045D01*
X54475107Y-12813647D01*
X54470243Y-12830545D01*
X54474767Y-12918254D01*
X54552435Y-12953826D01*
X54691130Y-12937009D01*
X54878740Y-12867551D01*
X54935235Y-12840233D01*
X55213269Y-12699642D01*
X55276760Y-12356497D01*
X55312726Y-12125215D01*
X55350539Y-11816736D01*
X55387861Y-11453579D01*
X55422350Y-11058261D01*
X55448188Y-10706359D01*
X55435033Y-10513371D01*
X55384080Y-10406948D01*
X55333681Y-10323830D01*
X55259893Y-10171500D01*
X55174033Y-9974319D01*
X55113929Y-9825515D01*
X55022455Y-9608718D01*
X54929766Y-9417796D01*
X54848917Y-9278321D01*
X54808197Y-9226694D01*
X54771567Y-9189070D01*
X54743785Y-9145882D01*
X54723615Y-9083816D01*
X54709822Y-8989559D01*
X54701172Y-8849796D01*
X54696429Y-8651214D01*
X54694358Y-8380500D01*
X54693725Y-8024339D01*
X54693699Y-7992426D01*
X54692837Y-6865804D01*
X54544390Y-6887591D01*
X54360117Y-6867008D01*
X54182602Y-6786019D01*
X53972811Y-6680130D01*
X53734804Y-6584148D01*
X53493138Y-6505354D01*
X53272371Y-6451029D01*
X53097062Y-6428453D01*
X53007503Y-6437628D01*
X52871782Y-6460646D01*
X52771619Y-6448486D01*
X52651914Y-6442314D01*
X52547061Y-6473505D01*
X52404506Y-6528042D01*
X52259669Y-6565776D01*
X52101441Y-6619267D01*
X51954173Y-6702317D01*
X51811315Y-6807937D01*
X51592842Y-6668783D01*
X51407784Y-6575136D01*
X51252224Y-6542448D01*
X51234627Y-6543393D01*
X51108666Y-6535618D01*
X51030119Y-6503407D01*
X50960350Y-6483481D01*
X50876911Y-6547392D01*
X50875193Y-6549284D01*
X50768706Y-6615361D01*
X50618737Y-6648575D01*
X50453678Y-6650957D01*
X50301921Y-6624538D01*
X50191858Y-6571348D01*
X50151776Y-6497544D01*
X50120687Y-6406976D01*
X50034846Y-6392602D01*
X49905397Y-6455654D01*
X49887722Y-6468290D01*
X49752931Y-6532656D01*
X49639527Y-6504677D01*
X49538412Y-6381059D01*
X49512806Y-6332422D01*
X49448132Y-6245099D01*
X49347198Y-6200277D01*
X49186272Y-6190863D01*
X49063656Y-6198204D01*
X48935618Y-6178215D01*
X48828378Y-6128875D01*
X48675505Y-6073897D01*
X48438808Y-6050729D01*
X48384281Y-6050090D01*
X48060425Y-6050090D01*
X48026911Y-5871450D01*
X47981028Y-5730467D01*
X47899102Y-5665650D01*
X47762264Y-5668085D01*
X47654539Y-5695526D01*
X47541364Y-5722902D01*
X47444683Y-5721102D01*
X47330224Y-5683638D01*
X47163711Y-5604022D01*
X47159268Y-5601780D01*
X46858260Y-5449832D01*
X46858260Y-2507065D01*
X43415038Y-2507065D01*
X43415038Y-9592099D01*
X41169463Y-9605083D01*
X38923889Y-9618067D01*
X38533115Y-9618067D01*
X38475321Y-9503980D01*
X38429554Y-9390100D01*
G37*
G36*
X71475523Y-5609673D02*
G01*
X71507733Y-5581413D01*
X71544829Y-5558552D01*
X71596972Y-5540528D01*
X71674323Y-5526778D01*
X71787044Y-5516741D01*
X71945295Y-5509855D01*
X72159236Y-5505557D01*
X72439031Y-5503285D01*
X72794838Y-5502478D01*
X73236820Y-5502573D01*
X73409217Y-5502711D01*
X73974748Y-5504261D01*
X74450745Y-5508457D01*
X74847463Y-5516179D01*
X75175155Y-5528308D01*
X75444075Y-5545723D01*
X75664478Y-5569306D01*
X75846616Y-5599935D01*
X76000745Y-5638492D01*
X76137119Y-5685857D01*
X76265991Y-5742910D01*
X76278521Y-5749015D01*
X76572169Y-5934388D01*
X76861487Y-6190843D01*
X77121163Y-6491892D01*
X77325886Y-6811042D01*
X77361887Y-6882846D01*
X77522896Y-7222782D01*
X77522896Y-8046161D01*
X77522374Y-8351247D01*
X77519029Y-8576415D01*
X77510191Y-8741551D01*
X77493192Y-8866541D01*
X77465362Y-8971270D01*
X77424032Y-9075624D01*
X77368708Y-9194899D01*
X77147546Y-9563416D01*
X76856353Y-9900321D01*
X76515643Y-10187748D01*
X76145932Y-10407832D01*
X75843311Y-10523337D01*
X75657307Y-10558803D01*
X75372674Y-10588132D01*
X74990399Y-10611243D01*
X74566216Y-10626590D01*
X73555706Y-10654559D01*
X73555706Y-11886652D01*
X73557262Y-12305564D01*
X73556559Y-12635409D01*
X73545541Y-12886754D01*
X73516149Y-13070167D01*
X73460329Y-13196213D01*
X73370022Y-13275462D01*
X73237171Y-13318480D01*
X73053721Y-13335836D01*
X72811613Y-13338095D01*
X72502791Y-13335826D01*
X72450874Y-13335748D01*
X72135658Y-13335243D01*
X71904700Y-13332510D01*
X71742452Y-13325719D01*
X71633369Y-13313045D01*
X71561904Y-13292659D01*
X71512511Y-13262733D01*
X71469645Y-13221439D01*
X71468530Y-13220253D01*
X71360028Y-13104758D01*
X71360028Y-10279810D01*
X75074402Y-10279810D01*
X75123453Y-10287801D01*
X75188176Y-10278626D01*
X75188949Y-10261591D01*
X75122161Y-10249679D01*
X75093304Y-10257652D01*
X75074402Y-10279810D01*
X71360028Y-10279810D01*
X71360028Y-10208571D01*
X75518509Y-10208571D01*
X75525359Y-10238237D01*
X75551776Y-10241839D01*
X75592851Y-10223580D01*
X75585044Y-10208571D01*
X75525823Y-10202599D01*
X75518509Y-10208571D01*
X71360028Y-10208571D01*
X71360028Y-10166986D01*
X75701482Y-10166986D01*
X75726433Y-10191937D01*
X75751383Y-10166986D01*
X75726433Y-10142035D01*
X75701482Y-10166986D01*
X71360028Y-10166986D01*
X71360028Y-10067182D01*
X76000892Y-10067182D01*
X76025843Y-10092133D01*
X76050794Y-10067182D01*
X76025843Y-10042232D01*
X76000892Y-10067182D01*
X71360028Y-10067182D01*
X71360028Y-10017281D01*
X76100696Y-10017281D01*
X76125647Y-10042232D01*
X76150598Y-10017281D01*
X76125647Y-9992330D01*
X76100696Y-10017281D01*
X71360028Y-10017281D01*
X71360028Y-9917477D01*
X76250401Y-9917477D01*
X76275352Y-9942428D01*
X76300303Y-9917477D01*
X76275352Y-9892526D01*
X76250401Y-9917477D01*
X71360028Y-9917477D01*
X71360028Y-9889277D01*
X76362440Y-9889277D01*
X76369265Y-9892526D01*
X76414805Y-9857396D01*
X76425057Y-9842625D01*
X76437773Y-9795972D01*
X76430947Y-9792723D01*
X76385408Y-9827853D01*
X76375156Y-9842625D01*
X76362440Y-9889277D01*
X71360028Y-9889277D01*
X71360028Y-9490063D01*
X76761654Y-9490063D01*
X76768480Y-9493312D01*
X76814019Y-9458182D01*
X76824271Y-9443410D01*
X76836987Y-9396758D01*
X76830162Y-9393509D01*
X76784622Y-9428638D01*
X76774370Y-9443410D01*
X76761654Y-9490063D01*
X71360028Y-9490063D01*
X71360028Y-9168951D01*
X76949026Y-9168951D01*
X76973977Y-9193902D01*
X76998928Y-9168951D01*
X76973977Y-9144000D01*
X76949026Y-9168951D01*
X71360028Y-9168951D01*
X71360028Y-9074163D01*
X74301177Y-9074163D01*
X74370178Y-9082038D01*
X74404036Y-9082521D01*
X74494823Y-9077318D01*
X74501572Y-9069147D01*
X76998928Y-9069147D01*
X77023879Y-9094098D01*
X77048829Y-9069147D01*
X77023879Y-9044196D01*
X76998928Y-9069147D01*
X74501572Y-9069147D01*
X74505522Y-9064365D01*
X74491364Y-9059699D01*
X74364802Y-9051939D01*
X74316708Y-9059699D01*
X74301177Y-9074163D01*
X71360028Y-9074163D01*
X71360028Y-9010928D01*
X74869786Y-9010928D01*
X74876636Y-9040595D01*
X74903053Y-9044196D01*
X74944128Y-9025938D01*
X74936321Y-9010928D01*
X74877100Y-9004956D01*
X74869786Y-9010928D01*
X71360028Y-9010928D01*
X71360028Y-8969344D01*
X77048829Y-8969344D01*
X77073780Y-8994294D01*
X77098731Y-8969344D01*
X77073780Y-8944393D01*
X77048829Y-8969344D01*
X71360028Y-8969344D01*
X71360028Y-8819638D01*
X77098731Y-8819638D01*
X77123682Y-8844589D01*
X77148633Y-8819638D01*
X77123682Y-8794687D01*
X77098731Y-8819638D01*
X71360028Y-8819638D01*
X71360028Y-8791438D01*
X75414306Y-8791438D01*
X75421132Y-8794687D01*
X75466671Y-8759558D01*
X75476924Y-8744786D01*
X75489640Y-8698133D01*
X75482814Y-8694884D01*
X75437274Y-8730014D01*
X75427022Y-8744786D01*
X75414306Y-8791438D01*
X71360028Y-8791438D01*
X71360028Y-8760123D01*
X73555706Y-8760123D01*
X74159452Y-8727660D01*
X74484147Y-8704062D01*
X74727841Y-8671248D01*
X74909137Y-8626279D01*
X74984517Y-8597297D01*
X75024694Y-8570129D01*
X75551776Y-8570129D01*
X75576727Y-8595080D01*
X77148633Y-8595080D01*
X77166891Y-8636155D01*
X77181901Y-8628348D01*
X77187873Y-8569126D01*
X77181901Y-8561812D01*
X77152234Y-8568662D01*
X77148633Y-8595080D01*
X75576727Y-8595080D01*
X75601678Y-8570129D01*
X75576727Y-8545179D01*
X75551776Y-8570129D01*
X75024694Y-8570129D01*
X75172288Y-8470326D01*
X75601678Y-8470326D01*
X75626629Y-8495277D01*
X75651580Y-8470326D01*
X75626629Y-8445375D01*
X75601678Y-8470326D01*
X75172288Y-8470326D01*
X75185998Y-8461055D01*
X75279047Y-8320621D01*
X75651580Y-8320621D01*
X75676531Y-8345571D01*
X75701482Y-8320621D01*
X75676531Y-8295670D01*
X75651580Y-8320621D01*
X75279047Y-8320621D01*
X75308469Y-8276215D01*
X75346019Y-8061423D01*
X75342423Y-8046161D01*
X77212126Y-8046161D01*
X77216019Y-8154091D01*
X77225972Y-8183719D01*
X77233752Y-8158440D01*
X77242008Y-8013027D01*
X77233752Y-7933882D01*
X77221412Y-7910234D01*
X77213582Y-7972930D01*
X77212126Y-8046161D01*
X75342423Y-8046161D01*
X75292740Y-7835323D01*
X75272376Y-7796652D01*
X75651580Y-7796652D01*
X75669838Y-7837727D01*
X75684848Y-7829920D01*
X75690820Y-7770698D01*
X75684848Y-7763384D01*
X75655181Y-7770234D01*
X75651580Y-7796652D01*
X75272376Y-7796652D01*
X75251087Y-7756223D01*
X75159574Y-7639660D01*
X75036901Y-7552692D01*
X74886262Y-7497241D01*
X77148633Y-7497241D01*
X77166891Y-7538316D01*
X77181901Y-7530509D01*
X77187873Y-7471288D01*
X77181901Y-7463974D01*
X77152234Y-7470824D01*
X77148633Y-7497241D01*
X74886262Y-7497241D01*
X74867582Y-7490365D01*
X74636131Y-7447729D01*
X74327064Y-7419829D01*
X74173023Y-7411438D01*
X73555706Y-7382270D01*
X73555706Y-8760123D01*
X71360028Y-8760123D01*
X71360028Y-7272683D01*
X75327218Y-7272683D01*
X75422281Y-7384962D01*
X75510758Y-7479253D01*
X75549294Y-7492866D01*
X75551776Y-7480025D01*
X75518124Y-7439271D01*
X75439497Y-7367746D01*
X75327218Y-7272683D01*
X77098731Y-7272683D01*
X77123682Y-7297634D01*
X77148633Y-7272683D01*
X77123682Y-7247733D01*
X77098731Y-7272683D01*
X75327218Y-7272683D01*
X71360028Y-7272683D01*
X71360028Y-7222782D01*
X75202464Y-7222782D01*
X75227415Y-7247733D01*
X75252366Y-7222782D01*
X75227415Y-7197831D01*
X75202464Y-7222782D01*
X71360028Y-7222782D01*
X71360028Y-7172880D01*
X75102660Y-7172880D01*
X75127611Y-7197831D01*
X75152562Y-7172880D01*
X75127611Y-7147929D01*
X75102660Y-7172880D01*
X71360028Y-7172880D01*
X71360028Y-7122978D01*
X74952955Y-7122978D01*
X74977906Y-7147929D01*
X75002857Y-7122978D01*
X77048829Y-7122978D01*
X77073780Y-7147929D01*
X77098731Y-7122978D01*
X77073780Y-7098027D01*
X77048829Y-7122978D01*
X75002857Y-7122978D01*
X74977906Y-7098027D01*
X74952955Y-7122978D01*
X71360028Y-7122978D01*
X71360028Y-7075879D01*
X74314583Y-7075879D01*
X74374562Y-7084148D01*
X74428987Y-7085443D01*
X74531689Y-7081426D01*
X74558196Y-7070118D01*
X74541847Y-7063741D01*
X74422012Y-7054446D01*
X74342240Y-7062734D01*
X74314583Y-7075879D01*
X71360028Y-7075879D01*
X71360028Y-7023175D01*
X76998928Y-7023175D01*
X77023879Y-7048126D01*
X77048829Y-7023175D01*
X77023879Y-6998224D01*
X76998928Y-7023175D01*
X71360028Y-7023175D01*
X71360028Y-6923371D01*
X76949026Y-6923371D01*
X76973977Y-6948322D01*
X76998928Y-6923371D01*
X76973977Y-6898420D01*
X76949026Y-6923371D01*
X71360028Y-6923371D01*
X71360028Y-6823568D01*
X76899124Y-6823568D01*
X76924075Y-6848518D01*
X76949026Y-6823568D01*
X76924075Y-6798617D01*
X76899124Y-6823568D01*
X71360028Y-6823568D01*
X71360028Y-6673862D01*
X76799321Y-6673862D01*
X76824271Y-6698813D01*
X76849222Y-6673862D01*
X76824271Y-6648911D01*
X76799321Y-6673862D01*
X71360028Y-6673862D01*
X71360028Y-6214100D01*
X76358249Y-6214100D01*
X76370390Y-6241987D01*
X76420636Y-6295559D01*
X76449522Y-6284569D01*
X76450008Y-6277593D01*
X76414564Y-6235385D01*
X76392396Y-6219981D01*
X76358249Y-6214100D01*
X71360028Y-6214100D01*
X71360028Y-6124943D01*
X76200499Y-6124943D01*
X76225450Y-6149894D01*
X76250401Y-6124943D01*
X76225450Y-6099992D01*
X76200499Y-6124943D01*
X71360028Y-6124943D01*
X71360028Y-6075041D01*
X76100696Y-6075041D01*
X76125647Y-6099992D01*
X76150598Y-6075041D01*
X76125647Y-6050090D01*
X76100696Y-6075041D01*
X71360028Y-6075041D01*
X71360028Y-6025139D01*
X76000892Y-6025139D01*
X76025843Y-6050090D01*
X76050794Y-6025139D01*
X76025843Y-6000188D01*
X76000892Y-6025139D01*
X71360028Y-6025139D01*
X71360028Y-5975238D01*
X75851187Y-5975238D01*
X75876138Y-6000188D01*
X75901089Y-5975238D01*
X75876138Y-5950287D01*
X75851187Y-5975238D01*
X71360028Y-5975238D01*
X71360028Y-5925336D01*
X75651580Y-5925336D01*
X75676531Y-5950287D01*
X75701482Y-5925336D01*
X75676531Y-5900385D01*
X75651580Y-5925336D01*
X71360028Y-5925336D01*
X71360028Y-5888454D01*
X75224107Y-5888454D01*
X75273158Y-5896445D01*
X75337882Y-5887270D01*
X75338654Y-5870236D01*
X75271866Y-5858323D01*
X75243009Y-5866296D01*
X75224107Y-5888454D01*
X71360028Y-5888454D01*
X71360028Y-5718175D01*
X71475523Y-5609673D01*
G37*
G36*
X57702635Y-5609673D02*
G01*
X57750294Y-5569975D01*
X57806360Y-5541342D01*
X57886818Y-5521974D01*
X58007651Y-5510074D01*
X58184844Y-5503843D01*
X58434380Y-5501483D01*
X58667021Y-5501171D01*
X58969348Y-5499089D01*
X59208744Y-5499740D01*
X59392500Y-5513471D01*
X59527904Y-5550627D01*
X59622249Y-5621556D01*
X59682823Y-5736604D01*
X59716917Y-5906116D01*
X59731821Y-6140440D01*
X59734825Y-6449921D01*
X59733219Y-6844906D01*
X59732916Y-7013915D01*
X59732916Y-8295670D01*
X61828790Y-8295670D01*
X61828790Y-7006922D01*
X61827274Y-6578935D01*
X61827684Y-6240232D01*
X61837453Y-5980445D01*
X61864017Y-5789209D01*
X61914812Y-5656155D01*
X61997272Y-5570916D01*
X62118832Y-5523125D01*
X62286928Y-5502414D01*
X62508994Y-5498418D01*
X62792466Y-5500768D01*
X62908671Y-5501171D01*
X63218822Y-5501712D01*
X63445000Y-5504610D01*
X63603038Y-5511773D01*
X63708764Y-5525111D01*
X63778010Y-5546535D01*
X63826606Y-5577954D01*
X63866064Y-5616666D01*
X63974566Y-5732161D01*
X63974566Y-13118744D01*
X63859071Y-13227246D01*
X63811412Y-13266944D01*
X63755346Y-13295577D01*
X63674888Y-13314945D01*
X63554055Y-13326845D01*
X63376862Y-13333076D01*
X63127326Y-13335436D01*
X62894685Y-13335748D01*
X62606595Y-13338192D01*
X62375285Y-13339002D01*
X62194574Y-13328394D01*
X62058281Y-13296582D01*
X61960226Y-13233784D01*
X61894228Y-13130214D01*
X61854108Y-12976089D01*
X61833685Y-12761625D01*
X61826777Y-12477037D01*
X61827206Y-12112541D01*
X61828789Y-11658354D01*
X61828790Y-11648347D01*
X61828790Y-10191937D01*
X59732916Y-10191937D01*
X59732916Y-13118744D01*
X59617421Y-13227246D01*
X59569762Y-13266944D01*
X59513696Y-13295577D01*
X59433238Y-13314945D01*
X59312405Y-13326845D01*
X59135212Y-13333076D01*
X58885675Y-13335436D01*
X58653035Y-13335748D01*
X58342884Y-13335207D01*
X58116706Y-13332309D01*
X57958668Y-13325146D01*
X57852942Y-13311808D01*
X57783696Y-13290384D01*
X57735100Y-13258965D01*
X57695642Y-13220253D01*
X57587140Y-13104758D01*
X57587140Y-9418460D01*
X57910209Y-9418460D01*
X57910375Y-9956340D01*
X57910860Y-10426299D01*
X57911637Y-10824938D01*
X57912682Y-11148863D01*
X57913968Y-11394677D01*
X57915469Y-11558984D01*
X57917159Y-11638389D01*
X57919014Y-11629494D01*
X57921007Y-11528905D01*
X57923112Y-11333224D01*
X57923953Y-11231070D01*
X57927026Y-10712037D01*
X57928916Y-10124994D01*
X57929622Y-9501728D01*
X57929559Y-9418460D01*
X63648912Y-9418460D01*
X63649078Y-9956340D01*
X63649563Y-10426299D01*
X63650341Y-10824938D01*
X63651385Y-11148863D01*
X63652671Y-11394677D01*
X63654172Y-11558984D01*
X63655863Y-11638389D01*
X63657717Y-11629494D01*
X63659710Y-11528905D01*
X63661815Y-11333224D01*
X63662656Y-11231070D01*
X63665729Y-10712037D01*
X63667619Y-10124994D01*
X63668326Y-9501728D01*
X63667849Y-8874027D01*
X63666188Y-8273676D01*
X63663345Y-7732463D01*
X63662664Y-7638142D01*
X63660525Y-7399829D01*
X63658488Y-7257992D01*
X63656579Y-7209305D01*
X63654822Y-7250442D01*
X63653245Y-7378077D01*
X63651872Y-7588882D01*
X63650729Y-7879531D01*
X63649842Y-8246698D01*
X63649237Y-8687056D01*
X63648939Y-9197278D01*
X63648912Y-9418460D01*
X57929559Y-9418460D01*
X57929145Y-8874027D01*
X57927485Y-8273676D01*
X57924641Y-7732463D01*
X57923961Y-7638142D01*
X57921822Y-7399829D01*
X57919785Y-7257992D01*
X57917875Y-7209305D01*
X57916119Y-7250442D01*
X57914541Y-7378077D01*
X57913168Y-7588882D01*
X57912026Y-7879531D01*
X57911139Y-8246698D01*
X57910534Y-8687056D01*
X57910236Y-9197278D01*
X57910209Y-9418460D01*
X57587140Y-9418460D01*
X57587140Y-5718175D01*
X57702635Y-5609673D01*
G37*
G36*
X26482086Y-7397438D02*
G01*
X26108965Y-7397987D01*
X25823782Y-7393288D01*
X25614761Y-7373821D01*
X25470129Y-7330068D01*
X25378110Y-7252507D01*
X25326930Y-7131621D01*
X25304814Y-6957888D01*
X25299988Y-6721791D01*
X25300696Y-6442311D01*
X25301486Y-6158505D01*
X25305476Y-5956978D01*
X25315098Y-5820206D01*
X25332781Y-5730667D01*
X25360956Y-5670838D01*
X25402054Y-5623198D01*
X25416191Y-5609673D01*
X25531686Y-5501171D01*
X31471118Y-5501171D01*
X31579620Y-5616666D01*
X31622208Y-5668531D01*
X31651942Y-5729961D01*
X31671111Y-5818672D01*
X31682003Y-5952377D01*
X31686909Y-6148790D01*
X31688117Y-6425628D01*
X31688122Y-6456297D01*
X31688652Y-6755499D01*
X31682328Y-6983637D01*
X31657277Y-7150314D01*
X31601628Y-7265134D01*
X31503508Y-7337701D01*
X31351047Y-7377619D01*
X31132371Y-7394491D01*
X30835608Y-7397920D01*
X30524690Y-7397438D01*
X29592248Y-7397438D01*
X29592248Y-13118744D01*
X29476753Y-13227246D01*
X29429094Y-13266944D01*
X29373028Y-13295577D01*
X29292570Y-13314945D01*
X29171737Y-13326845D01*
X28994544Y-13333076D01*
X28745007Y-13335436D01*
X28512367Y-13335748D01*
X28202216Y-13335207D01*
X27976038Y-13332309D01*
X27818000Y-13325146D01*
X27712274Y-13311808D01*
X27643028Y-13290384D01*
X27594432Y-13258965D01*
X27554974Y-13220253D01*
X27446472Y-13104758D01*
X27446472Y-10017281D01*
X27769302Y-10017281D01*
X27769505Y-10505460D01*
X27770093Y-10925451D01*
X27771032Y-11273528D01*
X27772287Y-11545963D01*
X27773826Y-11739027D01*
X27775612Y-11848994D01*
X27777611Y-11872136D01*
X27779790Y-11804725D01*
X27782114Y-11643035D01*
X27783275Y-11530390D01*
X27786631Y-11054525D01*
X27788549Y-10513545D01*
X27789026Y-9942130D01*
X27788063Y-9374959D01*
X27785661Y-8846710D01*
X27783286Y-8536284D01*
X27780910Y-8322553D01*
X27778660Y-8204988D01*
X27776572Y-8179954D01*
X27774679Y-8243813D01*
X27773016Y-8392928D01*
X27771618Y-8623663D01*
X27770519Y-8932382D01*
X27769752Y-9315446D01*
X27769353Y-9769221D01*
X27769302Y-10017281D01*
X27446472Y-10017281D01*
X27446472Y-7397438D01*
X26482086Y-7397438D01*
G37*
G36*
X22579469Y-11325285D02*
G01*
X22640599Y-11281193D01*
X22654579Y-11264825D01*
X23055116Y-11264825D01*
X23080067Y-11289776D01*
X23105018Y-11264825D01*
X23080067Y-11239874D01*
X23055116Y-11264825D01*
X22654579Y-11264825D01*
X22690982Y-11222204D01*
X22731724Y-11140310D01*
X22738915Y-11115120D01*
X23105018Y-11115120D01*
X23129969Y-11140071D01*
X23154920Y-11115120D01*
X23129969Y-11090169D01*
X23105018Y-11115120D01*
X22738915Y-11115120D01*
X22754348Y-11061059D01*
X24606011Y-11061059D01*
X24615185Y-11125783D01*
X24632220Y-11126555D01*
X24644133Y-11059767D01*
X24636160Y-11030910D01*
X24614002Y-11012009D01*
X24606011Y-11061059D01*
X22754348Y-11061059D01*
X22763928Y-11027501D01*
X22788699Y-10875769D01*
X22791958Y-10840660D01*
X23154920Y-10840660D01*
X23173178Y-10881735D01*
X23188188Y-10873928D01*
X23194160Y-10814706D01*
X23188188Y-10807392D01*
X23158521Y-10814242D01*
X23154920Y-10840660D01*
X22791958Y-10840660D01*
X22807141Y-10677106D01*
X22820359Y-10423502D01*
X22821995Y-10366593D01*
X24664557Y-10366593D01*
X24668574Y-10469295D01*
X24679882Y-10495803D01*
X24686259Y-10479454D01*
X24695554Y-10359618D01*
X24687266Y-10279847D01*
X24674121Y-10252190D01*
X24665852Y-10312169D01*
X24664557Y-10366593D01*
X22821995Y-10366593D01*
X22829457Y-10106949D01*
X22835539Y-9719438D01*
X22839710Y-9252960D01*
X22843074Y-8699508D01*
X22845169Y-8321564D01*
X22848482Y-7746753D01*
X22851645Y-7263400D01*
X22855033Y-6863159D01*
X22859017Y-6537686D01*
X22863971Y-6278634D01*
X22870269Y-6077660D01*
X22878281Y-5926418D01*
X22888383Y-5816563D01*
X22900946Y-5739750D01*
X22916344Y-5687634D01*
X22934949Y-5651871D01*
X22957134Y-5624115D01*
X22966147Y-5614393D01*
X23008456Y-5573732D01*
X23057729Y-5544186D01*
X23129411Y-5523982D01*
X23238944Y-5511350D01*
X23401769Y-5504518D01*
X23633330Y-5501715D01*
X23949069Y-5501171D01*
X23953348Y-5501171D01*
X24269555Y-5501588D01*
X24501485Y-5504102D01*
X24664667Y-5510603D01*
X24774628Y-5522984D01*
X24846895Y-5543137D01*
X24896996Y-5572954D01*
X24940457Y-5614327D01*
X24948043Y-5622369D01*
X25061903Y-5743568D01*
X25037743Y-8379442D01*
X25030976Y-9056650D01*
X25023053Y-9642401D01*
X25012590Y-10145040D01*
X24998200Y-10572912D01*
X24978497Y-10934364D01*
X24952096Y-11237741D01*
X24917612Y-11491389D01*
X24873657Y-11703653D01*
X24818848Y-11882879D01*
X24751796Y-12037413D01*
X24671118Y-12175600D01*
X24575427Y-12305787D01*
X24463338Y-12436318D01*
X24342590Y-12565940D01*
X24090971Y-12814164D01*
X23860579Y-12998553D01*
X23619927Y-13140018D01*
X23337528Y-13259472D01*
X23252819Y-13289700D01*
X23123149Y-13330775D01*
X22992696Y-13361215D01*
X22842408Y-13382963D01*
X22653235Y-13397963D01*
X22406129Y-13408158D01*
X22082037Y-13415491D01*
X22007179Y-13416771D01*
X21590863Y-13419919D01*
X21258937Y-13413621D01*
X20996376Y-13397203D01*
X20788152Y-13369993D01*
X20735127Y-13359851D01*
X20273157Y-13217431D01*
X19959329Y-13052972D01*
X21125581Y-13052972D01*
X21132431Y-13082638D01*
X21158849Y-13086239D01*
X21199924Y-13067981D01*
X21192117Y-13052972D01*
X22522831Y-13052972D01*
X22529681Y-13082638D01*
X22556099Y-13086239D01*
X22597173Y-13067981D01*
X22589366Y-13052972D01*
X22530145Y-13046999D01*
X22522831Y-13052972D01*
X21192117Y-13052972D01*
X21132895Y-13046999D01*
X21125581Y-13052972D01*
X19959329Y-13052972D01*
X19879975Y-13011387D01*
X20809537Y-13011387D01*
X20834488Y-13036338D01*
X20859438Y-13011387D01*
X22855509Y-13011387D01*
X22880460Y-13036338D01*
X22905411Y-13011387D01*
X22880460Y-12986436D01*
X22855509Y-13011387D01*
X20859438Y-13011387D01*
X20834488Y-12986436D01*
X20809537Y-13011387D01*
X19879975Y-13011387D01*
X19848323Y-12994800D01*
X19805335Y-12961485D01*
X20609930Y-12961485D01*
X20634881Y-12986436D01*
X20659831Y-12961485D01*
X23055116Y-12961485D01*
X23080067Y-12986436D01*
X23105018Y-12961485D01*
X23080067Y-12936534D01*
X23055116Y-12961485D01*
X20659831Y-12961485D01*
X20634881Y-12936534D01*
X20609930Y-12961485D01*
X19805335Y-12961485D01*
X19740945Y-12911583D01*
X20460224Y-12911583D01*
X20485175Y-12936534D01*
X20510126Y-12911583D01*
X23204822Y-12911583D01*
X23229772Y-12936534D01*
X23254723Y-12911583D01*
X23229772Y-12886632D01*
X23204822Y-12911583D01*
X20510126Y-12911583D01*
X20485175Y-12886632D01*
X20460224Y-12911583D01*
X19740945Y-12911583D01*
X19676556Y-12861682D01*
X23304625Y-12861682D01*
X23329576Y-12886632D01*
X23354527Y-12861682D01*
X23329576Y-12836731D01*
X23304625Y-12861682D01*
X19676556Y-12861682D01*
X19612166Y-12811780D01*
X20210716Y-12811780D01*
X20235666Y-12836731D01*
X20260617Y-12811780D01*
X20235666Y-12786829D01*
X20210716Y-12811780D01*
X19612166Y-12811780D01*
X19483385Y-12711976D01*
X23604036Y-12711976D01*
X23628987Y-12736927D01*
X23653938Y-12711976D01*
X23628987Y-12687025D01*
X23604036Y-12711976D01*
X19483385Y-12711976D01*
X19471924Y-12703094D01*
X19434774Y-12662074D01*
X19961207Y-12662074D01*
X19986158Y-12687025D01*
X20011108Y-12662074D01*
X23703839Y-12662074D01*
X23728790Y-12687025D01*
X23753741Y-12662074D01*
X23728790Y-12637124D01*
X23703839Y-12662074D01*
X20011108Y-12662074D01*
X19986158Y-12637124D01*
X19961207Y-12662074D01*
X19434774Y-12662074D01*
X19289549Y-12501722D01*
X19769644Y-12501722D01*
X19781785Y-12529610D01*
X19832031Y-12583182D01*
X19860917Y-12572192D01*
X19861403Y-12565216D01*
X19837072Y-12536242D01*
X23908738Y-12536242D01*
X23911000Y-12537320D01*
X23958463Y-12504666D01*
X24041517Y-12424822D01*
X24053152Y-12412566D01*
X24124350Y-12330108D01*
X24147664Y-12288889D01*
X24145401Y-12287811D01*
X24097939Y-12320465D01*
X24014885Y-12400309D01*
X24003250Y-12412566D01*
X23932052Y-12495023D01*
X23908738Y-12536242D01*
X19837072Y-12536242D01*
X19825959Y-12523008D01*
X19803791Y-12507604D01*
X19769644Y-12501722D01*
X19289549Y-12501722D01*
X19155262Y-12353448D01*
X19061624Y-12202312D01*
X19470233Y-12202312D01*
X19482375Y-12230199D01*
X19532620Y-12283771D01*
X19561507Y-12272781D01*
X19561993Y-12265805D01*
X19526548Y-12223598D01*
X19504381Y-12208193D01*
X19470233Y-12202312D01*
X19061624Y-12202312D01*
X19006386Y-12113155D01*
X24252759Y-12113155D01*
X24277710Y-12138106D01*
X24302660Y-12113155D01*
X24277710Y-12088204D01*
X24252759Y-12113155D01*
X19006386Y-12113155D01*
X18975469Y-12063253D01*
X19362385Y-12063253D01*
X19387336Y-12088204D01*
X19412287Y-12063253D01*
X19387336Y-12038302D01*
X19362385Y-12063253D01*
X18975469Y-12063253D01*
X18909638Y-11956998D01*
X18893219Y-11913548D01*
X19262582Y-11913548D01*
X19287533Y-11938499D01*
X19312484Y-11913548D01*
X19287533Y-11888597D01*
X19262582Y-11913548D01*
X18893219Y-11913548D01*
X18879282Y-11876666D01*
X21579707Y-11876666D01*
X21628757Y-11884657D01*
X21685135Y-11876666D01*
X22028823Y-11876666D01*
X22077873Y-11884657D01*
X22142597Y-11875483D01*
X22143369Y-11858448D01*
X22076581Y-11846536D01*
X22047724Y-11854508D01*
X22028823Y-11876666D01*
X21685135Y-11876666D01*
X21693481Y-11875483D01*
X21694253Y-11858448D01*
X21627465Y-11846536D01*
X21598608Y-11854508D01*
X21579707Y-11876666D01*
X18879282Y-11876666D01*
X18855506Y-11813744D01*
X19212680Y-11813744D01*
X19237631Y-11838695D01*
X19262582Y-11813744D01*
X21308554Y-11813744D01*
X21333505Y-11838695D01*
X21358456Y-11813744D01*
X22356492Y-11813744D01*
X22381442Y-11838695D01*
X22406393Y-11813744D01*
X22381442Y-11788793D01*
X22356492Y-11813744D01*
X21358456Y-11813744D01*
X21333505Y-11788793D01*
X21308554Y-11813744D01*
X19262582Y-11813744D01*
X19237631Y-11788793D01*
X19212680Y-11813744D01*
X18855506Y-11813744D01*
X18836650Y-11763843D01*
X21158849Y-11763843D01*
X21183800Y-11788793D01*
X21208751Y-11763843D01*
X22506197Y-11763843D01*
X22531148Y-11788793D01*
X22556099Y-11763843D01*
X22531148Y-11738892D01*
X22506197Y-11763843D01*
X21208751Y-11763843D01*
X21183800Y-11738892D01*
X21158849Y-11763843D01*
X18836650Y-11763843D01*
X18817793Y-11713941D01*
X19162778Y-11713941D01*
X19187729Y-11738892D01*
X19212680Y-11713941D01*
X21059046Y-11713941D01*
X21083996Y-11738892D01*
X21108947Y-11713941D01*
X24452366Y-11713941D01*
X24477317Y-11738892D01*
X24502268Y-11713941D01*
X24477317Y-11688990D01*
X24452366Y-11713941D01*
X21108947Y-11713941D01*
X21083996Y-11688990D01*
X21059046Y-11713941D01*
X19212680Y-11713941D01*
X19187729Y-11688990D01*
X19162778Y-11713941D01*
X18817793Y-11713941D01*
X18798936Y-11664039D01*
X22705804Y-11664039D01*
X22730755Y-11688990D01*
X22755706Y-11664039D01*
X22730755Y-11639088D01*
X22705804Y-11664039D01*
X18798936Y-11664039D01*
X18780080Y-11614137D01*
X20909340Y-11614137D01*
X20934291Y-11639088D01*
X20959242Y-11614137D01*
X20934291Y-11589186D01*
X20909340Y-11614137D01*
X18780080Y-11614137D01*
X18761224Y-11564236D01*
X19112877Y-11564236D01*
X19137827Y-11589186D01*
X19162778Y-11564236D01*
X24502268Y-11564236D01*
X24527218Y-11589186D01*
X24552169Y-11564236D01*
X24527218Y-11539285D01*
X24502268Y-11564236D01*
X19162778Y-11564236D01*
X19137827Y-11539285D01*
X19112877Y-11564236D01*
X18761224Y-11564236D01*
X18746352Y-11524879D01*
X18710253Y-11364628D01*
X19062975Y-11364628D01*
X19087926Y-11389579D01*
X19112877Y-11364628D01*
X20659831Y-11364628D01*
X20684782Y-11389579D01*
X20709733Y-11364628D01*
X20684782Y-11339678D01*
X20659831Y-11364628D01*
X19112877Y-11364628D01*
X19087926Y-11339678D01*
X19062975Y-11364628D01*
X18710253Y-11364628D01*
X18697013Y-11243560D01*
X18684893Y-11040267D01*
X19013073Y-11040267D01*
X19031331Y-11081342D01*
X19046341Y-11073535D01*
X19047180Y-11065218D01*
X20510126Y-11065218D01*
X20535077Y-11090169D01*
X20560028Y-11065218D01*
X20535077Y-11040267D01*
X20510126Y-11065218D01*
X19047180Y-11065218D01*
X19052313Y-11014313D01*
X19046341Y-11006999D01*
X19016674Y-11013849D01*
X19013073Y-11040267D01*
X18684893Y-11040267D01*
X18684235Y-11029236D01*
X18678644Y-10890562D01*
X20460224Y-10890562D01*
X20478483Y-10931636D01*
X20493492Y-10923830D01*
X20499464Y-10864608D01*
X20493492Y-10857294D01*
X20463826Y-10864144D01*
X20460224Y-10890562D01*
X18678644Y-10890562D01*
X18672098Y-10728206D01*
X18664325Y-10466397D01*
X18972900Y-10466397D01*
X18978293Y-10551620D01*
X18993915Y-10559123D01*
X18995904Y-10554674D01*
X19005775Y-10455610D01*
X18997753Y-10404969D01*
X18981868Y-10384619D01*
X18973229Y-10450900D01*
X18972900Y-10466397D01*
X18664325Y-10466397D01*
X18660780Y-10347019D01*
X18650461Y-9892222D01*
X18641317Y-9370364D01*
X18633529Y-8787993D01*
X18629501Y-8403765D01*
X18625882Y-8021210D01*
X20433244Y-8021210D01*
X20433526Y-8434590D01*
X20434345Y-8779283D01*
X20435643Y-9050917D01*
X20437364Y-9245120D01*
X20439451Y-9357523D01*
X20441847Y-9383752D01*
X20444496Y-9319437D01*
X20447341Y-9160207D01*
X20447687Y-9134916D01*
X20451588Y-8724456D01*
X20453471Y-8254355D01*
X20453335Y-7764757D01*
X20451181Y-7295803D01*
X20447708Y-6939238D01*
X20444851Y-6762404D01*
X20442181Y-6681145D01*
X20439754Y-6691232D01*
X20437627Y-6788437D01*
X20435857Y-6968532D01*
X20434499Y-7227289D01*
X20433611Y-7560479D01*
X20433249Y-7963873D01*
X20433244Y-8021210D01*
X18625882Y-8021210D01*
X18604322Y-5742313D01*
X18717592Y-5621742D01*
X18761978Y-5577965D01*
X18810792Y-5546315D01*
X18879841Y-5524828D01*
X18984929Y-5511536D01*
X19141862Y-5504474D01*
X19366444Y-5501674D01*
X19674481Y-5501171D01*
X19686747Y-5501171D01*
X19998323Y-5501702D01*
X20225847Y-5504552D01*
X20385066Y-5511607D01*
X20491731Y-5524754D01*
X20561590Y-5545879D01*
X20610393Y-5576867D01*
X20651133Y-5616666D01*
X20677795Y-5646902D01*
X20699699Y-5681747D01*
X20717323Y-5730657D01*
X20731146Y-5803089D01*
X20741649Y-5908499D01*
X20749310Y-6056344D01*
X20754609Y-6256081D01*
X20758025Y-6517166D01*
X20760038Y-6849055D01*
X20761127Y-7261206D01*
X20761771Y-7763075D01*
X20761810Y-7799868D01*
X20763350Y-8462614D01*
X20767222Y-9033129D01*
X20774545Y-9518978D01*
X20786441Y-9927727D01*
X20804031Y-10266941D01*
X20828437Y-10544186D01*
X20860778Y-10767026D01*
X20902175Y-10943028D01*
X20953751Y-11079756D01*
X21016625Y-11184776D01*
X21091920Y-11265653D01*
X21180754Y-11329953D01*
X21284251Y-11385240D01*
X21293725Y-11389750D01*
X21596152Y-11483810D01*
X21930026Y-11506992D01*
X22256145Y-11458911D01*
X22420554Y-11400813D01*
X22501693Y-11364628D01*
X23005215Y-11364628D01*
X23030165Y-11389579D01*
X24552169Y-11389579D01*
X24570428Y-11430654D01*
X24585437Y-11422847D01*
X24591409Y-11363625D01*
X24585437Y-11356312D01*
X24555771Y-11363162D01*
X24552169Y-11389579D01*
X23030165Y-11389579D01*
X23055116Y-11364628D01*
X23030165Y-11339678D01*
X23005215Y-11364628D01*
X22501693Y-11364628D01*
X22506489Y-11362489D01*
X22579469Y-11325285D01*
G37*
G36*
X64954083Y-5501171D02*
G01*
X70544202Y-5501171D01*
X70652705Y-5616666D01*
X70695293Y-5668531D01*
X70725027Y-5729961D01*
X70744195Y-5818672D01*
X70755088Y-5952377D01*
X70759993Y-6148790D01*
X70761201Y-6425628D01*
X70761207Y-6456297D01*
X70763903Y-6690078D01*
X70766052Y-6881892D01*
X70758745Y-7035856D01*
X70733075Y-7156085D01*
X70680132Y-7246697D01*
X70591009Y-7311807D01*
X70456797Y-7355534D01*
X70268588Y-7381991D01*
X70017472Y-7395298D01*
X69694543Y-7399569D01*
X69290891Y-7398921D01*
X68797607Y-7397471D01*
X68724493Y-7397438D01*
X66918771Y-7397438D01*
X66918771Y-8295670D01*
X70244792Y-8295670D01*
X70353294Y-8411165D01*
X70395882Y-8463030D01*
X70425616Y-8524460D01*
X70444785Y-8613171D01*
X70455677Y-8746876D01*
X70460583Y-8943289D01*
X70461791Y-9220127D01*
X70461796Y-9250796D01*
X70464264Y-9492697D01*
X70465494Y-9689482D01*
X70456223Y-9845768D01*
X70427188Y-9966178D01*
X70369126Y-10055330D01*
X70272775Y-10117844D01*
X70128871Y-10158341D01*
X69928152Y-10181439D01*
X69661355Y-10191759D01*
X69319218Y-10193920D01*
X68892477Y-10192542D01*
X68574788Y-10191937D01*
X66918771Y-10191937D01*
X66918771Y-11439481D01*
X70693908Y-11439481D01*
X70802410Y-11554976D01*
X70844998Y-11606841D01*
X70874732Y-11668272D01*
X70893901Y-11756982D01*
X70904793Y-11890687D01*
X70909699Y-12087101D01*
X70910906Y-12363938D01*
X70910912Y-12394608D01*
X70910122Y-12678414D01*
X70906131Y-12879941D01*
X70896510Y-13016713D01*
X70878827Y-13106252D01*
X70850652Y-13166081D01*
X70809554Y-13213721D01*
X70795417Y-13227246D01*
X70679922Y-13335748D01*
X64940097Y-13335748D01*
X64723093Y-13104758D01*
X64723093Y-9243803D01*
X70131714Y-9243803D01*
X70132913Y-9447710D01*
X70136205Y-9578679D01*
X70141132Y-9628643D01*
X70147236Y-9589536D01*
X70149431Y-9555689D01*
X70156383Y-9318409D01*
X70154461Y-9059176D01*
X70149431Y-8931917D01*
X70143040Y-8861630D01*
X70137674Y-8883078D01*
X70133791Y-8988194D01*
X70131850Y-9168912D01*
X70131714Y-9243803D01*
X64723093Y-9243803D01*
X64723093Y-5718175D01*
X64954083Y-5501171D01*
G37*
G36*
X52715508Y-8781399D02*
G01*
X52843532Y-8885158D01*
X52895707Y-9046946D01*
X52896374Y-9070540D01*
X52874887Y-9222577D01*
X52816615Y-9437283D01*
X52730842Y-9688794D01*
X52626854Y-9951245D01*
X52513933Y-10198769D01*
X52442290Y-10335574D01*
X52104683Y-10857565D01*
X51687931Y-11368189D01*
X51212212Y-11846281D01*
X50697703Y-12270680D01*
X50401285Y-12476272D01*
X50117795Y-12644575D01*
X49806196Y-12804057D01*
X49479612Y-12950573D01*
X49151168Y-13079977D01*
X48833988Y-13188126D01*
X48541197Y-13270873D01*
X48285920Y-13324075D01*
X48081281Y-13343585D01*
X47940405Y-13325258D01*
X47878942Y-13272885D01*
X47885151Y-13211713D01*
X47913340Y-13064867D01*
X47960994Y-12843425D01*
X48025597Y-12558465D01*
X48104634Y-12221063D01*
X48195589Y-11842296D01*
X48295947Y-11433243D01*
X48304673Y-11398067D01*
X48406548Y-10985245D01*
X48500343Y-10600379D01*
X48583383Y-10254815D01*
X48652992Y-9959898D01*
X48706494Y-9726974D01*
X48741212Y-9567388D01*
X48754471Y-9492486D01*
X48754527Y-9490760D01*
X48734836Y-9425102D01*
X48665135Y-9380557D01*
X48529479Y-9351776D01*
X48311923Y-9333407D01*
X48280460Y-9331696D01*
X48030951Y-9318656D01*
X48036954Y-9128016D01*
X48051695Y-8992826D01*
X48080434Y-8902126D01*
X48087387Y-8892948D01*
X48149462Y-8874680D01*
X48289826Y-8853217D01*
X48488066Y-8830189D01*
X48723765Y-8807228D01*
X48976509Y-8785966D01*
X49225883Y-8768034D01*
X49451473Y-8755064D01*
X49632864Y-8748687D01*
X49749640Y-8750536D01*
X49781926Y-8757515D01*
X49789597Y-8779787D01*
X49788420Y-8828746D01*
X49776643Y-8912147D01*
X49752511Y-9037742D01*
X49714273Y-9213282D01*
X49660175Y-9446520D01*
X49588465Y-9745210D01*
X49497390Y-10117102D01*
X49385197Y-10569950D01*
X49250134Y-11111506D01*
X49245497Y-11130055D01*
X49150156Y-11515372D01*
X49064455Y-11869270D01*
X48991027Y-12180283D01*
X48932501Y-12436946D01*
X48891509Y-12627794D01*
X48870682Y-12741362D01*
X48869479Y-12768710D01*
X48922741Y-12759604D01*
X49043874Y-12713138D01*
X49212087Y-12637767D01*
X49322237Y-12584534D01*
X49873726Y-12257957D01*
X50389626Y-11847052D01*
X50859002Y-11364201D01*
X51270918Y-10821786D01*
X51614441Y-10232190D01*
X51828105Y-9746916D01*
X51955317Y-9415887D01*
X52056520Y-9166993D01*
X52139793Y-8988564D01*
X52213218Y-8868934D01*
X52284873Y-8796435D01*
X52362839Y-8759400D01*
X52455197Y-8746161D01*
X52522110Y-8744786D01*
X52715508Y-8781399D01*
G37*
G36*
X35820409Y-12595013D02*
G01*
X35807597Y-12562271D01*
X36179281Y-12562271D01*
X36204232Y-12587222D01*
X36229183Y-12562271D01*
X37776138Y-12562271D01*
X37801089Y-12587222D01*
X37826040Y-12562271D01*
X37801089Y-12537320D01*
X37776138Y-12562271D01*
X36229183Y-12562271D01*
X36204232Y-12537320D01*
X36179281Y-12562271D01*
X35807597Y-12562271D01*
X35754647Y-12426953D01*
X35748982Y-12412566D01*
X36129380Y-12412566D01*
X36154330Y-12437516D01*
X36179281Y-12412566D01*
X36154330Y-12387615D01*
X36129380Y-12412566D01*
X35748982Y-12412566D01*
X35709680Y-12312762D01*
X36079478Y-12312762D01*
X36104429Y-12337713D01*
X36129380Y-12312762D01*
X37676334Y-12312762D01*
X37701285Y-12337713D01*
X37726236Y-12312762D01*
X37701285Y-12287811D01*
X37676334Y-12312762D01*
X36129380Y-12312762D01*
X36104429Y-12287811D01*
X36079478Y-12312762D01*
X35709680Y-12312762D01*
X35650728Y-12163057D01*
X36029576Y-12163057D01*
X36054527Y-12188008D01*
X36079478Y-12163057D01*
X36054527Y-12138106D01*
X36029576Y-12163057D01*
X35650728Y-12163057D01*
X35611426Y-12063253D01*
X37576531Y-12063253D01*
X37601482Y-12088204D01*
X37626433Y-12063253D01*
X37601482Y-12038302D01*
X37576531Y-12063253D01*
X35611426Y-12063253D01*
X35552474Y-11913548D01*
X35929772Y-11913548D01*
X35954723Y-11938499D01*
X35979674Y-11913548D01*
X35954723Y-11888597D01*
X35929772Y-11913548D01*
X35552474Y-11913548D01*
X35513172Y-11813744D01*
X37476727Y-11813744D01*
X37501678Y-11838695D01*
X37526629Y-11813744D01*
X37501678Y-11788793D01*
X37476727Y-11813744D01*
X35513172Y-11813744D01*
X35493522Y-11763843D01*
X34345777Y-11750463D01*
X33198032Y-11737084D01*
X33143510Y-11875218D01*
X33104480Y-11976901D01*
X33040267Y-12147177D01*
X32960273Y-12361019D01*
X32886013Y-12560715D01*
X32790574Y-12818524D01*
X32711130Y-13011840D01*
X32631880Y-13149922D01*
X32537024Y-13242028D01*
X32410762Y-13297417D01*
X32237292Y-13325349D01*
X32000814Y-13335080D01*
X31685528Y-13335871D01*
X31563368Y-13335748D01*
X31241760Y-13335285D01*
X31004753Y-13332741D01*
X30837143Y-13326386D01*
X30723728Y-13314488D01*
X30649305Y-13295316D01*
X30598671Y-13267140D01*
X30556624Y-13228227D01*
X30549080Y-13220253D01*
X30469817Y-13089968D01*
X30440578Y-12960179D01*
X30452702Y-12911583D01*
X32336845Y-12911583D01*
X32361796Y-12936534D01*
X32386747Y-12911583D01*
X32361796Y-12886632D01*
X32336845Y-12911583D01*
X30452702Y-12911583D01*
X30458547Y-12888156D01*
X30500368Y-12761878D01*
X30839792Y-12761878D01*
X30864743Y-12786829D01*
X30889694Y-12761878D01*
X32386747Y-12761878D01*
X32411698Y-12786829D01*
X32436649Y-12761878D01*
X32411698Y-12736927D01*
X32386747Y-12761878D01*
X30889694Y-12761878D01*
X30864743Y-12736927D01*
X30839792Y-12761878D01*
X30500368Y-12761878D01*
X30510157Y-12732322D01*
X30535057Y-12662074D01*
X32436649Y-12662074D01*
X32461600Y-12687025D01*
X32486550Y-12662074D01*
X32461600Y-12637124D01*
X32436649Y-12662074D01*
X30535057Y-12662074D01*
X30552744Y-12612173D01*
X30889694Y-12612173D01*
X30914645Y-12637124D01*
X30939596Y-12612173D01*
X30914645Y-12587222D01*
X30889694Y-12612173D01*
X30552744Y-12612173D01*
X30588119Y-12512369D01*
X30939596Y-12512369D01*
X30964547Y-12537320D01*
X30989497Y-12512369D01*
X32486550Y-12512369D01*
X32511501Y-12537320D01*
X32536452Y-12512369D01*
X32511501Y-12487418D01*
X32486550Y-12512369D01*
X30989497Y-12512369D01*
X30964547Y-12487418D01*
X30939596Y-12512369D01*
X30588119Y-12512369D01*
X30591963Y-12501525D01*
X30642734Y-12362664D01*
X30989497Y-12362664D01*
X31014448Y-12387615D01*
X31039399Y-12362664D01*
X32536452Y-12362664D01*
X32561403Y-12387615D01*
X32586354Y-12362664D01*
X32561403Y-12337713D01*
X32536452Y-12362664D01*
X31039399Y-12362664D01*
X31014448Y-12337713D01*
X30989497Y-12362664D01*
X30642734Y-12362664D01*
X30700521Y-12204611D01*
X30734570Y-12113155D01*
X31089301Y-12113155D01*
X31114252Y-12138106D01*
X31139203Y-12113155D01*
X32636256Y-12113155D01*
X32661207Y-12138106D01*
X32686158Y-12113155D01*
X32661207Y-12088204D01*
X32636256Y-12113155D01*
X31139203Y-12113155D01*
X31114252Y-12088204D01*
X31089301Y-12113155D01*
X30734570Y-12113155D01*
X30790306Y-11963450D01*
X32686158Y-11963450D01*
X32711108Y-11988401D01*
X32736059Y-11963450D01*
X32711108Y-11938499D01*
X32686158Y-11963450D01*
X30790306Y-11963450D01*
X30827464Y-11863646D01*
X31189105Y-11863646D01*
X31214055Y-11888597D01*
X31239006Y-11863646D01*
X31214055Y-11838695D01*
X31189105Y-11863646D01*
X30827464Y-11863646D01*
X30832385Y-11850428D01*
X30846210Y-11813744D01*
X32736059Y-11813744D01*
X32761010Y-11838695D01*
X32785961Y-11813744D01*
X32761010Y-11788793D01*
X32736059Y-11813744D01*
X30846210Y-11813744D01*
X30883822Y-11713941D01*
X32785961Y-11713941D01*
X32810912Y-11738892D01*
X32835863Y-11713941D01*
X32810912Y-11688990D01*
X32785961Y-11713941D01*
X30883822Y-11713941D01*
X30902628Y-11664039D01*
X35829969Y-11664039D01*
X35854920Y-11688990D01*
X35879871Y-11664039D01*
X35854920Y-11639088D01*
X35829969Y-11664039D01*
X30902628Y-11664039D01*
X30921434Y-11614137D01*
X31288908Y-11614137D01*
X31313859Y-11639088D01*
X31338810Y-11614137D01*
X31313859Y-11589186D01*
X31288908Y-11614137D01*
X30921434Y-11614137D01*
X30940240Y-11564236D01*
X32835863Y-11564236D01*
X32860814Y-11589186D01*
X32885765Y-11564236D01*
X37376924Y-11564236D01*
X37401875Y-11589186D01*
X37426826Y-11564236D01*
X37401875Y-11539285D01*
X37376924Y-11564236D01*
X32885765Y-11564236D01*
X32860814Y-11539285D01*
X32835863Y-11564236D01*
X30940240Y-11564236D01*
X30959046Y-11514334D01*
X35780067Y-11514334D01*
X35805018Y-11539285D01*
X35829969Y-11514334D01*
X35805018Y-11489383D01*
X35780067Y-11514334D01*
X30959046Y-11514334D01*
X30977852Y-11464432D01*
X31338810Y-11464432D01*
X31363761Y-11489383D01*
X31388712Y-11464432D01*
X31363761Y-11439481D01*
X31338810Y-11464432D01*
X30977852Y-11464432D01*
X30984112Y-11447821D01*
X30996771Y-11414530D01*
X32885765Y-11414530D01*
X32910716Y-11439481D01*
X32935666Y-11414530D01*
X35730165Y-11414530D01*
X35755116Y-11439481D01*
X35780067Y-11414530D01*
X35755116Y-11389579D01*
X35730165Y-11414530D01*
X32935666Y-11414530D01*
X32910716Y-11389579D01*
X32885765Y-11414530D01*
X30996771Y-11414530D01*
X31015747Y-11364628D01*
X31388712Y-11364628D01*
X31413662Y-11389579D01*
X31438613Y-11364628D01*
X31413662Y-11339678D01*
X31388712Y-11364628D01*
X31015747Y-11364628D01*
X31034722Y-11314727D01*
X37277120Y-11314727D01*
X37302071Y-11339678D01*
X37327022Y-11314727D01*
X37302071Y-11289776D01*
X37277120Y-11314727D01*
X31034722Y-11314727D01*
X31072673Y-11214923D01*
X31438613Y-11214923D01*
X31463564Y-11239874D01*
X31488515Y-11214923D01*
X31463564Y-11189972D01*
X31438613Y-11214923D01*
X31072673Y-11214923D01*
X31129600Y-11065218D01*
X37177317Y-11065218D01*
X37202268Y-11090169D01*
X37227218Y-11065218D01*
X37202268Y-11040267D01*
X37177317Y-11065218D01*
X31129600Y-11065218D01*
X31152256Y-11005637D01*
X31167661Y-10965414D01*
X31538417Y-10965414D01*
X31563368Y-10990365D01*
X31588319Y-10965414D01*
X31563368Y-10940463D01*
X31538417Y-10965414D01*
X31167661Y-10965414D01*
X31224994Y-10815709D01*
X37077513Y-10815709D01*
X37102464Y-10840660D01*
X37127415Y-10815709D01*
X37102464Y-10790758D01*
X37077513Y-10815709D01*
X31224994Y-10815709D01*
X31263217Y-10715905D01*
X31638220Y-10715905D01*
X31663171Y-10740856D01*
X31688122Y-10715905D01*
X31663171Y-10690955D01*
X31638220Y-10715905D01*
X31263217Y-10715905D01*
X31320551Y-10566200D01*
X31688122Y-10566200D01*
X31713073Y-10591151D01*
X31738024Y-10566200D01*
X36977710Y-10566200D01*
X37002660Y-10591151D01*
X37027611Y-10566200D01*
X37002660Y-10541249D01*
X36977710Y-10566200D01*
X31738024Y-10566200D01*
X31713073Y-10541249D01*
X31688122Y-10566200D01*
X31320551Y-10566200D01*
X31333371Y-10532725D01*
X31358927Y-10466397D01*
X31738024Y-10466397D01*
X31762975Y-10491348D01*
X31787926Y-10466397D01*
X31762975Y-10441446D01*
X31738024Y-10466397D01*
X31358927Y-10466397D01*
X31416608Y-10316691D01*
X31787926Y-10316691D01*
X31812877Y-10341642D01*
X31837827Y-10316691D01*
X36877906Y-10316691D01*
X36902857Y-10341642D01*
X36927808Y-10316691D01*
X36902857Y-10291740D01*
X36877906Y-10316691D01*
X31837827Y-10316691D01*
X31812877Y-10291740D01*
X31787926Y-10316691D01*
X31416608Y-10316691D01*
X31493517Y-10117084D01*
X35231148Y-10117084D01*
X35256099Y-10142035D01*
X35281049Y-10117084D01*
X35256099Y-10092133D01*
X35231148Y-10117084D01*
X31493517Y-10117084D01*
X31512744Y-10067182D01*
X31887729Y-10067182D01*
X31912680Y-10092133D01*
X31937631Y-10067182D01*
X33384782Y-10067182D01*
X33409733Y-10092133D01*
X33434684Y-10067182D01*
X36778103Y-10067182D01*
X36803053Y-10092133D01*
X36828004Y-10067182D01*
X36803053Y-10042232D01*
X36778103Y-10067182D01*
X33434684Y-10067182D01*
X33409733Y-10042232D01*
X33384782Y-10067182D01*
X31937631Y-10067182D01*
X31912680Y-10042232D01*
X31887729Y-10067182D01*
X31512744Y-10067182D01*
X31524015Y-10037929D01*
X31551345Y-9967379D01*
X35181246Y-9967379D01*
X35206197Y-9992330D01*
X35231148Y-9967379D01*
X35206197Y-9942428D01*
X35181246Y-9967379D01*
X31551345Y-9967379D01*
X31570676Y-9917477D01*
X33434684Y-9917477D01*
X33459635Y-9942428D01*
X33484586Y-9917477D01*
X33459635Y-9892526D01*
X33434684Y-9917477D01*
X31570676Y-9917477D01*
X31609338Y-9817674D01*
X31987533Y-9817674D01*
X32012484Y-9842625D01*
X33889780Y-9842625D01*
X34310955Y-9842625D01*
X34501886Y-9837819D01*
X34647658Y-9825000D01*
X34678509Y-9817674D01*
X35131344Y-9817674D01*
X35156295Y-9842625D01*
X35181246Y-9817674D01*
X36678299Y-9817674D01*
X36703250Y-9842625D01*
X36728201Y-9817674D01*
X36703250Y-9792723D01*
X36678299Y-9817674D01*
X35181246Y-9817674D01*
X35156295Y-9792723D01*
X35131344Y-9817674D01*
X34678509Y-9817674D01*
X34725282Y-9806567D01*
X34732130Y-9798676D01*
X34715049Y-9725676D01*
X34669927Y-9586004D01*
X34663648Y-9568165D01*
X35031541Y-9568165D01*
X35056492Y-9593116D01*
X35081442Y-9568165D01*
X36578495Y-9568165D01*
X36603446Y-9593116D01*
X36628397Y-9568165D01*
X36603446Y-9543214D01*
X36578495Y-9568165D01*
X35081442Y-9568165D01*
X35056492Y-9543214D01*
X35031541Y-9568165D01*
X34663648Y-9568165D01*
X34610958Y-9418460D01*
X34981639Y-9418460D01*
X35006590Y-9443410D01*
X35031541Y-9418460D01*
X35006590Y-9393509D01*
X34981639Y-9418460D01*
X34610958Y-9418460D01*
X34605947Y-9404223D01*
X34574330Y-9318656D01*
X36478692Y-9318656D01*
X36503643Y-9343607D01*
X36528594Y-9318656D01*
X36503643Y-9293705D01*
X36478692Y-9318656D01*
X34574330Y-9318656D01*
X34555891Y-9268754D01*
X34931737Y-9268754D01*
X34956688Y-9293705D01*
X34981639Y-9268754D01*
X34956688Y-9243803D01*
X34931737Y-9268754D01*
X34555891Y-9268754D01*
X34532294Y-9204894D01*
X34479959Y-9069147D01*
X36378888Y-9069147D01*
X36403839Y-9094098D01*
X36428790Y-9069147D01*
X36403839Y-9044196D01*
X36378888Y-9069147D01*
X34479959Y-9069147D01*
X34460720Y-9019245D01*
X34831934Y-9019245D01*
X34856884Y-9044196D01*
X34881835Y-9019245D01*
X34856884Y-8994294D01*
X34831934Y-9019245D01*
X34460720Y-9019245D01*
X34458150Y-9012579D01*
X34399905Y-8869540D01*
X34782032Y-8869540D01*
X34806983Y-8894491D01*
X34831934Y-8869540D01*
X34806983Y-8844589D01*
X34782032Y-8869540D01*
X34399905Y-8869540D01*
X34392698Y-8851840D01*
X34378051Y-8819638D01*
X36279085Y-8819638D01*
X36304036Y-8844589D01*
X36328987Y-8819638D01*
X36304036Y-8794687D01*
X36279085Y-8819638D01*
X34378051Y-8819638D01*
X34345122Y-8747239D01*
X34329702Y-8722330D01*
X34325370Y-8719835D01*
X34732130Y-8719835D01*
X34757081Y-8744786D01*
X34782032Y-8719835D01*
X34757081Y-8694884D01*
X34732130Y-8719835D01*
X34325370Y-8719835D01*
X34287690Y-8698133D01*
X34283014Y-8707594D01*
X34267162Y-8764850D01*
X34224052Y-8896156D01*
X34160357Y-9081700D01*
X34086397Y-9291445D01*
X33889780Y-9842625D01*
X32012484Y-9842625D01*
X32037435Y-9817674D01*
X32012484Y-9792723D01*
X31987533Y-9817674D01*
X31609338Y-9817674D01*
X31667332Y-9667968D01*
X32037435Y-9667968D01*
X32062385Y-9692919D01*
X32087336Y-9667968D01*
X33534488Y-9667968D01*
X33559438Y-9692919D01*
X33584389Y-9667968D01*
X33559438Y-9643017D01*
X33534488Y-9667968D01*
X32087336Y-9667968D01*
X32062385Y-9643017D01*
X32037435Y-9667968D01*
X31667332Y-9667968D01*
X31705994Y-9568165D01*
X32087336Y-9568165D01*
X32112287Y-9593116D01*
X32137238Y-9568165D01*
X32112287Y-9543214D01*
X32087336Y-9568165D01*
X31705994Y-9568165D01*
X31720741Y-9530098D01*
X31725349Y-9518263D01*
X33584389Y-9518263D01*
X33609340Y-9543214D01*
X33634291Y-9518263D01*
X33609340Y-9493312D01*
X33584389Y-9518263D01*
X31725349Y-9518263D01*
X31764209Y-9418460D01*
X32137238Y-9418460D01*
X32162189Y-9443410D01*
X32187140Y-9418460D01*
X32162189Y-9393509D01*
X32137238Y-9418460D01*
X31764209Y-9418460D01*
X31783639Y-9368558D01*
X33634291Y-9368558D01*
X33659242Y-9393509D01*
X33684193Y-9368558D01*
X33659242Y-9343607D01*
X33634291Y-9368558D01*
X31783639Y-9368558D01*
X31803069Y-9318656D01*
X32187140Y-9318656D01*
X32212091Y-9343607D01*
X32237042Y-9318656D01*
X32212091Y-9293705D01*
X32187140Y-9318656D01*
X31803069Y-9318656D01*
X31861360Y-9168951D01*
X32237042Y-9168951D01*
X32261993Y-9193902D01*
X32286943Y-9168951D01*
X32261993Y-9144000D01*
X32237042Y-9168951D01*
X31861360Y-9168951D01*
X31880790Y-9119049D01*
X33734095Y-9119049D01*
X33759046Y-9144000D01*
X33783996Y-9119049D01*
X33759046Y-9094098D01*
X33734095Y-9119049D01*
X31880790Y-9119049D01*
X31920105Y-9018078D01*
X31939177Y-8969344D01*
X33783996Y-8969344D01*
X33808947Y-8994294D01*
X33833898Y-8969344D01*
X33808947Y-8944393D01*
X33783996Y-8969344D01*
X31939177Y-8969344D01*
X31958706Y-8919442D01*
X32336845Y-8919442D01*
X32361796Y-8944393D01*
X32386747Y-8919442D01*
X32361796Y-8894491D01*
X32336845Y-8919442D01*
X31958706Y-8919442D01*
X31997765Y-8819638D01*
X33833898Y-8819638D01*
X33858849Y-8844589D01*
X33883800Y-8819638D01*
X33858849Y-8794687D01*
X33833898Y-8819638D01*
X31997765Y-8819638D01*
X32056352Y-8669933D01*
X32436649Y-8669933D01*
X32461600Y-8694884D01*
X32486550Y-8669933D01*
X33883800Y-8669933D01*
X33908751Y-8694884D01*
X33933702Y-8669933D01*
X33908751Y-8644982D01*
X33883800Y-8669933D01*
X32486550Y-8669933D01*
X32461600Y-8644982D01*
X32436649Y-8669933D01*
X32056352Y-8669933D01*
X32075881Y-8620031D01*
X34682228Y-8620031D01*
X34707179Y-8644982D01*
X34732130Y-8620031D01*
X34707179Y-8595080D01*
X34682228Y-8620031D01*
X32075881Y-8620031D01*
X32095410Y-8570129D01*
X36179281Y-8570129D01*
X36204232Y-8595080D01*
X36229183Y-8570129D01*
X36204232Y-8545179D01*
X36179281Y-8570129D01*
X32095410Y-8570129D01*
X32114939Y-8520228D01*
X32486550Y-8520228D01*
X32511501Y-8545179D01*
X32536452Y-8520228D01*
X32511501Y-8495277D01*
X32486550Y-8520228D01*
X32114939Y-8520228D01*
X32118662Y-8510716D01*
X32134553Y-8470326D01*
X34632327Y-8470326D01*
X34657277Y-8495277D01*
X34682228Y-8470326D01*
X34657277Y-8445375D01*
X34632327Y-8470326D01*
X32134553Y-8470326D01*
X32154187Y-8420424D01*
X32536452Y-8420424D01*
X32561403Y-8445375D01*
X32586354Y-8420424D01*
X33983604Y-8420424D01*
X34008554Y-8445375D01*
X34033505Y-8420424D01*
X34008554Y-8395473D01*
X33983604Y-8420424D01*
X32586354Y-8420424D01*
X32561403Y-8395473D01*
X32536452Y-8420424D01*
X32154187Y-8420424D01*
X32193454Y-8320621D01*
X34582425Y-8320621D01*
X34607376Y-8345571D01*
X34632327Y-8320621D01*
X36079478Y-8320621D01*
X36104429Y-8345571D01*
X36129380Y-8320621D01*
X36104429Y-8295670D01*
X36079478Y-8320621D01*
X34632327Y-8320621D01*
X34607376Y-8295670D01*
X34582425Y-8320621D01*
X32193454Y-8320621D01*
X32213087Y-8270719D01*
X32586354Y-8270719D01*
X32611305Y-8295670D01*
X32636256Y-8270719D01*
X34033505Y-8270719D01*
X34058456Y-8295670D01*
X34083407Y-8270719D01*
X34058456Y-8245768D01*
X34033505Y-8270719D01*
X32636256Y-8270719D01*
X32611305Y-8245768D01*
X32586354Y-8270719D01*
X32213087Y-8270719D01*
X32271988Y-8121014D01*
X34083407Y-8121014D01*
X34108358Y-8145964D01*
X34133309Y-8121014D01*
X34108358Y-8096063D01*
X34083407Y-8121014D01*
X32271988Y-8121014D01*
X32291622Y-8071112D01*
X34482621Y-8071112D01*
X34507572Y-8096063D01*
X34532523Y-8071112D01*
X35979674Y-8071112D01*
X36004625Y-8096063D01*
X36029576Y-8071112D01*
X36004625Y-8046161D01*
X35979674Y-8071112D01*
X34532523Y-8071112D01*
X34507572Y-8046161D01*
X34482621Y-8071112D01*
X32291622Y-8071112D01*
X32311255Y-8021210D01*
X32686158Y-8021210D01*
X32711108Y-8046161D01*
X32736059Y-8021210D01*
X32711108Y-7996259D01*
X32686158Y-8021210D01*
X32311255Y-8021210D01*
X32312967Y-8016858D01*
X32330994Y-7971308D01*
X34133309Y-7971308D01*
X34158260Y-7996259D01*
X34183211Y-7971308D01*
X34158260Y-7946357D01*
X34133309Y-7971308D01*
X32330994Y-7971308D01*
X32350744Y-7921406D01*
X34432719Y-7921406D01*
X34457670Y-7946357D01*
X34482621Y-7921406D01*
X34457670Y-7896456D01*
X34432719Y-7921406D01*
X32350744Y-7921406D01*
X32390243Y-7821603D01*
X35879871Y-7821603D01*
X35904822Y-7846554D01*
X35929772Y-7821603D01*
X35904822Y-7796652D01*
X35879871Y-7821603D01*
X32390243Y-7821603D01*
X32409993Y-7771701D01*
X32785961Y-7771701D01*
X32810912Y-7796652D01*
X32835863Y-7771701D01*
X34382818Y-7771701D01*
X34407769Y-7796652D01*
X34432719Y-7771701D01*
X34407769Y-7746750D01*
X34382818Y-7771701D01*
X32835863Y-7771701D01*
X32810912Y-7746750D01*
X32785961Y-7771701D01*
X32409993Y-7771701D01*
X32429743Y-7721799D01*
X34233112Y-7721799D01*
X34258063Y-7746750D01*
X34283014Y-7721799D01*
X34258063Y-7696849D01*
X34233112Y-7721799D01*
X32429743Y-7721799D01*
X32469242Y-7621996D01*
X32835863Y-7621996D01*
X32860814Y-7646947D01*
X32885765Y-7621996D01*
X32860814Y-7597045D01*
X32835863Y-7621996D01*
X32469242Y-7621996D01*
X32488992Y-7572094D01*
X34283014Y-7572094D01*
X34307965Y-7597045D01*
X34332916Y-7572094D01*
X35780067Y-7572094D01*
X35805018Y-7597045D01*
X35829969Y-7572094D01*
X35805018Y-7547143D01*
X35780067Y-7572094D01*
X34332916Y-7572094D01*
X34307965Y-7547143D01*
X34283014Y-7572094D01*
X32488992Y-7572094D01*
X32499575Y-7545353D01*
X32508805Y-7522192D01*
X32885765Y-7522192D01*
X32910716Y-7547143D01*
X32935666Y-7522192D01*
X32910716Y-7497241D01*
X32885765Y-7522192D01*
X32508805Y-7522192D01*
X32568464Y-7372487D01*
X32935666Y-7372487D01*
X32960617Y-7397438D01*
X32985568Y-7372487D01*
X32960617Y-7347536D01*
X32935666Y-7372487D01*
X32568464Y-7372487D01*
X32588350Y-7322585D01*
X35680264Y-7322585D01*
X35705215Y-7347536D01*
X35730165Y-7322585D01*
X35705215Y-7297634D01*
X35680264Y-7322585D01*
X32588350Y-7322585D01*
X32667896Y-7122978D01*
X33035470Y-7122978D01*
X33060421Y-7147929D01*
X33085372Y-7122978D01*
X33060421Y-7098027D01*
X33035470Y-7122978D01*
X32667896Y-7122978D01*
X32675043Y-7105045D01*
X32687893Y-7073076D01*
X35580460Y-7073076D01*
X35605411Y-7098027D01*
X35630362Y-7073076D01*
X35605411Y-7048126D01*
X35580460Y-7073076D01*
X32687893Y-7073076D01*
X32728007Y-6973273D01*
X35530558Y-6973273D01*
X35555509Y-6998224D01*
X35580460Y-6973273D01*
X35555509Y-6948322D01*
X35530558Y-6973273D01*
X32728007Y-6973273D01*
X32768122Y-6873469D01*
X33135273Y-6873469D01*
X33160224Y-6898420D01*
X33185175Y-6873469D01*
X33160224Y-6848518D01*
X33135273Y-6873469D01*
X32768122Y-6873469D01*
X32788179Y-6823568D01*
X35480657Y-6823568D01*
X35505607Y-6848518D01*
X35530558Y-6823568D01*
X35505607Y-6798617D01*
X35480657Y-6823568D01*
X32788179Y-6823568D01*
X32828295Y-6723764D01*
X33185175Y-6723764D01*
X33210126Y-6748715D01*
X33235077Y-6723764D01*
X35430755Y-6723764D01*
X35455706Y-6748715D01*
X35480657Y-6723764D01*
X35455706Y-6698813D01*
X35430755Y-6723764D01*
X33235077Y-6723764D01*
X33210126Y-6698813D01*
X33185175Y-6723764D01*
X32828295Y-6723764D01*
X32835924Y-6704783D01*
X32868783Y-6623960D01*
X33235077Y-6623960D01*
X33260028Y-6648911D01*
X33284979Y-6623960D01*
X33260028Y-6599010D01*
X33235077Y-6623960D01*
X32868783Y-6623960D01*
X32889070Y-6574059D01*
X35380853Y-6574059D01*
X35405804Y-6599010D01*
X35430755Y-6574059D01*
X35405804Y-6549108D01*
X35380853Y-6574059D01*
X32889070Y-6574059D01*
X32929646Y-6474255D01*
X33284979Y-6474255D01*
X33309930Y-6499206D01*
X33334881Y-6474255D01*
X35330951Y-6474255D01*
X35355902Y-6499206D01*
X35380853Y-6474255D01*
X35355902Y-6449304D01*
X35330951Y-6474255D01*
X33334881Y-6474255D01*
X33309930Y-6449304D01*
X33284979Y-6474255D01*
X32929646Y-6474255D01*
X32970221Y-6374452D01*
X33334881Y-6374452D01*
X33359831Y-6399403D01*
X33384782Y-6374452D01*
X33359831Y-6349501D01*
X33334881Y-6374452D01*
X32970221Y-6374452D01*
X32978774Y-6353413D01*
X32990705Y-6324550D01*
X35281049Y-6324550D01*
X35306000Y-6349501D01*
X35330951Y-6324550D01*
X35306000Y-6299599D01*
X35281049Y-6324550D01*
X32990705Y-6324550D01*
X33031959Y-6224746D01*
X33384782Y-6224746D01*
X33409733Y-6249697D01*
X33434684Y-6224746D01*
X35231148Y-6224746D01*
X35256099Y-6249697D01*
X35281049Y-6224746D01*
X35256099Y-6199795D01*
X35231148Y-6224746D01*
X33434684Y-6224746D01*
X33409733Y-6199795D01*
X33384782Y-6224746D01*
X33031959Y-6224746D01*
X33093841Y-6075041D01*
X35181246Y-6075041D01*
X35206197Y-6099992D01*
X35231148Y-6075041D01*
X35206197Y-6050090D01*
X35181246Y-6075041D01*
X33093841Y-6075041D01*
X33100148Y-6059782D01*
X33136064Y-5975238D01*
X33484586Y-5975238D01*
X33509537Y-6000188D01*
X33534488Y-5975238D01*
X35131344Y-5975238D01*
X35156295Y-6000188D01*
X35181246Y-5975238D01*
X35156295Y-5950287D01*
X35131344Y-5975238D01*
X33534488Y-5975238D01*
X33509537Y-5950287D01*
X33484586Y-5975238D01*
X33136064Y-5975238D01*
X33196602Y-5832736D01*
X33264691Y-5681124D01*
X33300969Y-5613790D01*
X33301269Y-5613450D01*
X33340522Y-5574088D01*
X33387052Y-5545194D01*
X33455702Y-5525152D01*
X33561317Y-5512345D01*
X33718742Y-5505159D01*
X33942820Y-5501977D01*
X34248398Y-5501185D01*
X34332916Y-5501171D01*
X34659651Y-5501642D01*
X34901451Y-5504132D01*
X35073183Y-5510257D01*
X35189714Y-5521633D01*
X35265912Y-5539876D01*
X35316644Y-5566601D01*
X35356776Y-5603424D01*
X35366032Y-5613450D01*
X35400798Y-5677161D01*
X35468560Y-5824964D01*
X35565778Y-6048073D01*
X35688910Y-6337706D01*
X35834414Y-6685079D01*
X35998748Y-7081407D01*
X36178371Y-7517908D01*
X36369742Y-7985798D01*
X36569318Y-8476292D01*
X36773557Y-8980608D01*
X36978919Y-9489961D01*
X37181861Y-9995568D01*
X37378842Y-10488646D01*
X37566321Y-10960409D01*
X37740755Y-11402076D01*
X37898603Y-11804862D01*
X38036323Y-12159983D01*
X38150373Y-12458655D01*
X38237213Y-12692096D01*
X38293299Y-12851521D01*
X38314969Y-12927125D01*
X38306132Y-13084776D01*
X38222373Y-13214061D01*
X38179653Y-13256654D01*
X38133247Y-13287931D01*
X38068147Y-13309639D01*
X37969350Y-13323524D01*
X37821849Y-13331334D01*
X37610639Y-13334817D01*
X37320714Y-13335719D01*
X37177317Y-13335748D01*
X36828263Y-13336208D01*
X36562771Y-13330710D01*
X36364695Y-13308940D01*
X36217886Y-13260585D01*
X36106200Y-13175328D01*
X36013490Y-13042857D01*
X35923608Y-12852857D01*
X35907167Y-12811780D01*
X36279085Y-12811780D01*
X36304036Y-12836731D01*
X36328987Y-12811780D01*
X37875941Y-12811780D01*
X37900892Y-12836731D01*
X37925843Y-12811780D01*
X37900892Y-12786829D01*
X37875941Y-12811780D01*
X36328987Y-12811780D01*
X36304036Y-12786829D01*
X36279085Y-12811780D01*
X35907167Y-12811780D01*
X35847249Y-12662074D01*
X36229183Y-12662074D01*
X36254134Y-12687025D01*
X36279085Y-12662074D01*
X36254134Y-12637124D01*
X36229183Y-12662074D01*
X35847249Y-12662074D01*
X35820409Y-12595013D01*
G37*
%TO.C,R1*%
X37846000Y-68985000D02*
X37846000Y-70945000D01*
X39566000Y-80185000D02*
X39566000Y-70945000D01*
X37846000Y-82145000D02*
X37846000Y-80185000D01*
X36126000Y-80185000D02*
X39566000Y-80185000D01*
X36126000Y-70945000D02*
X36126000Y-80185000D01*
X39566000Y-70945000D02*
X36126000Y-70945000D01*
%TO.C,HV1*%
X72644000Y-90424000D02*
X48260000Y-90424000D01*
X48260000Y-90424000D02*
X48260000Y-68326000D01*
X48260000Y-68326000D02*
X72644000Y-68326000D01*
X72644000Y-68326000D02*
X72644000Y-90424000D01*
%TO.C,J3*%
X25086000Y-67519000D02*
X26416000Y-67519000D01*
X25086000Y-68849000D02*
X25086000Y-67519000D01*
X25086000Y-75259000D02*
X27746000Y-75259000D01*
X25086000Y-70119000D02*
X25086000Y-75259000D01*
X27746000Y-70119000D02*
X27746000Y-75259000D01*
X25086000Y-70119000D02*
X27746000Y-70119000D01*
%TO.C,J5*%
X41850000Y-85045000D02*
X43180000Y-85045000D01*
X41850000Y-87645000D02*
X44510000Y-87645000D01*
X41850000Y-92785000D02*
X44510000Y-92785000D01*
X41850000Y-86375000D02*
X41850000Y-85045000D01*
X44510000Y-87645000D02*
X44510000Y-92785000D01*
X41850000Y-87645000D02*
X41850000Y-92785000D01*
%TO.C,J1*%
X15180000Y-75244000D02*
X17840000Y-75244000D01*
X15180000Y-67504000D02*
X16510000Y-67504000D01*
X15180000Y-68834000D02*
X15180000Y-67504000D01*
X17840000Y-70104000D02*
X17840000Y-75244000D01*
X15180000Y-70104000D02*
X17840000Y-70104000D01*
X15180000Y-70104000D02*
X15180000Y-75244000D01*
%TO.C,BT1*%
X13987000Y-91136000D02*
X24337000Y-91136000D01*
X24337000Y-91136000D02*
X24337000Y-90186000D01*
X24837000Y-90436000D02*
X24837000Y-88536000D01*
X24837000Y-78536000D02*
X13987000Y-78536000D01*
X24837000Y-83636000D02*
X24837000Y-78536000D01*
X24837000Y-88486000D02*
X24337000Y-88736000D01*
X24337000Y-83336000D02*
X24837000Y-83636000D01*
X13987000Y-78536000D02*
X13987000Y-91136000D01*
X24337000Y-88736000D02*
X24337000Y-83336000D01*
X24837000Y-88536000D02*
X24837000Y-88486000D01*
X24337000Y-90186000D02*
X24837000Y-90436000D01*
%TD*%
M02*
